<?xml version="1.0" standalone="no"?>
<!DOCTYPE svg PUBLIC "-//W3C//DTD SVG 20010904//EN"
 "http://www.w3.org/TR/2001/REC-SVG-20010904/DTD/svg10.dtd">
<svg version="1.0" xmlns="http://www.w3.org/2000/svg"
 width="623.000000pt" height="623.000000pt" viewBox="0 0 623.000000 623.000000"
 preserveAspectRatio="xMidYMid meet">
<metadata>
Created by potrace 1.11, written by Peter Selinger 2001-2013
</metadata>
<g transform="translate(0.000000,623.000000) scale(0.100000,-0.100000)"
fill="#000000" stroke="none">
<path d="M2999 6216 c-148 -39 -253 -168 -265 -327 -14 -179 58 -326 193 -389
65 -30 76 -32 177 -35 230 -7 380 137 385 368 4 183 -93 329 -251 378 -50 16
-187 19 -239 5z"/>
<path d="M2880 2285 l0 -2285 230 0 230 0 0 2285 0 2285 -230 0 -230 0 0
-2285z"/>
</g>
</svg>
