<svg width="369" height="341" viewBox="0 0 369 341" fill="none" xmlns="http://www.w3.org/2000/svg">
<path d="M58.7266 176.234L180.619 209.405V341L63.1592 287.919L58.7266 176.234Z" fill="#476CB9"/>
<path d="M180.619 199.458L123.003 139.739L0 114.306L58.7338 167.387L180.619 199.458Z" fill="#2E306C"/>
<path d="M26.0445 112.648L17.7305 99.9355L142.945 84.4497L180.619 140.846L142.945 149.693L126.876 132.557L26.0445 112.648Z" fill="#F2F2F2"/>
<path d="M310.274 176.234L188.382 209.405V341L305.842 287.919L310.274 176.234Z" fill="#476CB9"/>
<path d="M188.382 199.458L245.998 139.739L369 114.306L310.274 167.387L188.382 199.458Z" fill="#2E306C"/>
<path d="M342.964 112.648L351.27 99.9355L226.055 84.4497L188.382 140.846L226.055 149.693L242.124 132.557L342.964 112.648Z" fill="#F2F2F2"/>
<path d="M274.913 90.6532C280.042 76.0384 272.325 60.0408 257.68 54.9145C257.603 54.8839 257.519 54.861 257.435 54.8381C257.871 54.097 258.239 53.3101 258.537 52.4698C260.987 45.4947 257.305 37.8702 250.323 35.4255C247.291 34.3636 244.137 34.4552 241.335 35.4713C242.514 28.0913 238.288 20.7037 230.969 18.1444C227.846 17.0519 224.615 16.9984 221.652 17.8006C219.363 15.1496 216.362 13.041 212.818 11.7958C206.027 9.41981 198.831 10.7797 193.48 14.7982C191.321 9.46565 186.965 5.04223 181.101 2.99478C171.86 -0.236831 161.885 3.44553 156.81 11.3145C155.707 10.7033 154.543 10.1685 153.319 9.74068C143.236 6.21875 132.327 10.3595 126.976 19.107C118.562 19.871 110.952 25.4098 107.974 33.8899C107.301 35.7998 106.918 37.7403 106.78 39.6656C95.0671 41.9651 84.8392 50.2084 80.6133 62.2639C76.3109 74.5257 79.3118 87.5668 87.3273 96.681C87.2584 96.8567 87.1895 97.04 87.1206 97.2234C84.6708 104.191 88.3531 111.823 95.335 114.268C99.2853 115.65 103.45 115.07 106.765 113.053C109.643 116.498 113.456 119.233 118.003 120.823C127.603 124.176 137.847 121.518 144.622 114.825C146.696 122.847 152.607 129.715 161.028 132.657C171.378 136.278 182.479 132.893 189.162 125.017C191.413 128.172 194.628 130.693 198.563 132.068C208.699 135.613 219.8 130.281 223.352 120.166C224.11 118.003 224.462 115.803 224.447 113.634C224.784 113.786 225.136 113.932 225.496 114.054C231.26 116.071 237.523 113.473 240.248 108.209C254.556 112.572 269.906 104.901 274.913 90.6532Z" fill="#829BCF"/>
<path d="M169.41 135.911C166.386 135.911 163.332 135.414 160.392 134.383C152.622 131.663 146.543 125.674 143.695 118.065C136.308 123.993 126.47 125.72 117.368 122.541C113.149 121.067 109.36 118.592 106.328 115.345C102.699 117.087 98.5425 117.331 94.6994 115.987C90.8562 114.642 87.771 111.892 86.0102 108.232C84.3107 104.71 84.0351 100.761 85.2141 97.0553C77.0532 87.2076 74.6111 73.7464 78.8523 61.6603C82.9786 49.9104 92.9462 41.0101 105.065 38.1605C105.279 36.5027 105.67 34.8677 106.221 33.2863C109.23 24.7069 116.885 18.5492 125.881 17.388C131.913 8.33491 143.542 4.40044 153.9 8.02168C154.673 8.28907 155.447 8.60994 156.204 8.96901C162.084 1.16883 172.327 -1.99403 181.69 1.28342C187.11 3.17808 191.581 7.05907 194.222 12.0937C199.972 8.6023 206.992 7.83833 213.415 10.0844C216.783 11.2609 219.823 13.2243 222.28 15.7913C225.373 15.1648 228.565 15.3864 231.574 16.433C238.755 18.9465 243.394 25.6848 243.364 33.0724C245.89 32.6522 248.5 32.8585 250.935 33.7141C258.858 36.4874 263.046 45.1738 260.275 53.0809C260.183 53.3406 260.091 53.5928 259.984 53.8449C266.744 56.6639 272.164 61.7902 275.372 68.4368C278.84 75.6258 279.291 83.7316 276.65 91.2643C271.49 105.971 256.064 114.145 241.097 110.348C237.867 115.207 231.827 117.56 226.131 116.155C225.955 117.721 225.595 119.272 225.067 120.769C223.183 126.125 219.333 130.426 214.211 132.886C209.089 135.346 203.309 135.667 197.943 133.795C194.482 132.588 191.443 130.54 189.047 127.828C183.803 133.054 176.668 135.911 169.41 135.911ZM145.563 111.296L146.359 114.375C148.357 122.114 154.061 128.309 161.602 130.945C170.88 134.192 181.384 131.335 187.738 123.848L189.261 122.06L190.624 123.97C192.745 126.942 195.692 129.15 199.145 130.357C208.316 133.566 218.391 128.722 221.606 119.57C222.28 117.66 222.609 115.666 222.602 113.656L222.586 110.799L225.189 111.991C225.503 112.136 225.794 112.251 226.077 112.35C230.885 114.031 236.267 111.899 238.594 107.392L239.291 106.04L240.753 106.483C243.318 107.262 245.913 107.636 248.454 107.636C259.325 107.636 269.393 100.86 273.182 90.0725C275.502 83.4642 275.104 76.3516 272.064 70.0411C269.025 63.7307 263.697 58.9788 257.075 56.6639L257.006 56.641C256.952 56.6257 256.899 56.6105 256.845 56.5875L254.717 55.8694L255.85 53.9365C256.233 53.2872 256.554 52.5996 256.799 51.8967C258.912 45.8843 255.727 39.2835 249.702 37.1749C247.191 36.2964 244.435 36.3117 241.94 37.2131L239.023 38.2674L239.513 35.2039C240.577 28.5573 236.726 22.117 230.349 19.8862C227.677 18.9542 224.829 18.8472 222.112 19.5806L221.001 19.8786L220.251 19.0076C218.1 16.5171 215.313 14.6224 212.198 13.5376C206.226 11.4519 199.627 12.468 194.559 16.2726L192.653 17.7012L191.757 15.4934C189.721 10.4511 185.602 6.52429 180.465 4.72895C172.174 1.83349 163.064 4.9505 158.31 12.3076L157.383 13.7438L155.883 12.9111C154.842 12.3305 153.762 11.8492 152.675 11.4672C143.642 8.31199 133.475 11.9256 128.491 20.0619L128.009 20.8488L127.09 20.9328C119.136 21.6586 112.284 26.9835 109.651 34.501C109.054 36.2047 108.678 37.9924 108.556 39.803L108.456 41.1935L107.086 41.4608C95.641 43.7069 86.1404 51.912 82.2896 62.8751C78.3623 74.0596 80.7968 86.5583 88.6514 95.4815L89.394 96.3219L88.9806 97.3609C88.9194 97.5137 88.8581 97.6741 88.8045 97.8345C87.7863 100.745 87.9548 103.878 89.3022 106.658C90.6419 109.439 92.9845 111.533 95.9013 112.549C99.1932 113.702 102.791 113.32 105.769 111.494L107.117 110.669L108.127 111.876C110.883 115.169 114.489 117.667 118.562 119.088C127.259 122.129 136.729 119.997 143.282 113.519L145.563 111.296Z" fill="#2E306C"/>
<path d="M145.38 115.444L144.201 114.321L167.053 90.4011L138.169 85.2519L149.912 61.3013L160.316 34.1038L133.774 45.594L116.794 90.0497L102.915 92.7618L107.738 112.893L106.153 113.267L100.939 91.4936L115.592 88.6363L132.496 44.3716L163.21 31.0785L151.39 61.9813L140.572 84.0372L170.322 89.3315L145.38 115.444Z" fill="#2E306C"/>
<path d="M88.1157 97.2234L86.8984 96.1461L117.674 61.3013L105.846 40.2003L107.262 39.4058L119.657 61.5152L88.1157 97.2234Z" fill="#2E306C"/>
<path d="M191.291 129.295L167.068 116.46L186.46 101.395L186.636 101.357L231.13 90.9665L240.133 106.299L255.95 74.7779L234.185 57.1377L202.797 86.4438L178.001 63.3412L210.162 62.6918L212.16 33.6073L183.536 37.0528L192.868 14.6149L194.368 15.2337L186.1 35.1047L213.913 31.7661L211.685 64.2885L182.035 64.8844L202.797 84.2206L234.108 54.9909L257.986 74.3348L240.248 109.699L230.334 92.823L187.18 102.892L170.046 116.201L192.049 127.866L191.291 129.295Z" fill="#2E306C"/>
<path d="M136.4 46.1211C135.764 47.9241 133.797 48.8714 131.99 48.2374C130.183 47.6033 129.234 45.6398 129.869 43.8369C130.497 42.0415 132.472 41.0942 134.279 41.7206C136.078 42.3547 137.035 44.3258 136.4 46.1211Z" fill="#00A99D"/>
<path d="M133.139 49.6507C132.618 49.6507 132.098 49.5667 131.592 49.3834C130.413 48.9708 129.464 48.1228 128.92 46.9998C128.377 45.8767 128.308 44.6085 128.721 43.432C129.135 42.2555 129.985 41.3081 131.11 40.7657C132.235 40.2233 133.506 40.1545 134.685 40.5671C135.864 40.9796 136.813 41.8276 137.357 42.9507C137.901 44.0737 137.969 45.3419 137.556 46.5184C137.143 47.695 136.293 48.6423 135.167 49.1847C134.524 49.4979 133.835 49.6507 133.139 49.6507ZM133.131 42.7444C132.802 42.7444 132.473 42.8208 132.159 42.966C131.623 43.2257 131.217 43.6765 131.018 44.2418C130.612 45.403 131.225 46.6789 132.388 47.0914C132.955 47.2901 133.56 47.2519 134.103 46.9998C134.639 46.74 135.045 46.2893 135.244 45.7239C135.443 45.1586 135.405 44.555 135.152 44.0202C134.892 43.4855 134.44 43.0806 133.874 42.8819C133.636 42.7903 133.384 42.7444 133.131 42.7444Z" fill="#2E306C"/>
<path d="M121.931 62.5542C121.296 64.3496 119.328 65.3045 117.521 64.6704C115.722 64.0363 114.765 62.0729 115.401 60.27C116.036 58.4746 118.004 57.5273 119.81 58.1538C121.617 58.7802 122.566 60.7513 121.931 62.5542Z" fill="#FCEE21"/>
<path d="M118.661 66.0762C118.148 66.0762 117.628 65.9921 117.123 65.8164C115.944 65.4039 114.994 64.5559 114.451 63.4328C113.907 62.3098 113.838 61.0416 114.252 59.8651C114.665 58.6886 115.515 57.7412 116.64 57.1988C117.766 56.6564 119.036 56.5876 120.215 57.0002C121.394 57.4127 122.344 58.2607 122.887 59.3838C123.431 60.5068 123.5 61.775 123.086 62.9515C122.405 64.8767 120.598 66.0762 118.661 66.0762ZM118.669 59.1775C117.743 59.1775 116.878 59.7581 116.556 60.6749C116.357 61.2402 116.395 61.8438 116.648 62.3862C116.908 62.921 117.36 63.3259 117.926 63.5245C119.09 63.9294 120.369 63.3182 120.782 62.157C121.188 60.9958 120.575 59.7199 119.412 59.3074C119.167 59.2157 118.914 59.1775 118.669 59.1775Z" fill="#2E306C"/>
<path d="M153.924 62.7605C153.288 64.5635 151.321 65.5108 149.514 64.8767C147.708 64.2426 146.758 62.2792 147.394 60.4763C148.021 58.6809 149.997 57.7336 151.803 58.3601C153.602 58.9941 154.552 60.9652 153.924 62.7605Z" fill="#00FF00"/>
<path d="M150.655 66.29C150.142 66.29 149.621 66.206 149.116 66.0303C146.682 65.1823 145.396 62.5084 146.245 60.0789C147.095 57.6495 149.775 56.366 152.209 57.214C153.388 57.6266 154.337 58.4746 154.881 59.5976C155.424 60.7207 155.493 61.9889 155.08 63.1654C154.399 65.083 152.584 66.29 150.655 66.29ZM150.663 59.3837C149.736 59.3837 148.871 59.9643 148.55 60.8811C148.144 62.0423 148.756 63.3182 149.92 63.7307C151.084 64.1356 152.37 63.5244 152.776 62.3632C153.181 61.202 152.569 59.9261 151.405 59.5136C151.153 59.4295 150.908 59.3837 150.663 59.3837Z" fill="#2E306C"/>
<path d="M119.458 90.4852C118.823 92.2805 116.855 93.2355 115.048 92.6014C113.242 91.9673 112.292 90.0038 112.928 88.2009C113.556 86.4055 115.531 85.4582 117.337 86.0847C119.137 86.7188 120.086 88.6822 119.458 90.4852Z" fill="#00A99D"/>
<path d="M116.189 94.0147C115.676 94.0147 115.156 93.9306 114.65 93.7549C112.216 92.9069 110.93 90.233 111.78 87.8036C112.193 86.627 113.043 85.6797 114.168 85.1373C115.293 84.5949 116.564 84.5261 117.743 84.9387C120.178 85.7867 121.464 88.4606 120.614 90.89C119.933 92.8076 118.118 94.0147 116.189 94.0147ZM116.197 87.1083C115.27 87.1083 114.405 87.689 114.084 88.6057C113.678 89.767 114.291 91.0428 115.454 91.4554C116.618 91.8603 117.896 91.2491 118.31 90.0878C118.715 88.9266 118.103 87.6508 116.939 87.2382C116.687 87.1465 116.442 87.1083 116.197 87.1083Z" fill="#2E306C"/>
<path d="M142.632 85.7867C141.996 87.5897 140.029 88.537 138.222 87.9029C136.416 87.2688 135.466 85.3054 136.102 83.5024C136.729 81.707 138.705 80.7597 140.511 81.3862C142.318 82.0203 143.267 83.9913 142.632 85.7867Z" fill="#FF0000"/>
<path d="M139.363 89.3163C138.85 89.3163 138.329 89.2322 137.824 89.0565C135.39 88.2085 134.104 85.5346 134.953 83.1052C135.803 80.6757 138.483 79.3923 140.917 80.2403C143.352 81.0883 144.638 83.7622 143.788 86.1916C143.114 88.1092 141.3 89.3163 139.363 89.3163ZM139.371 82.41C138.444 82.41 137.579 82.9906 137.258 83.9073C136.852 85.0686 137.464 86.3444 138.628 86.757C139.792 87.1619 141.07 86.5507 141.484 85.3895C141.889 84.2282 141.277 82.9524 140.113 82.5398C139.868 82.4482 139.616 82.41 139.371 82.41Z" fill="#2E306C"/>
<path d="M165.024 33.7294C164.389 35.5248 162.422 36.4797 160.615 35.8456C158.808 35.2115 157.859 33.2481 158.494 31.4451C159.13 29.6498 161.097 28.7025 162.904 29.3289C164.711 29.963 165.66 31.9341 165.024 33.7294Z" fill="#00A99D"/>
<path d="M161.771 37.259C161.25 37.259 160.729 37.1673 160.224 36.9916C159.045 36.579 158.096 35.731 157.552 34.608C157.009 33.4849 156.94 32.2167 157.353 31.0402C158.203 28.6108 160.883 27.3273 163.317 28.1753C164.496 28.5879 165.445 29.4359 165.989 30.5589C166.532 31.682 166.601 32.9502 166.188 34.1267C165.774 35.3032 164.925 36.2505 163.799 36.793C163.149 37.1062 162.46 37.259 161.771 37.259ZM161.763 30.3527C160.837 30.3527 159.971 30.9333 159.65 31.85C159.451 32.4154 159.489 33.0189 159.742 33.5613C160.002 34.0961 160.454 34.501 161.02 34.6997C161.587 34.8983 162.192 34.8601 162.735 34.608C163.271 34.3482 163.677 33.8975 163.876 33.3322C164.075 32.7668 164.037 32.1633 163.784 31.6285C163.524 31.0937 163.072 30.6888 162.506 30.4902C162.261 30.3985 162.008 30.3527 161.763 30.3527Z" fill="#2E306C"/>
<path d="M188.083 37.2209C187.448 39.0239 185.48 39.9712 183.673 39.3371C181.867 38.703 180.917 36.7396 181.553 34.9366C182.188 33.1412 184.156 32.1939 185.962 32.8204C187.762 33.4545 188.711 35.4179 188.083 37.2209Z" fill="#FCEE21"/>
<path d="M184.814 40.7504C184.301 40.7504 183.78 40.6664 183.275 40.4907C182.096 40.0781 181.147 39.2301 180.603 38.1071C180.06 36.984 179.991 35.7158 180.404 34.5393C180.817 33.3628 181.667 32.4154 182.793 31.873C183.918 31.3306 185.189 31.2618 186.368 31.6744C187.547 32.0869 188.496 32.9349 189.04 34.058C189.583 35.181 189.652 36.4492 189.239 37.6257C188.557 39.5433 186.743 40.7504 184.814 40.7504ZM184.814 33.8441C184.485 33.8441 184.155 33.9205 183.841 34.0656C183.306 34.3254 182.9 34.7761 182.701 35.3415C182.502 35.9068 182.54 36.5103 182.793 37.0528C183.053 37.5875 183.505 37.9925 184.071 38.1911C185.235 38.596 186.521 37.9848 186.927 36.8236C187.126 36.2582 187.087 35.6547 186.835 35.1123C186.574 34.5775 186.123 34.1726 185.556 33.9739C185.311 33.8823 185.066 33.8441 184.814 33.8441Z" fill="#2E306C"/>
<path d="M183.282 65.251C182.647 67.054 180.679 68.0013 178.873 67.3672C177.066 66.7331 176.117 64.7697 176.752 62.9667C177.387 61.1714 179.355 60.2241 181.162 60.8505C182.968 61.477 183.91 63.4557 183.282 65.251Z" fill="#00A99D"/>
<path d="M180.013 68.7806C179.5 68.7806 178.98 68.6966 178.475 68.5209C176.04 67.6729 174.754 64.999 175.604 62.5695C176.453 60.1401 179.133 58.8566 181.567 59.7046C184.002 60.5526 185.288 63.2265 184.438 65.656C183.757 67.5736 181.943 68.7806 180.013 68.7806ZM180.013 61.8743C179.087 61.8743 178.222 62.4549 177.9 63.3717C177.495 64.5329 178.107 65.8088 179.271 66.2213C180.434 66.6262 181.713 66.015 182.126 64.8538C182.532 63.6926 181.92 62.4167 180.756 62.0042C180.511 61.9201 180.258 61.8743 180.013 61.8743Z" fill="#2E306C"/>
<path d="M171.952 91.0047C171.317 92.8 169.349 93.755 167.543 93.1209C165.736 92.4868 164.787 90.5234 165.422 88.7204C166.05 86.9251 168.025 85.9777 169.832 86.6042C171.631 87.2383 172.58 89.2093 171.952 91.0047Z" fill="#00A99D"/>
<path d="M168.691 94.5342C168.171 94.5342 167.65 94.4501 167.145 94.2668C165.966 93.8542 165.017 93.0062 164.473 91.8832C163.93 90.7601 163.861 89.4919 164.274 88.3154C164.688 87.1389 165.537 86.1916 166.663 85.6491C167.788 85.1067 169.059 85.038 170.238 85.4505C171.417 85.8631 172.366 86.7111 172.91 87.8341C173.453 88.9571 173.522 90.2253 173.109 91.4019C172.695 92.5784 171.846 93.5257 170.72 94.0681C170.069 94.3814 169.38 94.5342 168.691 94.5342ZM168.684 87.6278C168.355 87.6278 168.025 87.7042 167.712 87.8494C167.176 88.1091 166.77 88.5599 166.571 89.1252C166.372 89.6906 166.41 90.2941 166.663 90.8365C166.923 91.3713 167.375 91.7762 167.941 91.9748C168.508 92.1735 169.113 92.1353 169.648 91.8832C170.184 91.6234 170.59 91.1727 170.789 90.6073C170.988 90.042 170.95 89.4385 170.697 88.896C170.437 88.3612 169.985 87.9563 169.419 87.7577C169.181 87.6737 168.936 87.6278 168.684 87.6278Z" fill="#2E306C"/>
<path d="M190.081 103.289C189.446 105.085 187.478 106.04 185.672 105.406C183.873 104.771 182.923 102.808 183.551 101.005C184.179 99.2097 186.154 98.2624 187.961 98.8889C189.767 99.523 190.717 101.486 190.081 103.289Z" fill="#00FF00"/>
<path d="M186.82 106.819C186.307 106.819 185.786 106.735 185.281 106.559C184.102 106.147 183.153 105.299 182.609 104.176C182.065 103.052 181.997 101.784 182.41 100.608C182.823 99.4312 183.673 98.4839 184.798 97.9415C185.924 97.3991 187.195 97.3303 188.374 97.7429C189.553 98.1554 190.502 99.0034 191.045 100.126C191.589 101.25 191.658 102.518 191.244 103.694C190.563 105.612 188.749 106.819 186.82 106.819ZM186.82 99.9125C186.49 99.9125 186.161 99.989 185.847 100.134C185.311 100.394 184.906 100.845 184.707 101.41C184.508 101.975 184.546 102.579 184.798 103.121C185.059 103.656 185.51 104.061 186.077 104.26C187.241 104.664 188.519 104.053 188.932 102.892C189.132 102.327 189.093 101.723 188.841 101.181C188.58 100.646 188.129 100.241 187.562 100.042C187.317 99.9507 187.065 99.9125 186.82 99.9125Z" fill="#2E306C"/>
<path d="M171.822 117.476C171.187 119.279 169.219 120.227 167.413 119.593C165.606 118.958 164.657 116.995 165.292 115.192C165.92 113.397 167.895 112.449 169.702 113.076C171.501 113.702 172.45 115.673 171.822 117.476Z" fill="#00A99D"/>
<path d="M168.561 121.006C168.04 121.006 167.519 120.922 167.014 120.739C165.835 120.326 164.886 119.478 164.342 118.355C163.799 117.232 163.73 115.964 164.143 114.787C164.557 113.611 165.406 112.663 166.532 112.121C167.657 111.579 168.928 111.51 170.107 111.922C171.286 112.335 172.235 113.183 172.779 114.306C173.322 115.429 173.391 116.697 172.978 117.874C172.564 119.05 171.715 119.998 170.589 120.54C169.939 120.846 169.25 121.006 168.561 121.006ZM168.553 114.1C168.224 114.1 167.895 114.176 167.581 114.321C167.045 114.581 166.639 115.032 166.44 115.597C166.241 116.162 166.279 116.766 166.532 117.301C166.792 117.835 167.244 118.24 167.81 118.439C168.377 118.638 168.982 118.599 169.525 118.347C170.061 118.088 170.467 117.637 170.666 117.072C170.865 116.506 170.827 115.903 170.574 115.368C170.314 114.833 169.862 114.428 169.296 114.23C169.058 114.138 168.806 114.1 168.553 114.1Z" fill="#2E306C"/>
<path d="M214.189 64.6322C213.561 66.4276 211.586 67.3825 209.779 66.7485C207.98 66.1144 207.023 64.1509 207.659 62.348C208.286 60.5526 210.261 59.6053 212.068 60.2318C213.875 60.8582 214.824 62.8293 214.189 64.6322Z" fill="#FFFF00"/>
<path d="M210.919 68.1542C210.406 68.1542 209.886 68.0701 209.38 67.8944C208.201 67.4819 207.252 66.6339 206.709 65.5108C206.165 64.3878 206.096 63.1196 206.51 61.9431C207.359 59.5136 210.039 58.2301 212.473 59.0782C213.652 59.4907 214.602 60.3387 215.145 61.4617C215.689 62.5848 215.758 63.853 215.344 65.0295C214.663 66.9547 212.856 68.1542 210.919 68.1542ZM210.927 61.2555C210 61.2555 209.135 61.8285 208.814 62.7529C208.615 63.3182 208.653 63.9217 208.906 64.4642C209.166 64.9989 209.618 65.4039 210.184 65.6025C211.348 66.0074 212.626 65.3962 213.04 64.235C213.239 63.6696 213.201 63.0661 212.948 62.5313C212.688 61.9965 212.236 61.5916 211.669 61.393C211.424 61.2937 211.172 61.2555 210.927 61.2555Z" fill="#2E306C"/>
<path d="M216.301 33.8288C215.673 35.6318 213.698 36.5791 211.891 35.945C210.092 35.3109 209.135 33.3475 209.771 31.5445C210.399 29.7492 212.374 28.8018 214.18 29.4283C215.979 30.0547 216.929 32.0258 216.301 33.8288Z" fill="#00A99D"/>
<path d="M213.033 37.3507C212.52 37.3507 211.999 37.2667 211.494 37.091C209.06 36.2429 207.773 33.569 208.623 31.1396C209.473 28.7102 212.152 27.4267 214.587 28.2747C217.021 29.1227 218.308 31.7966 217.458 34.2261C216.776 36.1513 214.962 37.3507 213.033 37.3507ZM213.033 30.452C212.107 30.452 211.241 31.0326 210.92 31.9494C210.514 33.1106 211.127 34.3865 212.29 34.799C213.454 35.2039 214.74 34.5928 215.146 33.4315C215.552 32.2703 214.939 30.9944 213.775 30.5819C213.53 30.4902 213.278 30.452 213.033 30.452Z" fill="#2E306C"/>
<path d="M237.407 57.2065C236.78 59.0018 234.805 59.9568 232.998 59.3227C231.199 58.6886 230.242 56.7252 230.877 54.9222C231.513 53.1268 233.48 52.1795 235.287 52.806C237.094 53.4324 238.043 55.4035 237.407 57.2065Z" fill="#00A99D"/>
<path d="M234.139 60.736C233.626 60.736 233.106 60.6519 232.601 60.4762C230.166 59.6282 228.88 56.9543 229.73 54.5248C230.579 52.0954 233.259 50.8119 235.693 51.6599C238.128 52.508 239.414 55.1819 238.564 57.6113C237.883 59.5289 236.076 60.736 234.139 60.736ZM234.147 53.8296C233.221 53.8296 232.356 54.4102 232.034 55.327C231.628 56.4883 232.241 57.7641 233.404 58.1766C234.568 58.5816 235.847 57.9704 236.26 56.8091C236.666 55.6479 236.053 54.372 234.89 53.9595C234.645 53.8678 234.392 53.8296 234.147 53.8296Z" fill="#2E306C"/>
<path d="M206.066 86.4743C205.43 88.2773 203.463 89.2246 201.656 88.5905C199.849 87.9564 198.9 85.993 199.535 84.19C200.171 82.3947 202.138 81.4473 203.945 82.0738C205.744 82.7079 206.693 84.679 206.066 86.4743Z" fill="#00A99D"/>
<path d="M202.797 90.0038C202.284 90.0038 201.764 89.9198 201.251 89.7441C200.072 89.3315 199.122 88.4835 198.586 87.3605C198.043 86.2374 197.974 84.9692 198.387 83.7927C198.801 82.6162 199.651 81.6689 200.776 81.1264C201.901 80.584 203.172 80.5153 204.351 80.9278C205.53 81.3403 206.479 82.1884 207.023 83.3114C207.567 84.4344 207.635 85.7026 207.222 86.8792C206.541 88.7967 204.726 90.0038 202.797 90.0038ZM202.797 83.0975C202.468 83.0975 202.139 83.1739 201.825 83.319C201.289 83.5788 200.883 84.0295 200.684 84.5949C200.485 85.1602 200.523 85.7638 200.776 86.2985C201.029 86.8333 201.488 87.2382 202.054 87.4369C203.218 87.8418 204.497 87.2306 204.91 86.0693C205.109 85.504 205.071 84.9005 204.818 84.3657C204.558 83.8309 204.106 83.426 203.54 83.2274C203.295 83.1433 203.05 83.0975 202.797 83.0975Z" fill="#2E306C"/>
<path d="M233.993 93.0368C233.358 94.8398 231.391 95.7871 229.584 95.153C227.785 94.5189 226.828 92.5555 227.463 90.7525C228.099 88.9572 230.066 88.0098 231.873 88.6363C233.672 89.2704 234.621 91.2415 233.993 93.0368Z" fill="#00A99D"/>
<path d="M230.724 96.5664C230.211 96.5664 229.691 96.4824 229.186 96.3066C226.751 95.4586 225.465 92.7847 226.315 90.3553C227.164 87.9259 229.844 86.6424 232.278 87.4904C234.713 88.3384 235.999 91.0123 235.149 93.4417C234.468 95.3593 232.654 96.5664 230.724 96.5664ZM230.732 89.6601C229.806 89.6601 228.941 90.2407 228.619 91.1575C228.213 92.3187 228.826 93.5945 229.989 94.0071C231.153 94.412 232.439 93.8008 232.845 92.6396C233.251 91.4783 232.638 90.2025 231.475 89.7899C231.222 89.6983 230.977 89.6601 230.732 89.6601Z" fill="#2E306C"/>
<path d="M260.236 75.6946C259.601 77.49 257.634 78.4449 255.827 77.8108C254.028 77.1767 253.079 75.2133 253.706 73.4103C254.342 71.615 256.309 70.6677 258.116 71.2941C259.915 71.9282 260.864 73.8993 260.236 75.6946Z" fill="#FF0000"/>
<path d="M256.975 79.2242C256.455 79.2242 255.934 79.1402 255.421 78.9568C254.242 78.5443 253.293 77.6962 252.75 76.5732C252.206 75.4502 252.137 74.182 252.551 73.0054C253.4 70.576 256.08 69.2925 258.514 70.1405C259.693 70.5531 260.642 71.4011 261.178 72.5241C261.722 73.6472 261.791 74.9154 261.377 76.0919C260.964 77.2684 260.114 78.2157 258.989 78.7582C258.353 79.0714 257.664 79.2242 256.975 79.2242ZM256.968 72.3179C256.041 72.3179 255.176 72.8985 254.855 73.8153C254.656 74.3806 254.694 74.9841 254.947 75.5266C255.207 76.0613 255.659 76.4662 256.225 76.6649C256.792 76.8635 257.397 76.8253 257.94 76.5732C258.476 76.3135 258.882 75.8627 259.081 75.2974C259.28 74.732 259.242 74.1285 258.989 73.5937C258.729 73.0589 258.277 72.654 257.71 72.4554C257.465 72.3637 257.213 72.3179 256.968 72.3179Z" fill="#2E306C"/>
<path d="M84.4793 217.007L71.4954 213.18L70.6533 195.898L83.7674 199.26L84.4793 217.007ZM72.2763 212.293L83.553 215.594L82.9252 200.215L71.549 197.266L72.2763 212.293Z" fill="white"/>
<path d="M76.9849 211.43L73.7695 205.486L74.4049 204.959L76.8471 209.474L81.2338 201.284L81.984 202.132L76.9849 211.43Z" fill="white"/>
<path d="M141.399 233.257L87.052 217.282L86.7305 208.993L141.384 224.081L141.399 233.257Z" fill="#F2F2F2"/>
<path d="M85.4828 241.928L72.6826 237.459L71.8711 220.735L84.8014 224.761L85.4828 241.928ZM73.4482 236.656L84.5641 240.507L83.9593 225.64L72.7438 222.118L73.4482 236.656Z" fill="white"/>
<path d="M78.0952 236.106L74.9258 230.178L75.5535 229.712L77.9574 234.204L82.2905 226.572L83.0331 227.435L78.0952 236.106Z" fill="white"/>
<path d="M150.363 264.037L88.0084 242.348L87.7021 234.342L150.402 255.068L150.363 264.037Z" fill="#F2F2F2"/>
<path d="M86.4468 266.031L73.8227 260.974L73.0342 244.785L85.7808 249.438L86.4468 266.031ZM74.5806 260.24L85.5434 264.61L84.9616 250.225L73.9069 246.16L74.5806 260.24Z" fill="white"/>
<path d="M79.1666 259.98L76.0508 254.075L76.6632 253.662L79.0365 258.139L83.3083 251.027L84.0432 251.905L79.1666 259.98Z" fill="white"/>
<path d="M128.331 282.335L88.9431 266.581L88.6445 258.842L128.239 274.015L128.331 282.335Z" fill="#F2F2F2"/>
<path d="M87.3815 289.355L74.9335 283.74L74.168 268.063L86.7385 273.296L87.3815 289.355ZM75.6838 283.075L86.5011 287.927L85.9346 274.007L75.0254 269.446L75.6838 283.075Z" fill="white"/>
<path d="M80.2076 283.091L77.1377 277.208L77.7425 276.841L80.0774 281.311L84.3033 274.687L85.023 275.581L80.2076 283.091Z" fill="white"/>
<path d="M159.298 321.282L89.8389 290.035L89.5557 282.541L159.39 312.84L159.298 321.282Z" fill="#F2F2F2"/>
<path d="M305.842 287.919L188.382 341V209.405L310.267 176.234L305.842 287.919Z" fill="#476CB9"/>
<path d="M298.508 246.764C298.454 248.185 297.344 249.758 296.035 250.263L204.091 285.612C202.361 286.276 200.945 285.497 200.952 283.87L201.052 260.156C201.059 258.498 202.499 256.657 204.252 256.054L296.969 224.219C298.285 223.768 299.319 224.578 299.265 226.022L298.508 246.764Z" fill="white"/>
<path d="M296.019 250.782L204.091 286.208C202.008 287.01 200.309 286.078 200.316 284.115L200.408 260.378C200.416 258.384 202.146 256.176 204.251 255.45L296.991 223.692C298.576 223.149 299.809 224.127 299.747 225.862L298.982 246.58C298.921 248.299 297.596 250.179 296.019 250.782ZM204.244 256.657C202.843 257.139 201.694 258.613 201.687 259.942L201.58 283.641C201.572 284.947 202.705 285.566 204.091 285.039L296.05 249.759C297.099 249.354 297.987 248.101 298.025 246.955L298.783 226.205C298.829 225.044 298.002 224.395 296.946 224.761L204.244 256.657Z" fill="#2E306C"/>
<path d="M213.07 262.616L212.963 275.283L211.639 275.779L211.738 263.09L213.07 262.616Z" fill="#F7931E"/>
<path d="M221.997 259.178C222.878 258.865 223.659 258.72 224.348 258.743C225.029 258.766 225.611 258.941 226.078 259.27C226.545 259.598 226.905 260.072 227.157 260.699L225.948 261.684C225.687 260.882 225.22 260.362 224.547 260.11C223.873 259.858 223.008 259.927 221.959 260.301C221.01 260.645 220.16 261.157 219.425 261.845C218.69 262.54 218.116 263.365 217.703 264.32C217.289 265.282 217.082 266.337 217.067 267.475C217.059 268.598 217.251 269.5 217.641 270.172C218.032 270.844 218.583 271.257 219.295 271.417C219.999 271.578 220.841 271.478 221.806 271.119C222.526 270.852 223.184 270.485 223.781 270.034C224.371 269.584 224.868 269.064 225.259 268.468C225.649 267.88 225.902 267.254 226.032 266.596L227.203 266.558C226.973 267.399 226.606 268.186 226.093 268.919C225.58 269.652 224.968 270.302 224.248 270.859C223.528 271.417 222.717 271.868 221.821 272.204C220.65 272.647 219.601 272.777 218.675 272.609C217.748 272.441 217.029 271.96 216.516 271.173C216.003 270.386 215.75 269.309 215.758 267.949C215.773 266.589 216.049 265.313 216.592 264.136C217.136 262.96 217.879 261.944 218.82 261.088C219.762 260.24 220.818 259.598 221.997 259.178Z" fill="#2E306C"/>
<path d="M233.979 254.908C235.142 254.495 236.168 254.381 237.048 254.572C237.921 254.763 238.602 255.252 239.092 256.023C239.575 256.795 239.804 257.849 239.789 259.163C239.766 260.485 239.498 261.707 238.978 262.846C238.457 263.984 237.76 264.969 236.872 265.802C235.984 266.635 234.951 267.277 233.795 267.712C232.631 268.148 231.598 268.285 230.71 268.109C229.822 267.934 229.117 267.46 228.62 266.688C228.114 265.909 227.877 264.855 227.892 263.51C227.908 262.166 228.183 260.92 228.711 259.759C229.24 258.605 229.959 257.605 230.87 256.772C231.766 255.954 232.807 255.328 233.979 254.908ZM233.963 255.97C233.006 256.314 232.179 256.825 231.467 257.505C230.755 258.185 230.197 259.003 229.783 259.95C229.377 260.897 229.163 261.936 229.148 263.059C229.133 264.167 229.316 265.053 229.707 265.718C230.089 266.375 230.633 266.795 231.33 266.956C232.026 267.124 232.853 267.024 233.802 266.673C234.752 266.322 235.571 265.802 236.275 265.115C236.972 264.435 237.523 263.617 237.929 262.677C238.327 261.738 238.541 260.722 238.557 259.622C238.579 258.514 238.396 257.628 238.021 256.978C237.646 256.321 237.117 255.909 236.428 255.733C235.732 255.55 234.912 255.634 233.963 255.97Z" fill="#2E306C"/>
<path d="M241.335 264.648L241.549 252.448L242.652 252.058L242.682 254.572C243.057 253.563 243.647 252.669 244.458 251.898C245.27 251.126 246.166 250.561 247.146 250.209C248.187 249.835 249.082 249.766 249.833 249.995C250.575 250.225 251.081 250.775 251.349 251.638C251.571 250.95 251.907 250.309 252.382 249.697C252.849 249.094 253.393 248.559 254.013 248.093C254.633 247.635 255.268 247.283 255.927 247.054C256.738 246.764 257.473 246.664 258.124 246.756C258.774 246.848 259.295 247.153 259.67 247.673C260.045 248.192 260.229 248.941 260.198 249.927L260.015 257.62L258.859 258.055L259.035 250.469C259.065 249.293 258.774 248.521 258.177 248.162C257.573 247.803 256.769 247.803 255.75 248.162C255.016 248.429 254.327 248.849 253.691 249.438C253.056 250.026 252.543 250.714 252.152 251.493C251.77 252.28 251.563 253.097 251.548 253.945L251.402 260.867L250.215 261.31L250.376 253.632C250.399 252.44 250.101 251.669 249.473 251.309C248.845 250.95 248.018 250.95 246.992 251.317C246.273 251.577 245.584 251.997 244.925 252.585C244.275 253.174 243.739 253.876 243.318 254.686C242.897 255.504 242.682 256.367 242.667 257.299L242.545 264.182L241.335 264.648Z" fill="#2E306C"/>
<path d="M262.112 263.311L262.564 244.953L263.597 244.586L263.605 247.856L263.452 247.726C263.666 246.978 263.988 246.275 264.424 245.61C264.853 244.953 265.381 244.38 265.994 243.899C266.606 243.41 267.272 243.043 267.976 242.791C268.941 242.447 269.798 242.386 270.549 242.592C271.299 242.806 271.881 243.288 272.302 244.029C272.723 244.777 272.914 245.786 272.876 247.062C272.838 248.322 272.585 249.491 272.118 250.561C271.651 251.638 271.023 252.555 270.243 253.326C269.462 254.098 268.581 254.663 267.609 255.03C266.568 255.419 265.672 255.473 264.914 255.19C264.156 254.908 263.636 254.335 263.353 253.471L263.498 253.204L263.253 262.861L262.112 263.311ZM267.502 254.06C268.78 253.586 269.799 252.753 270.556 251.577C271.322 250.4 271.72 249.033 271.766 247.474C271.812 245.916 271.475 244.816 270.771 244.166C270.066 243.517 269.079 243.425 267.816 243.876C267.012 244.166 266.3 244.625 265.68 245.266C265.052 245.908 264.554 246.672 264.172 247.573C263.797 248.467 263.59 249.438 263.567 250.477C263.544 251.5 263.697 252.333 264.026 252.975C264.355 253.617 264.822 254.029 265.427 254.22C266.024 254.403 266.721 254.35 267.502 254.06Z" fill="#2E306C"/>
<path d="M275.754 234.915L275.341 249.193C275.318 249.904 275.425 250.362 275.647 250.568C275.877 250.775 276.237 250.782 276.734 250.599C277.041 250.484 277.286 250.37 277.469 250.255C277.653 250.141 277.867 249.988 278.12 249.782L277.936 250.851C277.745 251.012 277.531 251.172 277.286 251.309C277.041 251.455 276.773 251.584 276.482 251.691C275.701 251.982 275.127 251.966 274.752 251.638C274.376 251.309 274.2 250.645 274.231 249.636L274.644 235.281L275.754 234.915Z" fill="#2E306C"/>
<path d="M286.205 240.4C286.236 239.407 286.014 238.727 285.531 238.352C285.049 237.978 284.345 237.963 283.411 238.291C282.592 238.582 281.88 239.025 281.275 239.621C280.67 240.209 280.203 241.003 279.889 241.989L279.016 241.706C279.361 240.675 279.92 239.781 280.685 239.009C281.443 238.238 282.377 237.657 283.472 237.268C284.26 236.985 284.949 236.893 285.531 236.977C286.113 237.061 286.557 237.344 286.863 237.802C287.17 238.268 287.307 238.933 287.284 239.804L287.101 245.518C287.078 246.321 287.399 246.603 288.081 246.351C288.379 246.237 288.632 246.091 288.846 245.908L288.754 246.84C288.509 247.069 288.195 247.253 287.82 247.39C287.499 247.512 287.193 247.558 286.917 247.528C286.641 247.497 286.412 247.352 286.251 247.1C286.082 246.848 286.014 246.443 286.029 245.9L286.052 245.282L286.35 245.152C286.205 245.855 285.906 246.504 285.455 247.1C285.003 247.696 284.49 248.208 283.916 248.628C283.334 249.048 282.76 249.369 282.186 249.583C281.512 249.835 280.907 249.95 280.379 249.919C279.851 249.888 279.437 249.713 279.146 249.384C278.856 249.056 278.718 248.574 278.741 247.925C278.764 247.062 279.062 246.267 279.621 245.534C280.18 244.8 280.953 244.159 281.941 243.601L286.419 241.034L286.389 241.997L282.454 244.25C281.596 244.747 280.953 245.251 280.524 245.755C280.096 246.267 279.866 246.825 279.851 247.444C279.828 248.078 280.042 248.49 280.479 248.681C280.915 248.872 281.543 248.819 282.362 248.513C282.775 248.36 283.204 248.139 283.64 247.856C284.077 247.574 284.475 247.23 284.85 246.825C285.225 246.42 285.524 245.977 285.746 245.496C285.975 245.014 286.098 244.479 286.113 243.899L286.205 240.4Z" fill="#6491BB"/>
<path d="M290.837 234.861L290.446 246.244L289.397 246.642L289.78 235.243L290.837 234.861Z" fill="#6491BB"/>
<path d="M286.48 234.624L285.493 234.968L283.564 233.432L281.481 236.389L280.479 236.748L282.974 233.02L284.184 232.6L286.48 234.624Z" fill="#2E306C"/>
<path d="M212.428 260.385C212.091 260.508 211.815 260.5 211.616 260.378C211.41 260.255 211.31 260.034 211.318 259.705C211.325 259.377 211.425 259.087 211.632 258.819C211.838 258.552 212.106 258.361 212.451 258.239C212.788 258.124 213.056 258.124 213.262 258.246C213.461 258.368 213.561 258.598 213.561 258.919C213.561 259.239 213.454 259.537 213.247 259.805C213.033 260.072 212.765 260.263 212.428 260.385Z" fill="#F7931E"/>
<path d="M290.377 232.837C290.11 232.928 289.895 232.921 289.742 232.798C289.589 232.684 289.512 232.478 289.52 232.187C289.528 231.897 289.62 231.637 289.788 231.4C289.956 231.171 290.178 231.003 290.439 230.911C290.707 230.82 290.921 230.835 291.074 230.95C291.227 231.072 291.304 231.27 291.296 231.561C291.288 231.851 291.197 232.111 291.028 232.348C290.867 232.577 290.645 232.737 290.377 232.837Z" fill="#6491BB"/>
</svg>
