<?xml version="1.0" encoding="utf-8"?>
<!-- Generator: Adobe Illustrator 22.1.0, SVG Export Plug-In . SVG Version: 6.00 Build 0)  -->
<svg version="1.1" id="Layer_1" xmlns="http://www.w3.org/2000/svg" xmlns:xlink="http://www.w3.org/1999/xlink" width="803px" x="0px" y="0px"
	 viewBox="0 0 805.3 169.5" style="enable-background:new 0 0 805.3 169.5;" xml:space="preserve">
<style type="text/css">
	.st0{fill:none;stroke:#2E306C;stroke-width:1.7725;stroke-miterlimit:10;}
	.st1{fill-rule:evenodd;clip-rule:evenodd;fill:#FF0000;stroke:#2E306C;stroke-width:5.3182;stroke-miterlimit:10;}
	.st2{fill-rule:evenodd;clip-rule:evenodd;fill:#00FF00;stroke:#2E306C;stroke-width:5.3182;stroke-miterlimit:10;}
</style>
<g>
	<polyline class="st0" points="0,168.7 695.7,168.7 695.7,22.3 	"/>
	<polyline class="st0" points="0,104.3 790.5,104.3 790.5,57.9 	"/>
	<path class="st1" d="M802.6,62c0-6-4.9-10.9-10.9-10.9c-6,0-10.9,4.9-10.9,10.9c0,6,4.9,10.9,10.9,10.9
		C797.8,72.8,802.6,68,802.6,62L802.6,62z"/>
	<path class="st2" d="M706.5,13.5c0-6-4.9-10.9-10.9-10.9c-6,0-10.9,4.9-10.9,10.9c0,6,4.9,10.9,10.9,10.9
		C701.6,24.4,706.5,19.5,706.5,13.5L706.5,13.5z"/>
</g>
</svg>
