<svg width="526" height="193" viewBox="0 0 526 193" fill="none" xmlns="http://www.w3.org/2000/svg">
<path d="M511.352 191.419V31.412" stroke="#2E306C" stroke-width="2" stroke-miterlimit="10"/>
<path d="M471.453 192.002V109.992H25.5" stroke="#2E306C" stroke-width="2" stroke-miterlimit="10"/>
<path d="M406.945 192.002V15.1936H360.415" stroke="#2E306C" stroke-width="2" stroke-miterlimit="10"/>
<path d="M364.472 2.99986C358.459 2.99986 353.584 7.87458 353.584 13.8879C353.584 19.9012 358.459 24.7759 364.472 24.7759C370.486 24.7759 375.36 19.9012 375.36 13.8879C375.36 7.87458 370.486 2.99986 364.472 2.99986Z" fill="#FF0000" stroke="#2E306C" stroke-width="6" stroke-miterlimit="10"/>
<path d="M14.8844 97.9276C8.87117 97.9276 3.99644 102.802 3.99644 108.816C3.99644 114.829 8.87117 119.704 14.8844 119.704C20.8977 119.704 25.7725 114.829 25.7725 108.816C25.7725 102.802 20.8977 97.9276 14.8844 97.9276Z" fill="#00FF00" stroke="#2E306C" stroke-width="6" stroke-miterlimit="10"/>
<path d="M510.344 18.2691C503.806 18.2691 498.506 23.569 498.506 30.1067C498.506 36.6445 503.806 41.9443 510.344 41.9443C516.882 41.9443 522.182 36.6445 522.182 30.1067C522.182 23.569 516.882 18.2691 510.344 18.2691Z" fill="#FFFF00" stroke="#2E306C" stroke-width="6" stroke-miterlimit="10"/>
</svg>
