<?xml version="1.0" standalone="no"?>
<!DOCTYPE svg PUBLIC "-//W3C//DTD SVG 1.1//EN" "http://www.w3.org/Graphics/SVG/1.1/DTD/svg11.dtd">
<!--Generator: Xara Designer (www.xara.com), SVG filter version: 6.3.0.4-->
<svg stroke-width="0.501" stroke-linejoin="bevel" fill-rule="evenodd" xmlns:xlink="http://www.w3.org/1999/xlink" xmlns="http://www.w3.org/2000/svg" version="1.1" overflow="visible" width="543.75pt" height="251.25pt" viewBox="0 0 543.75 251.25">
 <defs>
	</defs>
 <g id="Document" fill="none" stroke="black" font-family="Times New Roman" font-size="16" transform="scale(1 -1)">
  <g id="Spread" transform="translate(0 -251.25)">
   <g id="Page background">
    <path d="M 0,251.249 L 0,0 L 543.749,0 L 543.749,251.249 L 0,251.249 Z" stroke="none" stroke-width="0" marker-start="none" marker-end="none" stroke-miterlimit="79.8403193612775"/>
   </g>
   <g id="MouseOff">
    <g id="Group" fill-rule="evenodd" stroke-linejoin="miter" stroke="#2e306c" stroke-miterlimit="79.8403193612775">
     <path d="M 543.511,241.688 L 11.167,241.533" fill="none" stroke-width="1.5" stroke-miterlimit="13.3672654690619"/>
     <path d="M 543.511,218.913 L 64.686,218.913 L 64.686,18.342" fill="none" stroke-width="1.5" stroke-miterlimit="13.3672654690619"/>
     <path d="M 543.511,175.161 L 31.454,175.161 L 31.454,143.482" fill="none" stroke-width="1.5" stroke-miterlimit="13.3672654690619"/>
     <path d="M 24.078,146.31 C 24.078,142.253 27.366,138.963 31.425,138.963 C 35.482,138.963 38.771,142.253 38.771,146.31 C 38.771,150.369 35.482,153.657 31.425,153.657 C 27.366,153.657 24.078,150.369 24.078,146.31 Z" fill="#ffff00" stroke-width="4.408" marker-start="none" marker-end="none" stroke-miterlimit="13.3672654690619"/>
     <path d="M 57.185,9.629 C 57.185,5.535 60.503,2.215 64.596,2.215 C 68.692,2.215 72.01,5.535 72.01,9.629 C 72.01,13.723 68.692,17.042 64.596,17.042 C 60.503,17.042 57.185,13.723 57.185,9.629 Z" fill="#00a99d" stroke-width="4.408" marker-start="none" marker-end="none" stroke-miterlimit="13.3672654690619"/>
     <path d="M 2.215,240.974 C 2.215,236.525 5.823,232.915 10.274,232.915 C 14.726,232.915 18.334,236.525 18.334,240.974 C 18.334,245.426 14.726,249.035 10.274,249.035 C 5.823,249.035 2.215,245.426 2.215,240.974 Z" fill="#ff0000" stroke-width="4.408" marker-start="none" marker-end="none" stroke-miterlimit="13.3672654690619"/>
    </g>
   </g>
  </g>
 </g>
</svg>
