<svg width="749" height="308" viewBox="0 0 749 308" fill="none" xmlns="http://www.w3.org/2000/svg">
<path d="M240.209 1V238.88H160.359" stroke="#2E306C" stroke-width="2" stroke-miterlimit="10"/>
<path d="M367 1V240H406" stroke="#2E306C" stroke-width="2" stroke-miterlimit="10"/>
<path d="M490 1L490.46 205.12" stroke="#2E306C" stroke-width="2" stroke-miterlimit="10"/>
<path d="M46 1V133.011H9V185" stroke="#2E306C" stroke-width="2" stroke-miterlimit="10"/>
<path d="M9.36 199.52C12.8725 199.52 15.72 196.672 15.72 193.16C15.72 189.647 12.8725 186.8 9.36 186.8C5.84747 186.8 3 189.647 3 193.16C3 196.672 5.84747 199.52 9.36 199.52Z" fill="#00A99D" stroke="#2E306C" stroke-width="6" stroke-miterlimit="10"/>
<path d="M159.36 246.57C163.513 246.57 166.88 243.203 166.88 239.05C166.88 234.897 163.513 231.53 159.36 231.53C155.207 231.53 151.84 234.897 151.84 239.05C151.84 243.203 155.207 246.57 159.36 246.57Z" fill="#00A99D" stroke="#2E306C" stroke-width="6" stroke-miterlimit="10"/>
<path d="M402.639 247.42C406.152 247.42 408.999 244.572 408.999 241.06C408.999 237.547 406.152 234.7 402.639 234.7C399.127 234.7 396.279 237.547 396.279 241.06C396.279 244.572 399.127 247.42 402.639 247.42Z" fill="#00A99D" stroke="#2E306C" stroke-width="6" stroke-miterlimit="10"/>
<path d="M490.719 214.82C494.872 214.82 498.239 211.453 498.239 207.3C498.239 203.147 494.872 199.78 490.719 199.78C486.566 199.78 483.199 203.147 483.199 207.3C483.199 211.453 486.566 214.82 490.719 214.82Z" fill="#FF0000" stroke="#2E306C" stroke-width="6" stroke-miterlimit="10"/>
<path d="M563 1V85.3117H650V295" stroke="#2E306C" stroke-width="2" stroke-miterlimit="10"/>
<path d="M696 1V240H739" stroke="#2E306C" stroke-width="2" stroke-miterlimit="10"/>
<path d="M734.98 250.15C740.552 250.15 745.07 245.633 745.07 240.06C745.07 234.487 740.552 229.97 734.98 229.97C729.407 229.97 724.89 234.487 724.89 240.06C724.89 245.633 729.407 250.15 734.98 250.15Z" fill="#FF0000" stroke="#2E306C" stroke-width="6" stroke-miterlimit="10"/>
<path d="M649.86 304.97C654.013 304.97 657.38 301.603 657.38 297.45C657.38 293.297 654.013 289.93 649.86 289.93C645.707 289.93 642.34 293.297 642.34 297.45C642.34 301.603 645.707 304.97 649.86 304.97Z" fill="#00A99D" stroke="#2E306C" stroke-width="6" stroke-miterlimit="10"/>
</svg>
