<svg width="231" height="67" viewBox="0 0 231 67" fill="none" xmlns="http://www.w3.org/2000/svg">
<path d="M229.714 59.2321C229.714 62.7918 226.828 65.7031 223.3 65.7031H7.69922C4.17081 65.7031 1.28516 62.7918 1.28516 59.2321V7.76789C1.28516 4.20816 4.17081 1.29688 7.69922 1.29688H223.3C226.828 1.29688 229.714 4.20816 229.714 7.76789V59.2321Z" fill="white"/>
<path d="M223.3 67H7.69955C3.45476 67 0 63.5146 0 59.2321V7.76792C0 3.48543 3.45476 0 7.69955 0H223.3C227.545 0 231 3.48543 231 7.76792V59.2321C231 63.5146 227.545 67 223.3 67ZM7.69955 2.58705C4.86746 2.58705 2.56429 4.91068 2.56429 7.76792V59.2321C2.56429 62.0893 4.86746 64.4129 7.69955 64.4129H223.3C226.133 64.4129 228.436 62.0893 228.436 59.2321V7.76792C228.436 4.91068 226.133 2.58705 223.3 2.58705H7.69955Z" fill="#2E306C"/>
<path d="M25.9379 22.3446V50.2821H23.166V22.3446H25.9379Z" fill="#F7931E"/>
<path d="M44.7516 21.7839C46.633 21.7839 48.3135 22.0811 49.7932 22.6756C51.2661 23.27 52.5248 24.1278 53.5559 25.2423C54.587 26.3569 55.3837 27.7213 55.9394 29.3222L53.335 30.5516C52.7458 28.5386 51.7214 26.9851 50.2618 25.884C48.8023 24.783 46.9477 24.2359 44.6981 24.2359C42.6694 24.2359 40.8751 24.7087 39.3285 25.6611C37.7752 26.6136 36.5767 27.9915 35.7264 29.795C34.8761 31.6053 34.4543 33.7735 34.4543 36.3066C34.4543 38.7991 34.8761 40.9606 35.7264 42.7843C36.5767 44.6081 37.7551 45.9996 39.2682 46.9452C40.7813 47.8977 42.569 48.3705 44.6378 48.3705C46.1911 48.3705 47.6038 48.107 48.8759 47.5869C50.148 47.0668 51.1992 46.3035 52.0294 45.2971C52.8596 44.2906 53.4019 43.1018 53.663 41.7238L56.2072 42.6155C55.7252 44.3312 54.9418 45.7969 53.8505 47.0263C52.7592 48.2557 51.4402 49.1946 49.8936 49.8498C48.3403 50.4982 46.6062 50.8292 44.6914 50.8292C42.1807 50.8292 39.9377 50.255 37.9626 49.1C35.9875 47.9449 34.4476 46.2765 33.3362 44.1015C32.2315 41.9197 31.6758 39.3259 31.6758 36.3066C31.6758 33.2872 32.2382 30.6934 33.363 28.5116C34.4878 26.3299 36.0411 24.6682 38.0162 23.5131C39.998 22.3648 42.2409 21.7839 44.7516 21.7839Z" fill="#2E306C"/>
<path d="M70.7827 21.7839C73.3671 21.7839 75.6435 22.3648 77.6253 23.5131C79.6004 24.6682 81.1537 26.3366 82.2785 28.5116C83.4033 30.6934 83.9657 33.2872 83.9657 36.3066C83.9657 39.3259 83.4033 41.9197 82.2785 44.1015C81.1537 46.2833 79.6004 47.9449 77.6253 49.1C75.6502 50.255 73.3671 50.8292 70.7827 50.8292C68.1984 50.8292 65.9153 50.255 63.9469 49.1C61.9718 47.9449 60.4185 46.2765 59.2936 44.1015C58.1688 41.9197 57.6064 39.3259 57.6064 36.3066C57.6064 33.2872 58.1688 30.6934 59.2936 28.5116C60.4185 26.3299 61.9718 24.6682 63.9469 23.5131C65.9153 22.3648 68.1984 21.7839 70.7827 21.7839ZM70.7827 24.1886C68.6804 24.1886 66.8526 24.675 65.2993 25.6409C63.746 26.6068 62.5409 27.9983 61.6705 29.8018C60.8001 31.612 60.3716 33.7803 60.3716 36.3133C60.3716 38.8058 60.8068 40.9673 61.6705 42.7911C62.5409 44.6149 63.746 46.0131 65.2993 46.979C66.8526 47.9449 68.6804 48.4313 70.7827 48.4313C72.885 48.4313 74.7129 47.9449 76.2662 46.979C77.8195 46.0131 79.0246 44.6149 79.895 42.7911C80.7654 40.9673 81.1939 38.8058 81.1939 36.3133C81.1939 33.7803 80.7587 31.612 79.895 29.8018C79.0246 27.9983 77.8195 26.6068 76.2662 25.6409C74.7129 24.6682 72.885 24.1886 70.7827 24.1886Z" fill="#2E306C"/>
<path d="M87.7285 50.2753V22.3446H90.2192L90.3865 28.1536C91.1967 26.1407 92.5156 24.5804 94.3434 23.4591C96.1712 22.3446 98.2133 21.7839 100.463 21.7839C102.86 21.7839 104.942 22.3648 106.696 23.5131C108.45 24.6682 109.662 26.3636 110.325 28.5994C110.807 27.181 111.577 25.9651 112.648 24.9384C113.72 23.9117 114.972 23.1214 116.411 22.5607C117.851 22.0001 119.344 21.7231 120.897 21.7231C122.818 21.7231 124.559 22.1082 126.133 22.8714C127.699 23.6347 128.958 24.7898 129.895 26.3366C130.839 27.8834 131.308 29.8085 131.308 32.1186V50.2213H128.536V32.4023C128.536 29.6464 127.806 27.5862 126.347 26.2285C124.887 24.8708 122.959 24.1886 120.562 24.1886C118.828 24.1886 117.221 24.6074 115.742 25.445C114.262 26.2826 113.09 27.4579 112.226 28.9642C111.356 30.4705 110.928 32.2132 110.928 34.1856V50.2753H108.156V32.4564C108.156 29.7005 107.419 27.6403 105.94 26.2826C104.46 24.9249 102.545 24.2427 100.182 24.2427C98.5213 24.2427 96.9479 24.6547 95.4749 25.472C93.9953 26.2893 92.7968 27.4647 91.8729 28.9912C90.9489 30.5178 90.487 32.3416 90.487 34.4693V50.2821H87.7285V50.2753Z" fill="#2E306C"/>
<path d="M136.737 65.703V22.3445H139.228L139.449 30.1125L139.061 29.6666C139.543 28.0658 140.286 26.6676 141.303 25.4787C142.321 24.2899 143.566 23.378 145.039 22.7431C146.512 22.1081 148.119 21.7906 149.86 21.7906C152.223 21.7906 154.346 22.3716 156.227 23.5199C158.109 24.6749 159.608 26.3298 160.713 28.4913C161.818 30.6528 162.373 33.2602 162.373 36.3133C162.373 39.3326 161.818 41.9265 160.713 44.1082C159.608 46.29 158.102 47.9517 156.2 49.1067C154.299 50.2618 152.15 50.8359 149.746 50.8359C147.202 50.8359 144.986 50.1537 143.098 48.796C141.216 47.4383 139.904 45.601 139.168 43.2909L139.502 42.7911V65.703H136.737ZM149.418 48.3772C152.558 48.3772 155.042 47.2964 156.863 45.1349C158.691 42.9734 159.602 40.0351 159.602 36.3065C159.602 32.5847 158.698 29.6396 156.89 27.4781C155.082 25.3166 152.625 24.2359 149.525 24.2359C147.57 24.2359 145.843 24.729 144.35 25.7151C142.857 26.7013 141.672 28.0996 140.808 29.9031C139.938 31.7133 139.509 33.8411 139.509 36.2998C139.509 38.7247 139.931 40.8457 140.781 42.6695C141.632 44.4932 142.803 45.8982 144.296 46.8912C145.789 47.8841 147.497 48.3772 149.418 48.3772Z" fill="#2E306C"/>
<path d="M168.747 9.49036V43.6827C168.747 45.3984 169.042 46.6075 169.631 47.3167C170.22 48.026 171.144 48.3772 172.403 48.3772C173.18 48.3772 173.796 48.3232 174.258 48.2084C174.72 48.0935 175.262 47.9112 175.891 47.6477L175.503 50.1064C175.021 50.3293 174.479 50.505 173.869 50.6401C173.26 50.7684 172.584 50.836 171.847 50.836C169.892 50.836 168.419 50.2686 167.442 49.1338C166.464 47.999 165.976 46.2225 165.976 43.7975V9.49036H168.747Z" fill="#2E306C"/>
<path d="M196.091 31.8957C196.091 29.4776 195.442 27.593 194.15 26.2556C192.857 24.9114 191.01 24.2427 188.613 24.2427C186.51 24.2427 184.696 24.702 183.183 25.6139C181.67 26.5257 180.545 28.0456 179.802 30.1665L177.532 28.7143C178.342 26.519 179.701 24.81 181.603 23.601C183.504 22.3919 185.854 21.7839 188.666 21.7839C190.695 21.7839 192.476 22.1487 194.009 22.8714C195.542 23.601 196.734 24.6682 197.578 26.0867C198.428 27.5052 198.85 29.2682 198.85 31.3959V45.3646C198.85 47.337 199.734 48.3232 201.508 48.3232C202.284 48.3232 202.947 48.1949 203.503 47.9314L203.336 50.1672C202.706 50.505 201.896 50.6671 200.898 50.6671C200.048 50.6671 199.258 50.4982 198.515 50.1672C197.779 49.8295 197.176 49.2756 196.714 48.4921C196.252 47.7085 196.024 46.648 196.024 45.3106V43.8043L196.801 43.7503C196.466 45.3511 195.736 46.6818 194.612 47.7423C193.487 48.8028 192.181 49.5863 190.708 50.0862C189.229 50.586 187.756 50.8427 186.276 50.8427C184.542 50.8427 182.989 50.5658 181.623 50.0051C180.257 49.4445 179.186 48.6339 178.409 47.5734C177.632 46.5129 177.244 45.1958 177.244 43.6354C177.244 41.5482 177.934 39.8663 179.32 38.5762C180.706 37.2928 182.654 36.4079 185.165 35.9215L196.627 33.6317V35.9756L186.551 37.9885C184.375 38.4343 182.748 39.0895 181.676 39.9474C180.605 40.8052 180.07 41.9805 180.07 43.4666C180.07 44.9931 180.639 46.1955 181.784 47.0668C182.928 47.9449 184.555 48.3772 186.658 48.3772C187.729 48.3772 188.82 48.2286 189.925 47.9314C191.03 47.6342 192.054 47.1614 192.998 46.5062C193.942 45.8577 194.685 45.0337 195.241 44.0475C195.797 43.0613 196.071 41.8589 196.071 40.4405V31.8957H196.091Z" fill="#6491BB"/>
<path d="M207.827 22.3446V50.2821H205.056V22.3446H207.827Z" fill="#6491BB"/>
<path d="M196.312 17.927H193.761L188.613 12.5165L183.464 17.927H180.913L187.059 11.0034H190.166L196.312 17.927Z" fill="#2E306C"/>
<path d="M24.5518 16.9206C23.8488 16.9206 23.2864 16.7044 22.8646 16.2789C22.4428 15.8533 22.2285 15.2859 22.2285 14.5767C22.2285 13.8674 22.4428 13.3 22.8646 12.8745C23.2864 12.4489 23.8488 12.2328 24.5518 12.2328C25.2548 12.2328 25.8172 12.4489 26.239 12.8745C26.6608 13.3 26.875 13.8742 26.875 14.5767C26.875 15.2859 26.6608 15.8533 26.239 16.2789C25.8172 16.7112 25.2548 16.9206 24.5518 16.9206Z" fill="#F7931E"/>
<path d="M206.442 16.9206C205.739 16.9206 205.177 16.7044 204.755 16.2789C204.333 15.8533 204.119 15.2859 204.119 14.5767C204.119 13.8674 204.333 13.3 204.755 12.8745C205.177 12.4489 205.739 12.2328 206.442 12.2328C207.145 12.2328 207.708 12.4489 208.13 12.8745C208.551 13.3 208.766 13.8742 208.766 14.5767C208.766 15.2859 208.551 15.8533 208.13 16.2789C207.708 16.7112 207.145 16.9206 206.442 16.9206Z" fill="#6491BB"/>
</svg>
