<svg width="149" height="43" viewBox="0 0 149 43" fill="none" xmlns="http://www.w3.org/2000/svg">
<path d="M144.035 43H4.96537C2.22975 43 0 40.7617 0 38.0156V4.98438C0 2.23828 2.22975 0 4.96537 0H144.035C146.774 0 149 2.23828 149 4.98438V38.0117C149 40.7617 146.774 43 144.035 43ZM4.96537 1.66016C3.14032 1.66016 1.65383 3.15234 1.65383 4.98438V38.0117C1.65383 39.8438 3.14032 41.3359 4.96537 41.3359H144.035C145.86 41.3359 147.346 39.8438 147.346 38.0117V4.98438C147.346 3.15234 145.86 1.66016 144.035 1.66016H4.96537Z" fill="#2E306C"/>
<path d="M16.7334 14.3398V32.2695H14.9473V14.3398H16.7334Z" fill="#2E306C"/>
<path d="M28.8662 13.9805C30.0803 13.9805 31.166 14.1719 32.1155 14.5547C33.0689 14.9375 33.8783 15.4883 34.5437 16.2031C35.2091 16.9219 35.7228 17.793 36.0808 18.8203L34.4036 19.6094C34.0222 18.3203 33.3607 17.3203 32.4229 16.6172C31.4812 15.9141 30.2865 15.5586 28.8312 15.5586C27.5198 15.5586 26.3679 15.8633 25.3679 16.4727C24.3678 17.082 23.5934 17.9687 23.0447 19.125C22.496 20.2852 22.2236 21.6758 22.2236 23.3008C22.2236 24.9023 22.496 26.2891 23.0447 27.4609C23.5934 28.6328 24.3522 29.5234 25.3328 30.1328C26.3096 30.7422 27.4653 31.0469 28.7961 31.0469C29.7962 31.0469 30.7068 30.8789 31.5279 30.543C32.3489 30.207 33.0299 29.7187 33.5631 29.0742C34.0962 28.4297 34.4503 27.6641 34.6176 26.7773L36.2598 27.3516C35.9485 28.4531 35.4426 29.3945 34.7421 30.1836C34.0378 30.9726 33.1895 31.5781 32.1894 31.9961C31.1893 32.4141 30.0686 32.625 28.8312 32.625C27.2124 32.625 25.7648 32.2539 24.4923 31.5117C23.2198 30.7695 22.2236 29.6992 21.5115 28.3008C20.7955 26.9023 20.4414 25.2344 20.4414 23.2969C20.4414 21.3594 20.8033 19.6914 21.531 18.293C22.2587 16.8945 23.2587 15.8242 24.5312 15.082C25.7998 14.3516 27.2474 13.9805 28.8662 13.9805Z" fill="#2E306C"/>
<path d="M45.6579 13.9805C47.3234 13.9805 48.7943 14.3516 50.0707 15.0937C51.3432 15.8359 52.3432 16.9062 53.0709 18.3047C53.7986 19.7031 54.1605 21.3711 54.1605 23.3086C54.1605 25.2461 53.7986 26.9141 53.0709 28.3125C52.3432 29.7109 51.3432 30.7812 50.0707 31.5234C48.7982 32.2656 47.3273 32.6367 45.6579 32.6367C43.9924 32.6367 42.5215 32.2656 41.2451 31.5234C39.9726 30.7812 38.9725 29.7109 38.2449 28.3125C37.5172 26.9141 37.1553 25.2461 37.1553 23.3086C37.1553 21.3711 37.5172 19.7031 38.2449 18.3047C38.9725 16.9062 39.9726 15.8359 41.2451 15.0937C42.5176 14.3516 43.9885 13.9805 45.6579 13.9805ZM45.6579 15.5234C44.2998 15.5234 43.1207 15.8359 42.1206 16.457C41.1206 17.0781 40.3384 17.9687 39.7819 19.1289C39.2216 20.2891 38.9414 21.6797 38.9414 23.3047C38.9414 24.9062 39.2216 26.293 39.7819 27.4648C40.3423 28.6367 41.1206 29.5312 42.1206 30.1562C43.1207 30.7773 44.2998 31.0898 45.6579 31.0898C47.016 31.0898 48.195 30.7773 49.1951 30.1562C50.1952 29.5352 50.9735 28.6367 51.5338 27.4648C52.0942 26.293 52.3744 24.9062 52.3744 23.3047C52.3744 21.6797 52.0942 20.2852 51.5338 19.1289C50.9735 17.9687 50.1952 17.0781 49.1951 16.457C48.1912 15.8359 47.016 15.5234 45.6579 15.5234Z" fill="#2E306C"/>
<path d="M56.5879 32.2695V14.3398H58.195L58.304 18.0703C58.8293 16.7812 59.6776 15.7773 60.8567 15.0586C62.0358 14.3398 63.3511 13.9844 64.8025 13.9844C66.3513 13.9844 67.6899 14.3555 68.8223 15.0977C69.9547 15.8398 70.733 16.9258 71.161 18.3594C71.4684 17.4492 71.9704 16.668 72.6631 16.0117C73.3518 15.3555 74.1651 14.8477 75.0913 14.4883C76.0213 14.1289 76.9864 13.9492 77.9865 13.9492C79.2239 13.9492 80.3485 14.1953 81.3603 14.6836C82.372 15.1758 83.1814 15.9141 83.7885 16.9062C84.3955 17.8984 84.699 19.1367 84.699 20.6172V32.2344H82.9129V20.793C82.9129 19.0234 82.4421 17.7031 81.5003 16.832C80.5586 15.9609 79.3134 15.5234 77.7685 15.5234C76.6478 15.5234 75.6127 15.793 74.6593 16.332C73.706 16.8711 72.951 17.6211 72.3907 18.5898C71.8303 19.5586 71.5502 20.6758 71.5502 21.9414V32.2695H69.764V20.8281C69.764 19.0586 69.2893 17.7383 68.3359 16.8672C67.3825 15.9961 66.1451 15.5586 64.6196 15.5586C63.5495 15.5586 62.5339 15.8203 61.5844 16.3477C60.631 16.875 59.8566 17.625 59.2612 18.6055C58.6659 19.5859 58.3701 20.7578 58.3701 22.1211V32.2695H56.5879Z" fill="#2E306C"/>
<path d="M88.1973 42.168V14.3398H89.8044L89.9484 19.3242L89.6993 19.0391C90.0067 18.0117 90.4893 17.1133 91.1469 16.3516C91.8007 15.5859 92.6062 15 93.5596 14.5938C94.5129 14.1875 95.548 13.9844 96.6688 13.9844C98.1942 13.9844 99.5639 14.3555 100.778 15.0977C101.992 15.8398 102.957 16.9023 103.673 18.2891C104.389 19.6758 104.743 21.3477 104.743 23.3086C104.743 25.2461 104.385 26.9141 103.673 28.3125C102.957 29.7109 101.988 30.7812 100.762 31.5234C99.5367 32.2656 98.1475 32.6367 96.6026 32.6367C94.9605 32.6367 93.5323 32.1992 92.3143 31.3281C91.1002 30.457 90.2558 29.2773 89.7772 27.7969L89.9912 27.4727V42.1758H88.1973V42.168ZM96.3808 31.0508C98.4043 31.0508 100.008 30.3594 101.187 28.9727C102.366 27.5859 102.953 25.6992 102.953 23.3086C102.953 20.918 102.37 19.0312 101.202 17.6445C100.035 16.2578 98.451 15.5664 96.4508 15.5664C95.19 15.5664 94.0771 15.8828 93.1121 16.5156C92.147 17.1484 91.3843 18.0469 90.8239 19.207C90.2636 20.3672 89.9834 21.7344 89.9834 23.3125C89.9834 24.8672 90.2558 26.2305 90.8045 27.3984C91.3532 28.5703 92.1081 29.4727 93.0731 30.1055C94.0382 30.7344 95.1394 31.0508 96.3808 31.0508Z" fill="#2E306C"/>
<path d="M108.846 6.09375V28.0391C108.846 29.1406 109.036 29.9141 109.418 30.3711C109.799 30.8242 110.394 31.0508 111.204 31.0508C111.706 31.0508 112.103 31.0156 112.402 30.9414C112.698 30.8711 113.052 30.75 113.457 30.582L113.208 32.1602C112.897 32.3047 112.546 32.418 112.153 32.5C111.76 32.582 111.325 32.625 110.85 32.625C109.589 32.625 108.639 32.2617 108.009 31.5313C107.379 30.8008 107.063 29.6602 107.063 28.1055V6.09375H108.846Z" fill="#2E306C"/>
<path d="M126.485 20.4727C126.485 18.918 126.068 17.7109 125.236 16.8516C124.403 15.9922 123.212 15.5625 121.663 15.5625C120.305 15.5625 119.138 15.8555 118.161 16.4414C117.184 17.0273 116.457 18 115.982 19.3633L114.519 18.4297C115.044 17.0195 115.916 15.9258 117.145 15.1484C118.371 14.3711 119.889 13.9844 121.698 13.9844C123.01 13.9844 124.158 14.2188 125.146 14.6836C126.135 15.1484 126.901 15.8359 127.45 16.7461C127.998 17.6562 128.271 18.7891 128.271 20.1523V29.1172C128.271 30.3828 128.843 31.0156 129.987 31.0156C130.489 31.0156 130.917 30.9336 131.271 30.7656L131.162 32.1992C130.757 32.4141 130.232 32.5234 129.59 32.5234C129.041 32.5234 128.532 32.4141 128.053 32.1992C127.574 31.9844 127.189 31.625 126.893 31.125C126.594 30.625 126.446 29.9414 126.446 29.082V28.1133L126.944 28.0781C126.73 29.1055 126.259 29.9609 125.531 30.6406C124.804 31.3203 123.967 31.8242 123.014 32.1484C122.06 32.4727 121.107 32.6328 120.157 32.6328C119.037 32.6328 118.037 32.4531 117.157 32.0937C116.278 31.7344 115.585 31.2148 115.087 30.5352C114.585 29.8555 114.336 29.0117 114.336 28.0078C114.336 26.668 114.783 25.5859 115.675 24.7617C116.566 23.9375 117.823 23.3711 119.441 23.0586L126.835 21.5898V23.0977L120.333 24.3867C118.928 24.6719 117.881 25.0937 117.188 25.6406C116.496 26.1914 116.153 26.9453 116.153 27.8984C116.153 28.8789 116.523 29.6484 117.262 30.2109C118.002 30.7734 119.048 31.0547 120.406 31.0547C121.095 31.0547 121.8 30.9609 122.516 30.7695C123.232 30.5781 123.889 30.2734 124.496 29.8555C125.103 29.4375 125.586 28.9102 125.944 28.2773C126.302 27.6445 126.481 26.875 126.481 25.9648V20.4727H126.485Z" fill="#2E306C"/>
<path d="M134.058 14.3398V32.2695H132.271V14.3398H134.058Z" fill="#2E306C"/>
<path d="M126.625 11.5078H124.983L121.66 8.03125L118.34 11.5078H116.694L120.66 7.0625H122.66L126.625 11.5078Z" fill="#2E306C"/>
<path d="M15.838 10.8633C15.3866 10.8633 15.0208 10.7266 14.7484 10.4492C14.476 10.1758 14.3359 9.80859 14.3359 9.35547C14.3359 8.90234 14.4721 8.53516 14.7484 8.26172C15.0208 7.98828 15.3866 7.84766 15.838 7.84766C16.2894 7.84766 16.6552 7.98437 16.9276 8.26172C17.2 8.53516 17.3401 8.90234 17.3401 9.35547C17.3401 9.80859 17.2039 10.1758 16.9276 10.4492C16.6552 10.7227 16.2894 10.8633 15.838 10.8633Z" fill="#2E306C"/>
<path d="M133.162 10.8633C132.711 10.8633 132.345 10.7266 132.073 10.4492C131.8 10.1758 131.66 9.80859 131.66 9.35547C131.66 8.90234 131.796 8.53516 132.073 8.26172C132.345 7.98828 132.711 7.84766 133.162 7.84766C133.614 7.84766 133.979 7.98437 134.252 8.26172C134.524 8.53516 134.664 8.90234 134.664 9.35547C134.664 9.80859 134.528 10.1758 134.252 10.4492C133.979 10.7227 133.614 10.8633 133.162 10.8633Z" fill="#2E306C"/>
</svg>
