<?xml version="1.0" encoding="utf-8"?>
<!-- Generator: Adobe Illustrator 22.1.0, SVG Export Plug-In . SVG Version: 6.00 Build 0)  -->
<svg version="1.1" id="Layer_1" xmlns="http://www.w3.org/2000/svg" xmlns:xlink="http://www.w3.org/1999/xlink" x="0px" y="0px"
	 viewBox="0 0 45 44.9" style="enable-background:new 0 0 45 44.9;" xml:space="preserve">
<style type="text/css">
	.st0{fill-rule:evenodd;clip-rule:evenodd;fill:#F7931E;}
	.st1{fill-rule:evenodd;clip-rule:evenodd;fill:#FFFFFF;}
</style>
<g>
	<path class="st0" d="M0,6.4v32.2c0,3.5,2.9,6.4,6.4,6.4h32.3c3.5,0,6.4-2.8,6.4-6.4V6.4C45,2.8,42.1,0,38.6,0H6.4
		C2.9,0,0,2.8,0,6.4L0,6.4z"/>
	<path class="st1" d="M10,10.7v3.6c0,0.4,0.3,0.7,0.7,0.7h23.6c0.4,0,0.7-0.3,0.7-0.7v-3.6c0-0.4-0.3-0.7-0.7-0.7H10.7
		C10.3,10,10,10.3,10,10.7L10,10.7z"/>
	<path class="st1" d="M10,30.7v3.6c0,0.4,0.3,0.7,0.7,0.7h23.6c0.4,0,0.7-0.3,0.7-0.7v-3.6c0-0.4-0.3-0.7-0.7-0.7H10.7
		C10.3,30,10,30.3,10,30.7L10,30.7z"/>
	<path class="st1" d="M10,20.7v3.6c0,0.4,0.3,0.7,0.7,0.7h23.6c0.4,0,0.7-0.3,0.7-0.7v-3.6c0-0.4-0.3-0.7-0.7-0.7H10.7
		C10.3,20,10,20.3,10,20.7L10,20.7z"/>
</g>
</svg>
