<svg width="53" height="61" viewBox="0 0 53 61" fill="none" xmlns="http://www.w3.org/2000/svg">
<path d="M26.635 30.9285C26.5018 30.9285 26.3607 30.8893 26.2354 30.8188L1.12417 16.1398C0.881287 15.9989 0.732422 15.7404 0.732422 15.4584C0.732422 15.1764 0.881287 14.9257 1.12417 14.7847L26.2354 0.105745C26.4783 -0.0352484 26.7838 -0.0352484 27.0267 0.105745L52.1379 14.7847C52.3808 14.9257 52.5297 15.1842 52.5297 15.4584C52.5297 15.7404 52.3808 15.9989 52.1379 16.1398L27.0267 30.8188C26.9092 30.8972 26.776 30.9285 26.635 30.9285ZM3.08293 15.4662L26.635 29.2366L50.187 15.4662L26.635 1.69584L3.08293 15.4662Z" fill="#2E306C"/>
<path d="M26.6351 60.2943C26.5019 60.2943 26.3687 60.263 26.2433 60.1925C26.0004 60.0515 25.8516 59.793 25.8516 59.511V30.153C25.8516 29.7222 26.2041 29.3697 26.6351 29.3697C27.066 29.3697 27.4186 29.7222 27.4186 30.153V58.1481L50.9549 44.3855V15.4662C50.9549 15.0353 51.3075 14.6829 51.7384 14.6829C52.1693 14.6829 52.5219 15.0353 52.5219 15.4662V44.8242C52.5219 45.1062 52.373 45.3568 52.1302 45.4978L27.019 60.1768C26.9093 60.2552 26.7761 60.2943 26.6351 60.2943Z" fill="#2E306C"/>
<path d="M26.635 60.2943C26.4939 60.2943 26.3607 60.2551 26.2354 60.1847L1.12417 45.5057C0.881287 45.3647 0.732422 45.1062 0.732422 44.832V15.4662C0.732422 15.0353 1.085 14.6829 1.51592 14.6829C1.94685 14.6829 2.29942 15.0353 2.29942 15.4662V44.3777L25.8358 58.1403V30.1452C25.8358 29.7144 26.1883 29.3619 26.6193 29.3619C27.0502 29.3619 27.4028 29.7144 27.4028 30.1452V59.5032C27.4028 59.7852 27.2539 60.0437 27.011 60.1847C26.9092 60.2551 26.776 60.2943 26.635 60.2943Z" fill="#2E306C"/>
<path d="M40.1273 8.57308L15.0161 23.2599L11.4668 21.0745L36.5781 6.39551L40.1273 8.57308Z" fill="#2E306C"/>
</svg>
