<svg width="49" height="49" viewBox="0 0 49 49" fill="none" xmlns="http://www.w3.org/2000/svg">
<path d="M21.9676 48.1318C21.2938 48.1318 20.6121 47.9046 20.1263 47.4816C19.7659 47.1605 18.9903 47.0038 18.528 47.1527C17.4938 47.4895 16.1618 47.0743 15.5037 46.2048C15.2138 45.821 14.4851 45.5077 14.0072 45.5625C12.926 45.6879 11.7037 45.0064 11.2336 44.0273C11.0299 43.5886 10.3718 43.1343 9.89382 43.0952C8.80475 43.0012 7.74703 42.0925 7.48848 41.0272C7.37095 40.5573 6.8225 39.9855 6.36023 39.8445C5.31817 39.5311 4.46416 38.4267 4.41715 37.3379C4.40148 36.8522 3.97838 36.1786 3.55529 35.9515C2.59159 35.4345 1.98046 34.1812 2.16066 33.1081C2.23901 32.6303 1.96479 31.8862 1.59654 31.5807C0.758193 30.8757 0.413457 29.5363 0.805207 28.5101C0.977578 28.0558 0.860055 27.2725 0.562324 26.8966C-0.119322 26.0428 -0.189843 24.6485 0.397783 23.732C0.656339 23.3247 0.695514 22.5336 0.483969 22.1028C-0.00963699 21.1315 0.201909 19.7529 0.961905 18.9696C1.29881 18.6249 1.49469 17.8573 1.36933 17.3873C1.08727 16.3298 1.5652 15.0296 2.46623 14.4186C2.86581 14.1445 3.21839 13.4317 3.18705 12.9538C3.11653 11.8651 3.85302 10.6822 4.86374 10.2671C5.31034 10.0791 5.79611 9.45249 5.86662 8.97468C6.01549 7.89372 6.9792 6.88327 8.0526 6.67962C8.5227 6.58562 9.126 6.06861 9.29053 5.61429C9.65878 4.596 10.7792 3.80487 11.8682 3.80487H11.8996C12.3854 3.80487 13.067 3.4211 13.3177 3.01378C13.8819 2.08166 15.159 1.53333 16.2324 1.76832C16.7025 1.87015 17.4624 1.63516 17.7915 1.28267C18.5358 0.48371 19.8991 0.201717 20.8942 0.640364C21.3408 0.836189 22.1243 0.757842 22.516 0.475854C23.4014 -0.158618 24.796 -0.158618 25.6814 0.475854C26.0731 0.757842 26.8645 0.836189 27.3032 0.640364C28.2983 0.201717 29.6616 0.475877 30.4059 1.28267C30.735 1.63516 31.495 1.87015 31.9651 1.76832C33.0306 1.54116 34.3077 2.08949 34.8797 3.01378C35.1304 3.4211 35.8121 3.80487 36.2978 3.80487H36.3292C37.4104 3.80487 38.5386 4.596 38.9069 5.61429C39.0714 6.06861 39.6747 6.58562 40.1448 6.67962C41.2182 6.88327 42.1741 7.89372 42.3308 8.97468C42.4013 9.45249 42.8871 10.0791 43.3337 10.2671C44.3444 10.6822 45.0809 11.8651 45.0104 12.9538C44.979 13.4317 45.3316 14.1445 45.7312 14.4186C46.6322 15.0296 47.118 16.3377 46.8359 17.3873C46.7106 17.8573 46.9064 18.6249 47.2433 18.9696C48.0033 19.7529 48.2149 21.1236 47.7213 22.1028C47.5019 22.5336 47.5411 23.3247 47.8075 23.732C48.3951 24.6485 48.3246 26.0428 47.6429 26.8966C47.3452 27.2725 47.2198 28.0558 47.3922 28.5101C47.784 29.5284 47.4314 30.8757 46.6009 31.5807C46.2326 31.894 45.9584 32.6381 46.0367 33.1081C46.217 34.1812 45.598 35.4345 44.6421 35.9515C44.219 36.1786 43.7959 36.8522 43.7803 37.3379C43.7332 38.4267 42.8871 39.5311 41.8372 39.8445C41.3749 39.9855 40.8265 40.5573 40.7089 41.0272C40.4504 42.0847 39.3927 42.9933 38.3036 43.0952C37.8257 43.1343 37.1675 43.5886 36.9638 44.0273C36.4937 45.0143 35.2793 45.6879 34.1902 45.5625C33.7123 45.5077 32.9836 45.821 32.6937 46.2048C32.0356 47.0743 30.7036 47.4895 29.6694 47.1527C29.2071 47.0038 28.4315 47.1605 28.0711 47.4816C27.2484 48.2023 25.8616 48.3433 24.9214 47.8028C24.4983 47.5678 23.707 47.5678 23.2917 47.8028C22.8921 48.0221 22.4298 48.1318 21.9676 48.1318ZM18.9511 45.5234C19.7503 45.5234 20.6043 45.8054 21.1684 46.2988C21.4896 46.5808 22.14 46.6435 22.5082 46.432C23.4171 45.9151 24.7882 45.9151 25.697 46.432C26.0653 46.6435 26.7156 46.573 27.0368 46.2988C27.8203 45.6095 29.168 45.3354 30.1552 45.6566C30.5626 45.7897 31.1816 45.5939 31.4401 45.2571C32.0747 44.4268 33.3284 43.8863 34.3704 44.0038C34.7935 44.0508 35.3655 43.7375 35.5457 43.3458C35.9923 42.4059 37.1205 41.6226 38.1626 41.5286C38.5856 41.4894 39.0793 41.0664 39.1811 40.6513C39.4318 39.6408 40.3799 38.646 41.3749 38.3405C41.7823 38.2152 42.1819 37.6982 42.1976 37.2753C42.2368 36.2335 42.9654 35.0664 43.8821 34.5729C44.2582 34.3692 44.5481 33.7818 44.4776 33.3666C44.3052 32.3327 44.7831 31.048 45.5823 30.3744C45.9036 30.1003 46.0681 29.4658 45.9192 29.0741C45.5431 28.095 45.7547 26.7477 46.3972 25.9253C46.6636 25.5885 46.6949 24.9383 46.4677 24.578C45.9036 23.7007 45.833 22.3299 46.3031 21.3978C46.4912 21.0218 46.3972 20.3717 46.0994 20.0662C45.3708 19.3142 45.026 17.9904 45.3003 16.98C45.4099 16.5727 45.1827 15.9539 44.8302 15.7189C43.9683 15.1314 43.365 13.9016 43.4277 12.8598C43.4512 12.4368 43.1064 11.8807 42.7147 11.7162C41.751 11.3167 40.9127 10.2279 40.7638 9.19397C40.7011 8.77099 40.2545 8.30101 39.8392 8.21485C38.8129 8.01903 37.7708 7.12609 37.4182 6.13914C37.2772 5.73966 36.7444 5.37147 36.3213 5.37147C36.3135 5.37147 36.2978 5.37147 36.29 5.37147C35.2479 5.37147 34.0727 4.71352 33.5321 3.8284C33.3127 3.46808 32.7094 3.2096 32.2941 3.29576C31.2677 3.51508 29.9671 3.10774 29.2541 2.34011C28.9643 2.02679 28.3218 1.90148 27.9379 2.06597C26.982 2.48896 25.6187 2.34798 24.7647 1.74484C24.4199 1.50202 23.7618 1.50202 23.4171 1.74484C22.563 2.34798 21.1998 2.48896 20.2439 2.06597C19.8521 1.89365 19.2097 2.02679 18.9276 2.34011C18.2146 3.10774 16.9062 3.51508 15.8876 3.29576C15.4724 3.2096 14.8691 3.46025 14.6497 3.8284C14.1091 4.72136 12.9103 5.39497 11.8604 5.37147C11.4295 5.37147 10.8967 5.73966 10.7557 6.13914C10.4031 7.12609 9.36105 8.01119 8.33466 8.21485C7.9194 8.29318 7.46497 8.77099 7.41012 9.19397C7.26126 10.2279 6.42292 11.3089 5.45921 11.7162C5.06746 11.8807 4.72271 12.4368 4.74622 12.8598C4.8089 13.9016 4.2056 15.1314 3.34374 15.7189C2.99117 15.9617 2.76396 16.5727 2.87365 16.98C3.14788 17.9904 2.80313 19.3142 2.07448 20.0662C1.77675 20.3717 1.67489 21.014 1.87077 21.3978C2.34087 22.3299 2.27035 23.7007 1.70623 24.578C1.47901 24.9383 1.51035 25.5885 1.77674 25.9253C2.42705 26.7399 2.63077 28.095 2.26252 29.0741C2.11366 29.4736 2.27035 30.1081 2.59942 30.3744C3.39859 31.048 3.87653 32.3327 3.70416 33.3666C3.63365 33.7818 3.92354 34.3692 4.29962 34.5729C5.21631 35.0664 5.94498 36.2335 5.98415 37.2753C5.99982 37.6982 6.3994 38.2152 6.80682 38.3405C7.8097 38.646 8.74991 39.633 9.00063 40.6513C9.10248 41.0664 9.59609 41.4894 10.0192 41.5286C11.0612 41.6226 12.1816 42.4059 12.6361 43.3458C12.8163 43.7296 13.3882 44.0508 13.8113 44.0038C14.8455 43.8863 16.107 44.4268 16.7416 45.2571C17.0002 45.5939 17.627 45.7897 18.0266 45.6566C18.3243 45.5704 18.6299 45.5234 18.9511 45.5234Z" fill="#2E306C"/>
<path d="M10.874 14.8261H10.8505L9.62828 15.7974L9.16602 14.7869L10.7957 13.5102L11.9709 13.2673L13.5223 20.7165L12.159 20.9985L10.874 14.8261Z" fill="#2E306C"/>
<path d="M20.5651 15.3195C21.0587 17.7164 20.4319 19.4084 18.6611 19.7844C16.9374 20.1447 15.6995 18.7739 15.2137 16.5102C14.7358 14.1916 15.3939 12.4292 17.1411 12.0689C18.9354 11.6929 20.1106 13.1185 20.5651 15.3195ZM16.6397 16.2125C17.008 18.0219 17.7053 18.86 18.4809 18.6956C19.3036 18.5232 19.5308 17.4266 19.1626 15.6407C18.8022 13.9096 18.1754 12.9775 17.3292 13.1498C16.5692 13.3065 16.2401 14.3404 16.6397 16.2125Z" fill="#2E306C"/>
<path d="M26.7076 14.0427C27.2012 16.4396 26.5744 18.1315 24.8037 18.5075C23.08 18.8678 21.8421 17.497 21.3563 15.2333C20.8784 12.9226 21.5365 11.1523 23.2837 10.792C25.0779 10.416 26.2532 11.8494 26.7076 14.0427ZM22.7823 14.9356C23.1505 16.7529 23.8478 17.5832 24.6235 17.4187C25.4462 17.2463 25.6734 16.1498 25.3052 14.3638C24.9447 12.6328 24.3179 11.7006 23.4718 11.873C22.7118 12.0296 22.3827 13.0714 22.7823 14.9356Z" fill="#2E306C"/>
<path d="M30.9316 11.5048C31.2606 13.0792 30.5085 14.0584 29.4821 14.2699C28.44 14.4892 27.4215 13.8625 27.1159 12.4291C26.826 11.0192 27.445 9.92254 28.5889 9.67972C29.772 9.44473 30.6495 10.1654 30.9316 11.5048ZM28.1815 12.1628C28.346 13.0244 28.7848 13.5884 29.3489 13.4709C29.913 13.3534 30.0619 12.7033 29.8738 11.7946C29.7015 10.9722 29.3332 10.3534 28.7299 10.4787C28.158 10.604 28.0091 11.3247 28.1815 12.1628ZM30.1559 17.3952L32.8746 8.79464L33.6738 8.63013L30.9551 17.2307L30.1559 17.3952ZM36.706 13.5336C37.0272 15.0923 36.2907 16.0793 35.2565 16.2986C34.2223 16.5101 33.1959 15.8913 32.8981 14.4422C32.6083 13.0401 33.2272 11.9356 34.3633 11.7006C35.5464 11.4578 36.4317 12.1941 36.706 13.5336ZM33.9637 14.1915C34.1282 15.0453 34.567 15.6172 35.1311 15.4997C35.7031 15.3822 35.8441 14.732 35.6561 13.8234C35.4837 12.9853 35.1155 12.3821 34.5122 12.5075C33.9402 12.6328 33.7913 13.3534 33.9637 14.1915Z" fill="#2E306C"/>
<path d="M10.1063 27.8053C10.0122 27.4214 9.90254 26.9593 9.80069 26.4972H9.78501C9.76934 26.928 9.73018 27.4136 9.68317 27.8131L9.54996 29.1447L8.98585 29.2622L8.38255 28.0951C8.20235 27.7426 7.99864 27.3118 7.8341 26.9045H7.82626C7.89677 27.3431 7.98296 27.8366 8.04564 28.2439L8.24151 29.4737L7.57554 29.6147L7.11328 26.3718L8.07699 26.1682L8.60976 27.1708C8.78997 27.5233 8.97018 27.8993 9.11904 28.2596H9.13471C9.15038 27.8679 9.16605 27.4293 9.19739 27.0455L9.31492 25.9097L10.263 25.7139L11.1013 28.8784L10.3961 29.0272L10.1063 27.8053Z" fill="#2E306C"/>
<path d="M12.2289 27.7817L12.174 28.6511L11.4219 28.8078L11.7353 25.4004L12.6833 25.2046L14.3443 28.1968L13.5687 28.3613L13.1534 27.5937L12.2289 27.7817ZM12.9262 27.0767L12.5815 26.4422C12.4874 26.2621 12.3777 26.0349 12.2915 25.8547H12.2837C12.2759 26.0584 12.2759 26.3091 12.268 26.5049L12.221 27.2255L12.9262 27.0767Z" fill="#2E306C"/>
<path d="M14.454 25.471L13.5922 25.6511L13.4668 25.048L15.927 24.531L16.0524 25.142L15.1827 25.3221L15.7155 27.9149L14.9946 28.0715L14.454 25.471Z" fill="#2E306C"/>
<path d="M17.0392 24.3038L17.2978 25.5336L18.4887 25.2829L18.2301 24.0531L18.9509 23.9043L19.6169 27.108L18.8961 27.2568L18.6219 25.9174L17.4231 26.168L17.7052 27.5075L16.9765 27.6563L16.3105 24.4526L17.0392 24.3038Z" fill="#2E306C"/>
<path d="M21.8738 25.2283L20.6985 25.4711L20.8552 26.2309L22.1715 25.9567L22.2968 26.552L20.2519 26.975L19.5859 23.7713L21.5604 23.364L21.6857 23.9593L20.44 24.2178L20.5731 24.8836L21.7562 24.6408L21.8738 25.2283Z" fill="#2E306C"/>
<path d="M25.243 24.6641C25.149 24.2803 25.0393 23.8182 24.9374 23.356H24.9217C24.9061 23.7869 24.8669 24.2725 24.8199 24.672L24.6867 26.0036L24.1226 26.1211L23.5193 24.9539C23.3391 24.6015 23.1354 24.1629 22.9708 23.7634H22.963C23.0335 24.202 23.1197 24.6955 23.1824 25.1028L23.3782 26.3326L22.7123 26.4735L22.25 23.2307L23.2137 23.0271L23.7465 24.0297C23.9267 24.3822 24.1069 24.7581 24.2558 25.1185H24.2714C24.2871 24.7268 24.3028 24.2803 24.3341 23.9044L24.4516 22.7686L25.3997 22.5728L26.238 25.7372L25.5329 25.8861L25.243 24.6641Z" fill="#2E306C"/>
<path d="M27.3656 24.6408L27.3108 25.5103L26.5586 25.6669L26.872 22.2595L27.82 22.0637L29.4811 25.0559L28.7054 25.2204L28.2901 24.4528L27.3656 24.6408ZM28.0708 23.928L27.726 23.2935C27.632 23.1133 27.5223 22.8862 27.4361 22.706H27.4283C27.4204 22.9097 27.4204 23.1604 27.4126 23.3562L27.3656 24.0768L28.0708 23.928Z" fill="#2E306C"/>
<path d="M29.5907 22.3301L28.7289 22.5102L28.6035 21.8993L31.0637 21.3901L31.1969 22.0011L30.3194 22.1813L30.86 24.774L30.1313 24.9228L29.5907 22.3301Z" fill="#2E306C"/>
<path d="M32.1604 21.1634L31.4316 21.3147L32.0959 24.5128L32.8246 24.3615L32.1604 21.1634Z" fill="#2E306C"/>
<path d="M35.8045 23.6539C35.6869 23.7479 35.397 23.881 35.0131 23.9594C33.9084 24.1865 33.1954 23.6147 32.9995 22.706C32.7723 21.6094 33.4226 20.8418 34.3942 20.6381C34.7702 20.5598 35.068 20.5755 35.209 20.6146L35.1777 21.2178C35.021 21.1865 34.8016 21.1708 34.543 21.2256C33.9711 21.3431 33.595 21.7818 33.7438 22.4946C33.877 23.1369 34.3393 23.458 34.9896 23.3249C35.209 23.2779 35.4441 23.1839 35.5694 23.0977L35.8045 23.6539Z" fill="#2E306C"/>
<path d="M36.9164 22.6591L36.8615 23.5286L36.1094 23.6852L36.4228 20.2779L37.3708 20.082L39.0318 23.0742L38.2562 23.2387L37.8409 22.4711L36.9164 22.6591ZM37.6215 21.9463L37.2768 21.3118C37.1828 21.1317 37.0731 20.9123 36.9869 20.7243H36.9791C36.9712 20.928 36.9712 21.1787 36.9634 21.3745L36.9164 22.0951L37.6215 21.9463Z" fill="#2E306C"/>
<path d="M38.7969 19.7843L39.5255 19.6355L40.0583 22.2282L41.3354 21.9619L41.4608 22.5729L39.4629 22.988L38.7969 19.7843Z" fill="#2E306C"/>
<path d="M14.2734 30.1003C14.4928 30.0142 14.7984 29.9202 15.2371 29.8341C15.6837 29.7401 16.0206 29.7636 16.2714 29.8889C16.5064 30.0064 16.7023 30.2492 16.765 30.5547C16.8276 30.868 16.7806 31.1578 16.6318 31.3771C16.4359 31.6591 16.0911 31.8393 15.6602 31.9333C15.5662 31.9568 15.48 31.9646 15.4095 31.9724L15.6446 33.1161L14.9237 33.2649L14.2734 30.1003ZM15.292 31.4085C15.3547 31.4085 15.433 31.4006 15.5349 31.3771C15.9188 31.2988 16.1147 31.056 16.052 30.727C15.9893 30.4294 15.7464 30.2962 15.386 30.3745C15.2371 30.4059 15.1431 30.4372 15.0883 30.4685L15.292 31.4085Z" fill="#2E306C"/>
<path d="M17.0312 29.5286C17.2585 29.4425 17.5954 29.3406 17.9793 29.2623C18.4572 29.1604 18.802 29.1683 19.0684 29.3015C19.2877 29.4111 19.4366 29.6148 19.4993 29.9124C19.5855 30.3198 19.3504 30.6644 19.0997 30.8211V30.8367C19.3426 30.8837 19.5071 31.0718 19.6482 31.3459C19.8205 31.6827 20.0086 32.0822 20.0947 32.1919L19.3504 32.3485C19.2799 32.2702 19.1467 32.0196 18.9743 31.6514C18.8098 31.2676 18.6453 31.1892 18.3475 31.2441L18.1282 31.2911L18.3867 32.5522L17.6659 32.701L17.0312 29.5286ZM18.0341 30.7584L18.3162 30.6957C18.6766 30.6174 18.8568 30.3981 18.7941 30.1161C18.7314 29.8184 18.5042 29.7166 18.1673 29.7793C17.995 29.8185 17.8931 29.8498 17.8461 29.8733L18.0341 30.7584Z" fill="#2E306C"/>
<path d="M23.0805 29.8655C23.2999 30.9151 22.7906 31.6827 21.8582 31.8786C20.9102 32.0744 20.205 31.4791 20.017 30.5626C19.8211 29.607 20.2834 28.761 21.2236 28.5652C22.203 28.3537 22.8925 28.9803 23.0805 29.8655ZM20.777 30.3903C20.9102 31.0169 21.2941 31.4008 21.7799 31.2989C22.2657 31.1971 22.4537 30.6723 22.3205 30.0535C22.203 29.4816 21.8269 29.043 21.3255 29.1448C20.8318 29.2388 20.6438 29.7636 20.777 30.3903Z" fill="#2E306C"/>
<path d="M26.4805 29.1526C26.6999 30.2023 26.1985 30.9699 25.2583 31.1657C24.3102 31.3616 23.6051 30.7584 23.417 29.8497C23.2133 28.8863 23.6834 28.0482 24.6236 27.8523C25.6108 27.6487 26.3003 28.2753 26.4805 29.1526ZM24.177 29.6774C24.3102 30.3041 24.6941 30.6879 25.1799 30.5861C25.6657 30.4842 25.8537 29.9594 25.7205 29.3406C25.603 28.7688 25.2269 28.3301 24.7255 28.432C24.2397 28.5338 24.0517 29.0586 24.177 29.6774Z" fill="#2E306C"/>
<path d="M26.6367 27.492L28.5876 27.0847L28.713 27.68L27.4829 27.9307L27.6318 28.667L28.7835 28.4242L28.9089 29.0116L27.7571 29.2544L28.0235 30.539L27.2949 30.6957L26.6367 27.492Z" fill="#2E306C"/>
<path d="M33.352 27.7269C33.5714 28.7765 33.0699 29.5441 32.1297 29.74C31.1817 29.9358 30.4765 29.3326 30.2885 28.424C30.0926 27.4684 30.5549 26.6224 31.4951 26.4265C32.4823 26.2229 33.1718 26.8496 33.352 27.7269ZM31.0485 28.2517C31.1817 28.8783 31.5656 29.2621 32.0514 29.1603C32.5371 29.0585 32.7252 28.5337 32.592 27.9148C32.4744 27.343 32.0984 26.9044 31.5969 27.0062C31.1112 27.1081 30.9231 27.6328 31.0485 28.2517Z" fill="#2E306C"/>
<path d="M33.501 26.0663L35.4597 25.6589L35.5851 26.2542L34.355 26.5049L34.5039 27.2412L35.6556 26.9984L35.7731 27.5859L34.6292 27.8287L34.8956 29.1133L34.167 29.2621L33.501 26.0663Z" fill="#2E306C"/>
<path d="M13.8113 38.5755C13.6937 38.6695 13.4039 38.8026 13.0199 38.881C11.9152 39.1081 11.2022 38.5442 11.0063 37.6277C10.7791 36.5389 11.4294 35.7634 12.401 35.5598C12.7771 35.4814 13.0748 35.4971 13.2158 35.5363L13.1845 36.1394C13.0199 36.1081 12.8084 36.0924 12.5498 36.1473C11.9779 36.2648 11.6018 36.7034 11.7507 37.4162C11.8839 38.0585 12.3461 38.3797 12.9964 38.2465C13.2158 38.1995 13.4509 38.1055 13.5762 38.0194L13.8113 38.5755Z" fill="#2E306C"/>
<path d="M16.7572 36.3589C16.9766 37.4085 16.4752 38.1761 15.535 38.3719C14.5869 38.5678 13.8818 37.9646 13.6937 37.056C13.4979 36.1004 13.9601 35.2544 14.9003 35.0586C15.8797 34.8471 16.5692 35.4737 16.7572 36.3589ZM14.4537 36.8759C14.5869 37.5025 14.9709 37.8863 15.4566 37.7845C15.9424 37.6826 16.1304 37.1579 15.9972 36.5391C15.8797 35.9672 15.5036 35.5286 15.0022 35.6304C14.5086 35.7322 14.3206 36.2571 14.4537 36.8759Z" fill="#2E306C"/>
<path d="M16.9141 34.7296C17.1413 34.6434 17.4782 34.5416 17.8621 34.4632C18.34 34.3614 18.6848 34.3692 18.9512 34.5024C19.1705 34.612 19.3272 34.8157 19.3821 35.1134C19.4683 35.5207 19.2332 35.8653 18.9825 36.022V36.0376C19.2254 36.0846 19.3899 36.2727 19.531 36.5468C19.7033 36.8836 19.8914 37.2831 19.9776 37.3927L19.2332 37.5494C19.1627 37.4711 19.0295 37.2204 18.8571 36.8523C18.6926 36.4684 18.5281 36.3901 18.2303 36.445L18.011 36.492L18.2695 37.7531L17.5565 37.9019L16.9141 34.7296ZM17.9169 35.9593L18.199 35.8967C18.5594 35.8262 18.7396 35.599 18.6769 35.317C18.6143 35.0194 18.387 34.9176 18.0501 34.9802C17.8778 35.0194 17.7759 35.0507 17.7289 35.0742L17.9169 35.9593Z" fill="#2E306C"/>
<path d="M19.7344 34.15C19.9616 34.0638 20.2985 33.962 20.6824 33.8836C21.1604 33.7818 21.5051 33.7896 21.7715 33.9228C21.9909 34.0325 22.1476 34.2361 22.2024 34.5338C22.2886 34.9411 22.0535 35.2857 21.8028 35.4424V35.4581C22.0457 35.5051 22.2102 35.693 22.3513 35.9672C22.5236 36.304 22.7117 36.7035 22.7979 36.8131L22.0535 36.9698C21.983 36.8915 21.8498 36.6486 21.6775 36.2727C21.5129 35.8889 21.3484 35.8106 21.0507 35.8654L20.8313 35.9124L21.0898 37.1735L20.3769 37.3223L19.7344 34.15ZM20.7373 35.3719L21.0193 35.3171C21.3797 35.2387 21.5599 35.0194 21.4973 34.7374C21.4346 34.4398 21.2074 34.3379 20.8705 34.4006C20.6981 34.4398 20.5962 34.4711 20.5492 34.4946L20.7373 35.3719Z" fill="#2E306C"/>
<path d="M24.8269 34.9724L23.6516 35.2152L23.8083 35.975L25.1246 35.7009L25.25 36.2962L23.205 36.7191L22.5391 33.5233L24.5135 33.1082L24.6389 33.7035L23.3931 33.9619L23.5263 34.6278L24.7094 34.3849L24.8269 34.9724Z" fill="#2E306C"/>
<path d="M28.071 35.6147C27.9535 35.7087 27.6636 35.8419 27.2797 35.928C26.175 36.1552 25.462 35.5834 25.2661 34.6748C25.0389 33.586 25.6892 32.8105 26.6607 32.6069C27.0368 32.5285 27.3345 32.5442 27.4756 32.5834L27.4442 33.1865C27.2875 33.1552 27.0682 33.1395 26.8096 33.1943C26.2377 33.3118 25.8616 33.7505 26.0104 34.4633C26.1436 35.1056 26.6059 35.4267 27.2562 35.2936C27.4756 35.2466 27.7028 35.1526 27.836 35.0664L28.071 35.6147Z" fill="#2E306C"/>
<path d="M28.7138 32.8733L27.8519 33.0535L27.7266 32.4425L30.1868 31.9333L30.3121 32.5365L29.4424 32.7245L29.9752 35.3172L29.2544 35.466L28.7138 32.8733Z" fill="#2E306C"/>
<path d="M31.2363 35.0508L30.5703 31.8471L31.4165 31.6748L32.3254 32.7087C32.5839 33.0064 32.8581 33.3667 33.0775 33.6957H33.0932C32.96 33.2806 32.8503 32.8497 32.7563 32.3719L32.5604 31.4398L33.2264 31.2988L33.8923 34.5025L33.1324 34.6591L32.1922 33.5703C31.9336 33.2649 31.6359 32.8967 31.4008 32.5521L31.3852 32.5599C31.4948 32.9751 31.5967 33.4294 31.7064 33.9542L31.9101 34.9176L31.2363 35.0508Z" fill="#2E306C"/>
<path d="M36.1413 32.6225L34.9583 32.8654L35.115 33.6251L36.4312 33.3588L36.5566 33.9463L34.5117 34.3693L33.8535 31.1734L35.8279 30.7583L35.9533 31.3536L34.6997 31.6121L34.8407 32.2779L36.016 32.0351L36.1413 32.6225Z" fill="#2E306C"/>
<path d="M36.9167 33.0924C37.1282 33.1551 37.4495 33.1864 37.7629 33.1238C38.0919 33.0533 38.2408 32.8809 38.2016 32.6694C38.1625 32.4658 37.9823 32.3875 37.5748 32.3326C37.0029 32.2621 36.5955 32.035 36.5014 31.5728C36.3918 31.0245 36.76 30.5154 37.5122 30.3587C37.8726 30.2804 38.1546 30.3039 38.3662 30.3509L38.327 30.9697C38.186 30.9305 37.9352 30.8914 37.6218 30.954C37.3084 31.0167 37.1831 31.189 37.2223 31.3614C37.2614 31.565 37.4652 31.6198 37.9117 31.6903C38.5229 31.7843 38.8441 32.0193 38.9381 32.4736C39.0478 33.0141 38.7344 33.5545 37.8491 33.7347C37.4808 33.813 37.1047 33.7895 36.901 33.7269L36.9167 33.0924Z" fill="#2E306C"/>
<path d="M39.4872 32.56C39.6988 32.6226 40.02 32.6539 40.3334 32.5913C40.6625 32.5208 40.8114 32.3485 40.7722 32.137C40.733 31.9333 40.5528 31.855 40.1375 31.7923C39.5656 31.7218 39.1582 31.4947 39.0642 31.0325C38.9466 30.4842 39.3227 29.9751 40.0749 29.8184C40.4353 29.7401 40.7173 29.7636 40.9289 29.8106L40.8897 30.4294C40.7487 30.3903 40.5058 30.3511 40.1846 30.4137C39.8712 30.4764 39.7458 30.6487 39.785 30.8211C39.8241 31.0247 40.0279 31.0795 40.4744 31.15C41.0856 31.244 41.4068 31.479 41.5008 31.9333C41.6105 32.466 41.2971 33.0143 40.4118 33.1944C40.0435 33.2728 39.6674 33.2492 39.4637 33.1866L39.4872 32.56Z" fill="#2E306C"/>
</svg>
