<svg width="45" height="44" viewBox="0 0 45 44" fill="none" xmlns="http://www.w3.org/2000/svg">
<path d="M22.4616 43.943C10.3408 43.943 0.484375 34.0891 0.484375 21.9715C0.484375 9.8539 10.3408 0 22.4616 0C34.5824 0 44.4389 9.8539 44.4389 21.9715C44.4389 34.0891 34.5824 43.943 22.4616 43.943ZM22.4616 1.57444C11.2105 1.57444 2.05138 10.7312 2.05138 21.9793C2.05138 33.2275 11.2027 42.3843 22.4616 42.3843C33.7127 42.3843 42.864 33.2353 42.864 21.9793C42.864 10.7233 33.7127 1.57444 22.4616 1.57444Z" fill="#2E306C"/>
<path d="M9.74542 22.7781C9.31449 22.7781 8.96191 22.4257 8.96191 21.9948C8.96191 21.564 9.31449 21.2115 9.74542 21.2115L35.3346 21.1724C35.7655 21.1724 36.1181 21.5248 36.1181 21.9557C36.1181 22.3865 35.7655 22.739 35.3346 22.739L9.74542 22.7781Z" fill="#2E306C"/>
</svg>
