<svg width="48" height="48" viewBox="0 0 48 48" fill="none" xmlns="http://www.w3.org/2000/svg">
<path d="M18.9059 22.4415H22.1574L22.3533 20.9297C22.7451 17.6791 24.1946 13.9036 28.6292 13.9036C29.6164 13.9349 30.3999 14.1307 30.8621 14.397L30.3372 16.4963C29.8436 16.3005 29.2873 16.1673 28.6292 16.1673C26.3962 16.1673 25.409 18.2979 25.1504 20.7339L24.9545 22.4415H28.8956V24.5094H24.6882L23.8968 31.2379C23.3719 35.4756 22.0243 38.3581 18.1851 38.3581C17.1039 38.3581 16.1793 38.131 15.623 37.8333L16.148 35.7654C16.7043 36.0317 17.2997 36.1257 17.9892 36.1257C20.0263 36.1257 20.7785 34.3241 21.1781 30.9716L21.9302 24.5016H18.9059V22.4415Z" fill="#2E306C"/>
<path d="M32.2799 26.3501C31.089 27.9559 30.2193 30.0786 30.2193 33.0395C30.2193 35.9533 31.1203 38.0447 32.2799 39.6818H31.1517C30.1175 38.3267 29.0049 36.2275 29.0049 33.0395C29.0206 29.8123 30.1175 27.7209 31.1517 26.3501H32.2799Z" fill="#2E306C"/>
<path d="M34.4738 29.781L35.602 31.4808C35.8998 31.9194 36.1426 32.3346 36.4012 32.7732H36.4482C36.7068 32.2954 36.9732 31.8881 37.2317 31.4651L38.3443 29.781H39.8956L37.1925 33.6113L39.974 37.7002H38.3365L37.1769 35.9142C36.8635 35.4599 36.6049 35.0134 36.3228 34.5435H36.2915C36.033 35.0213 35.7509 35.4443 35.4532 35.9142L34.3093 37.7002H32.7188L35.5315 33.6583L32.8441 29.781H34.4738Z" fill="#2E306C"/>
<path d="M40.5146 39.6818C41.6742 38.0604 42.5753 35.9377 42.5753 32.9925C42.5753 30.0629 41.6899 27.9715 40.5146 26.3501H41.6272C42.6771 27.6895 43.774 29.7888 43.774 33.0081C43.774 36.2118 42.6771 38.2954 41.6272 39.6818H40.5146Z" fill="#2E306C"/>
<path d="M45.208 47.8674H2.67174C1.19876 47.8674 0 46.6689 0 45.1963V2.67105C0 1.19845 1.19876 0 2.67174 0H45.208C46.681 0 47.8798 1.19845 47.8798 2.67105V45.1963C47.8798 46.6689 46.681 47.8674 45.208 47.8674ZM2.67174 1.5666C2.06845 1.5666 1.57485 2.06007 1.57485 2.66321V45.1885C1.57485 45.7916 2.06845 46.2851 2.67174 46.2851H45.208C45.8113 46.2851 46.3049 45.7916 46.3049 45.1885V2.67105C46.3049 2.06791 45.8113 1.57443 45.208 1.57443H2.67174V1.5666Z" fill="#2E306C"/>
<path d="M5.28906 30.0159V28.6843L11.7294 20.5772L5.62597 12.5484V11.0366H17.4568V12.8852H8.49359V12.987L14.1975 20.4989L8.18803 28.0733V28.1438H18.2482V30.0159H5.28906Z" fill="#2E306C"/>
</svg>
