<svg width="75" height="65" viewBox="0 0 75 65" fill="none" xmlns="http://www.w3.org/2000/svg">
<path d="M33.0197 64.5752L16.3076 47.8675L23.8057 40.3713L24.174 40.3948C24.6363 40.4261 25.075 40.6376 25.4354 40.9979C25.9682 41.5306 26.1797 42.2669 26.3913 42.9797C26.6028 43.7081 26.7987 44.3896 27.3002 44.8831C27.7938 45.3766 28.1385 45.5881 29.4548 44.2878C30.7554 42.964 30.5439 42.6272 30.0503 42.1337C29.5567 41.6402 28.8672 41.4366 28.1464 41.2251C27.4334 41.0136 26.6969 40.8021 26.1641 40.2695C25.7958 39.9013 25.5843 39.4705 25.553 39.0084L25.5295 38.6402L33.0276 31.144L39.8832 37.9979C39.8911 37.9901 39.8989 37.9822 39.9067 37.9744C40.1496 37.7316 40.2985 37.2224 40.4552 36.682C40.6902 35.8752 40.9801 34.8725 41.7714 34.0814C43.6753 32.178 45.4539 33.9248 46.2061 34.6689C46.9582 35.4365 48.7133 37.2068 46.8016 39.1102C46.0102 39.9013 45.0073 40.1911 44.2003 40.4261C43.6597 40.5828 43.1504 40.7316 42.9075 40.9744C42.8997 40.9823 42.8919 40.9901 42.884 40.9979L49.7397 47.8518L33.0197 64.5752ZM18.5955 47.8675L33.0276 62.2958L47.4597 47.8675L41.1525 41.5619V41.2251C41.1525 40.8726 41.2622 40.3478 41.7636 39.8465C42.2964 39.3138 43.0329 39.1024 43.7459 38.8909C44.4745 38.6794 45.1562 38.4836 45.6498 37.9822C46.1434 37.4888 46.3549 37.1441 45.0543 35.8203C43.738 34.5279 43.3933 34.7394 42.8997 35.2329C42.4061 35.7263 42.2024 36.4156 41.9908 37.1363C41.7793 37.8491 41.5677 38.5854 41.0349 39.1259C40.5335 39.6272 40.0086 39.7368 39.656 39.7368H39.3191L33.0197 33.4391L27.308 39.1494C27.5509 39.3843 28.0601 39.5332 28.5929 39.682C29.3999 39.917 30.4028 40.2068 31.1942 40.9979C33.0354 42.8387 31.4684 44.5541 30.6849 45.3531L30.5125 45.5254C29.7133 46.3087 27.9975 47.8753 26.1562 46.0346C25.3649 45.2434 25.075 44.2408 24.84 43.434C24.6833 42.9014 24.5344 42.4 24.3072 42.1494L18.5955 47.8675Z" fill="#2E306C"/>
<path d="M74.4428 40.1756H50.8046V30.4862C50.4677 30.5018 50.0132 30.7525 49.5353 31.011C48.7988 31.4183 47.8821 31.9196 46.7695 31.9196C44.0743 31.9196 44.0586 29.4287 44.0508 28.3634C44.0586 27.2903 44.0743 24.7994 46.7695 24.7994C47.8821 24.7994 48.7988 25.3007 49.5353 25.708C50.0132 25.9744 50.4677 26.225 50.8046 26.2329V16.5435H61.3348L61.5699 16.7784C61.8206 17.0291 62.1105 17.4756 62.1105 18.1884C62.1105 18.9404 61.7423 19.614 61.3818 20.2641C61.0214 20.9299 60.6767 21.5487 60.6767 22.2537C60.6767 22.9508 60.7629 23.3425 62.6198 23.3582C64.4767 23.3425 64.5629 22.9508 64.5629 22.2537C64.5629 21.5487 64.2181 20.9299 63.8577 20.2641C63.4973 19.614 63.129 18.9404 63.129 18.1884C63.129 17.4756 63.4268 17.0291 63.6697 16.7784L63.9047 16.5435H74.435V40.1756H74.4428ZM52.4264 38.562H72.8366V18.157H64.7587V18.1884C64.7587 18.5252 65.0173 18.9952 65.2837 19.4887C65.6911 20.225 66.1926 21.1414 66.1926 22.2537C66.1926 24.8543 63.8655 24.9639 62.753 24.9718H62.5179C61.3975 24.9561 59.0783 24.8543 59.0783 22.2537C59.0783 21.1414 59.5798 20.225 59.9872 19.4887C60.2614 18.9952 60.5122 18.5252 60.5122 18.1884C60.5122 18.1806 60.5122 18.1649 60.5122 18.157H52.4343V27.165L52.1444 27.4078C51.7918 27.7055 51.3608 27.8543 50.8437 27.8543C50.0837 27.8543 49.4178 27.4861 48.7596 27.1258C48.0937 26.7655 47.4668 26.4208 46.7695 26.4208C46.0722 26.4208 45.6726 26.507 45.6648 28.3713C45.6805 30.2199 46.0722 30.3138 46.7695 30.3138C47.4668 30.3138 48.0937 29.9692 48.7596 29.6089C49.4099 29.2486 50.0837 28.8804 50.8437 28.8804C51.353 28.8804 51.7918 29.0292 52.1444 29.3269L52.4343 29.5697V38.562H52.4264Z" fill="#2E306C"/>
<path d="M17.4279 48.9797L0.71582 32.272L17.4279 15.5642L24.8868 23.0212L24.879 23.3659C24.8712 23.8593 24.6596 24.3293 24.2679 24.721C23.7351 25.2536 22.9986 25.4729 22.2856 25.6766C21.5569 25.8881 20.8753 26.0839 20.3817 26.5852C19.8881 27.0787 19.6766 27.4234 20.9772 28.7393C22.3013 30.0396 22.6382 29.8281 23.1318 29.3346C23.6254 28.8411 23.8291 28.1518 24.0406 27.4312C24.2443 26.7184 24.4638 25.9821 24.9965 25.4494C25.3883 25.0578 25.8584 24.8463 26.352 24.8385L26.6967 24.8306L34.1557 32.2876L27.3 39.1415C27.3079 39.1415 27.3079 39.1493 27.3157 39.1493C27.5586 39.3921 28.0678 39.541 28.6085 39.6976C29.4155 39.9326 30.4184 40.2224 31.2097 41.0136C33.1136 42.917 31.3664 44.6951 30.6221 45.447C29.8542 46.199 28.0835 47.9536 26.1796 46.0424C25.3883 45.2512 25.0984 44.2486 24.8633 43.4418C24.7066 42.9013 24.5578 42.3922 24.3149 42.1494C24.3071 42.1415 24.307 42.1415 24.307 42.1337L17.4279 48.9797ZM2.99579 32.272L17.4279 46.7003L23.7507 40.3791L24.0955 40.3869C24.5813 40.4026 25.0514 40.6141 25.4353 40.9979C25.9681 41.5306 26.1874 42.2669 26.3911 42.9797C26.6027 43.7081 26.7986 44.3896 27.3 44.8831C27.7936 45.3766 28.1384 45.588 29.4625 44.2878C30.7631 42.9718 30.5437 42.6272 30.0501 42.1337C29.5565 41.6402 28.867 41.4366 28.1462 41.2251C27.4332 41.0214 26.6967 40.8021 26.1639 40.2694C25.78 39.8856 25.5685 39.4156 25.5528 38.93L25.545 38.5853L31.8679 32.2641L26.1561 26.5539C26.1483 26.5617 26.1483 26.5617 26.1405 26.5696C25.8976 26.8124 25.7487 27.3215 25.592 27.862C25.357 28.6688 25.0671 29.6714 24.2757 30.4625C22.4345 32.3033 20.7186 30.7367 19.9195 29.9534L19.7471 29.7811C18.9636 28.9821 17.3966 27.2667 19.2378 25.4259C20.0292 24.6348 21.032 24.345 21.839 24.11C22.3796 23.9533 22.8889 23.8045 23.1318 23.5617C23.1396 23.5539 23.1396 23.5539 23.1475 23.546L17.4357 17.8358L2.99579 32.272Z" fill="#2E306C"/>
<path d="M32.9963 33.4155L26.1406 26.5616C26.1328 26.5695 26.1328 26.5695 26.125 26.5773C25.8821 26.8201 25.7332 27.3293 25.5765 27.8697C25.3414 28.6765 25.0516 29.6791 24.2602 30.4703C22.3563 32.3737 20.5778 30.6269 19.8256 29.8828C19.0735 29.1152 17.3184 27.3449 19.2302 25.4415C20.0215 24.6504 21.0244 24.3606 21.8314 24.1256C22.372 23.9689 22.8812 23.8201 23.1241 23.5773C23.132 23.5694 23.132 23.5694 23.1398 23.5616L16.2842 16.7077L32.9963 0L49.7083 16.7077L42.1632 24.2509L41.7714 24.2039C41.3405 24.1491 40.9566 23.9532 40.6119 23.6086C40.0791 23.076 39.8597 22.3397 39.656 21.6269C39.4445 20.8984 39.2486 20.2169 38.7471 19.7156C38.2535 19.2221 37.9088 19.0106 36.5925 20.3109C35.2919 21.6347 35.5034 21.9715 35.997 22.465C36.4907 22.9585 37.1801 23.1621 37.9009 23.3736C38.6139 23.5851 39.3504 23.7966 39.8832 24.3292C40.2201 24.666 40.4239 25.0577 40.4787 25.4885L40.5257 25.8802L32.9963 33.4155ZM26.6813 24.8149L32.9963 31.1283L38.708 25.418C38.4494 25.1987 37.9715 25.0577 37.4622 24.9089C36.6552 24.6739 35.6523 24.3841 34.861 23.5929C33.0197 21.7522 34.5868 20.0368 35.3703 19.2378L35.5426 19.0655C36.3418 18.2822 38.0577 16.7156 39.8989 18.5563C40.6902 19.3475 40.9801 20.3501 41.2152 21.1569C41.3641 21.666 41.5051 22.1517 41.7244 22.4023L47.4362 16.6921L33.0041 2.26373L18.572 16.6921L24.887 23.0055L24.8792 23.3501C24.8713 23.8436 24.6598 24.3136 24.2681 24.7052C23.7353 25.2379 22.9988 25.4572 22.2858 25.6608C21.5571 25.8723 20.8755 26.0682 20.3819 26.5695C19.8883 27.0629 19.6689 27.4076 20.9773 28.7314C22.2936 30.0316 22.6384 29.8123 23.132 29.3188C23.6256 28.8254 23.8293 28.1361 24.0408 27.4154C24.2445 26.7026 24.4639 25.9663 24.9967 25.4337C25.3885 25.042 25.8585 24.8305 26.3521 24.8227L26.6813 24.8149Z" fill="#2E306C"/>
</svg>
