<svg width="65" height="65" viewBox="0 0 65 65" fill="none" xmlns="http://www.w3.org/2000/svg">
<path d="M49.0082 16.6921L41.5101 24.1882L41.1418 24.1647C40.6796 24.1334 40.2486 23.9219 39.8804 23.5616C39.3476 23.029 39.1282 22.2927 38.9245 21.5799C38.713 20.8514 38.5171 20.1699 38.0156 19.6765C37.522 19.183 37.1773 18.9715 35.861 20.2718C34.5604 21.5955 34.772 21.9323 35.2656 22.4258C35.7592 22.9193 36.4486 23.123 37.1695 23.3345C37.8824 23.5459 38.6189 23.7574 39.1517 24.2901C39.52 24.6582 39.7315 25.089 39.7628 25.5512L39.7864 25.9193L32.2883 33.4155L25.4326 26.5616C25.4248 26.5695 25.4169 26.5773 25.4091 26.5851C25.1662 26.828 25.0174 27.3371 24.8607 27.8776C24.6256 28.6844 24.3357 29.687 23.5444 30.4781C21.6405 32.3815 19.8619 30.6348 19.1098 29.8907C18.3576 29.123 16.6104 27.3528 18.5143 25.4494C19.3056 24.6582 20.3085 24.3684 21.1155 24.1334C21.6561 23.9768 22.1654 23.8279 22.4083 23.5851C22.4161 23.5773 22.424 23.5694 22.4318 23.5616L15.5762 16.7078L32.2883 0L49.0082 16.6921ZM41.0086 22.4102L46.7203 16.6999L32.2883 2.27156L17.8562 16.6999L24.1555 23.0055V23.3423C24.1555 23.6948 24.0458 24.2196 23.5444 24.7209C23.0116 25.2535 22.2751 25.465 21.5621 25.6765C20.8335 25.888 20.1518 26.0838 19.6504 26.5851C19.1568 27.0786 18.9452 27.4233 20.2458 28.747C21.5621 30.0473 21.9069 29.828 22.4005 29.3345C22.8941 28.841 23.0978 28.1517 23.3093 27.4233C23.513 26.7105 23.7324 25.9742 24.2652 25.4415C24.7666 24.9402 25.2916 24.8306 25.6442 24.8306H25.9811L32.2804 31.1283L37.9921 25.418C37.7493 25.183 37.24 25.0342 36.7072 24.8854C35.9002 24.6504 34.8973 24.3606 34.106 23.5694C32.2647 21.7287 33.8318 20.0133 34.6153 19.2143L34.7876 19.042C35.5868 18.2587 37.3027 16.6921 39.1439 18.5328C39.9352 19.324 40.2251 20.3266 40.4602 21.1334C40.6325 21.6582 40.7736 22.1595 41.0086 22.4102Z" fill="#2E306C"/>
<path d="M33.432 32.2639L26.5764 39.1178C26.8271 39.3449 27.3207 39.4937 27.8456 39.6426C28.6527 39.8776 29.6555 40.1674 30.4469 40.9585C32.3508 42.8619 30.6036 44.64 29.8592 45.392C29.0914 46.1439 27.3207 47.8985 25.409 45.9873C24.6176 45.1962 24.3277 44.1935 24.0927 43.3867C23.936 42.8619 23.7949 42.3606 23.5677 42.1178L16.7121 48.9716L0 32.2639L16.7121 15.5562L24.1554 22.9975V23.3343C24.1554 23.6868 24.0457 24.2116 23.5442 24.7129C23.0114 25.2455 22.275 25.4649 21.562 25.6685C20.8333 25.88 20.1517 26.0758 19.6581 26.5772C19.1645 27.0706 18.9529 27.4153 20.2535 28.7312C21.5776 30.0315 21.9224 29.82 22.4081 29.3265C22.9018 28.8331 23.1055 28.1438 23.317 27.4231C23.5207 26.7103 23.7401 25.974 24.2729 25.4414C24.7743 24.9401 25.2993 24.8304 25.6518 24.8304H25.9887L33.432 32.2639ZM24.7822 38.6321L31.152 32.2639L25.4403 26.5537C25.4325 26.5615 25.4246 26.5693 25.4168 26.5772C25.1739 26.82 25.025 27.3291 24.8683 27.8696C24.6333 28.6764 24.3434 29.679 23.5521 30.4701C21.7108 32.3109 19.995 30.7443 19.1958 29.961L19.0234 29.7887C18.2399 28.9897 16.6729 27.2743 18.5141 25.4335C19.3055 24.6424 20.3084 24.3526 21.1154 24.1176C21.656 23.9609 22.1653 23.8121 22.4081 23.5693C22.416 23.5615 22.4238 23.5536 22.4317 23.5458L16.7199 17.8355L2.28782 32.2639L16.7199 46.6923L23.0898 40.324L23.4659 40.3554C23.9203 40.3945 24.3356 40.5982 24.696 40.9585C25.2288 41.4912 25.4481 42.2275 25.6518 42.9403C25.8634 43.6687 26.0593 44.3502 26.5607 44.8437C27.0543 45.3372 27.399 45.5565 28.7232 44.2484C30.0238 42.9324 29.8044 42.5878 29.3108 42.0943C28.8172 41.6008 28.1277 41.3972 27.4069 41.1857C26.6939 40.9742 25.9574 40.7627 25.4246 40.23C25.0642 39.8697 24.8605 39.4546 24.8213 39.0003L24.7822 38.6321Z" fill="#2E306C"/>
<path d="M64.6 32.2876L47.8879 48.9954L40.429 41.5384L40.4368 41.1937C40.4446 40.7003 40.6562 40.2303 41.0479 39.8386C41.5807 39.306 42.3172 39.0867 43.0302 38.883C43.7588 38.6715 44.4405 38.4757 44.9419 37.9744C45.4355 37.4809 45.6471 37.1362 44.3465 35.8203C43.0224 34.52 42.6854 34.7315 42.1918 35.225C41.6982 35.7185 41.4945 36.4078 41.283 37.1284C41.0793 37.8412 40.8599 38.5775 40.3271 39.1102C39.9354 39.5018 39.4653 39.7133 38.9716 39.7211L38.6269 39.729L31.168 32.272L38.0236 25.4181L38.0158 25.4103C37.7729 25.1675 37.2636 25.0186 36.723 24.862C35.916 24.627 34.9131 24.3372 34.1218 23.546C32.2179 21.6426 33.9651 19.8645 34.7094 19.1125C35.4772 18.3606 37.2479 16.606 39.1519 18.5172C39.9432 19.3084 40.2331 20.311 40.4681 21.1178C40.6248 21.6583 40.7737 22.1674 41.0166 22.4102C41.0244 22.4181 41.0244 22.4181 41.0244 22.4181L47.8801 15.5642L64.6 32.2876ZM47.8879 46.716L62.32 32.2876L47.8879 17.8593L41.565 24.1805L41.2203 24.1727C40.7345 24.1648 40.2644 23.9533 39.8805 23.5617C39.3477 23.029 39.1284 22.2927 38.9246 21.5799C38.7131 20.8515 38.5172 20.17 38.0158 19.6765C37.5222 19.183 37.1774 18.9716 35.8533 20.2718C34.5527 21.5878 34.7721 21.9324 35.2657 22.4259C35.7593 22.9194 36.4488 23.123 37.1696 23.3345C37.8826 23.546 38.6191 23.7575 39.1519 24.2902C39.5358 24.674 39.7473 25.144 39.763 25.6296L39.7708 25.9742L33.448 32.2955L39.1597 38.0057C39.1675 37.9979 39.1675 37.9979 39.1754 37.99C39.4182 37.7472 39.5671 37.2381 39.7238 36.6976C39.9589 35.8908 40.2488 34.8882 41.0401 34.0971C42.8813 32.2563 44.5972 33.8229 45.3964 34.6062L45.5687 34.7785C46.3522 35.5775 47.9192 37.2929 46.078 39.1337C45.2867 39.9248 44.2838 40.2146 43.4768 40.4496C42.9362 40.6063 42.4269 40.7551 42.184 40.9979C42.1762 41.0057 42.1762 41.0057 42.1683 41.0136L47.8879 46.716Z" fill="#2E306C"/>
<path d="M49.0316 47.8516L32.3195 64.5593L15.6074 47.8516L23.1525 40.3084L23.5443 40.3554C23.9752 40.4103 24.3591 40.6139 24.7039 40.9507C25.2367 41.4834 25.456 42.2197 25.6598 42.9325C25.8713 43.6609 26.0672 44.3424 26.5686 44.8359C27.0622 45.3294 27.407 45.5409 28.7311 44.2406C30.0317 42.9168 29.8123 42.58 29.3265 42.0865C28.8329 41.593 28.1435 41.3894 27.4226 41.1779C26.7096 40.9742 25.9732 40.7549 25.4404 40.2223C25.1035 39.8854 24.8998 39.4938 24.8449 39.063L24.7979 38.6713L32.343 31.1282L39.1987 37.982C39.2065 37.9742 39.2065 37.9742 39.2143 37.9664C39.4572 37.7236 39.6061 37.2144 39.7628 36.6739C39.9978 35.8671 40.2877 34.8645 41.0791 34.0734C42.983 32.17 44.7615 33.9167 45.5137 34.6609C46.2659 35.4285 48.0131 37.1987 46.1092 39.11C45.3178 39.9011 44.3149 40.1909 43.5079 40.4259C42.9673 40.5826 42.458 40.7314 42.2152 40.9742C42.2073 40.9821 42.2073 40.9821 42.1995 40.9899L49.0316 47.8516ZM32.3195 62.2799L46.7516 47.8516L40.4366 41.5382L40.4444 41.1936C40.4523 40.7001 40.6638 40.2301 41.0556 39.8385C41.5884 39.3058 42.3248 39.0865 43.0378 38.8828C43.7665 38.6713 44.4481 38.4755 44.9417 37.9742C45.4353 37.4807 45.6469 37.1361 44.3463 35.8123C43.03 34.512 42.6853 34.7314 42.1916 35.2248C41.698 35.7183 41.4943 36.4076 41.2828 37.1282C41.0791 37.841 40.8597 38.5773 40.3269 39.11C39.9352 39.5016 39.4651 39.7131 38.9715 39.721L38.6267 39.7288L32.3117 33.4154L26.6 39.1257C26.8585 39.345 27.3365 39.486 27.8457 39.6348C28.6527 39.8698 29.6556 40.1596 30.4469 40.9507C32.2882 42.7915 30.7212 44.5069 29.9377 45.3059L29.7653 45.4782C28.9661 46.2615 27.2503 47.8281 25.409 45.9873C24.6177 45.1962 24.3278 44.1936 24.0927 43.3868C23.9439 42.8777 23.8029 42.392 23.5835 42.1413L17.8717 47.8516L32.3195 62.2799Z" fill="#2E306C"/>
</svg>
