<svg width="58" height="28" viewBox="0 0 58 28" fill="none" xmlns="http://www.w3.org/2000/svg">
<path d="M24.3535 26.9297H15.21L15.3981 25.8801C18.0933 25.5824 18.3989 25.2456 18.2108 23.632C18.0228 22.0967 17.7251 20.2246 17.3882 18.0549H9.52185C8.88721 19.2533 7.61007 21.4231 6.74822 23.115C5.58864 25.3239 6.15275 25.5902 9.03603 25.8879L8.80884 26.9375H0.229492L0.495903 25.8879C2.89342 25.5902 3.37916 25.3631 5.22039 22.2926L16.7222 2.28715L17.9601 2.09912C19.6055 13.1123 20.436 18.1332 21.1803 22.6607C21.5955 25.2847 21.8933 25.6216 24.6277 25.8801L24.3535 26.9297ZM15.735 6.81459H15.6566C13.7449 10.3003 11.8332 13.7076 10.2975 16.551H17.1531L15.735 6.81459Z" fill="#2E306C"/>
<path d="M28.7332 1.23762C30.5666 1.04963 32.2198 0.634475 33.301 0.297657C33.8965 0.0705006 34.2021 0 34.4215 0C34.7584 0 34.7975 0.376015 34.6095 1.15931C33.3324 6.21941 32.3217 10.9348 31.311 15.5093C34.0846 11.9531 37.2656 10.0419 39.475 10.0419C41.6845 10.0419 42.1703 12.5171 42.1703 14.162C42.1703 18.6582 39.5847 23.1151 36.2862 25.324C33.9984 26.8593 32.0553 27.3841 30.7077 27.3841C29.7361 27.3841 28.9056 27.0865 28.2318 26.3737C27.4483 25.5512 26.845 24.0864 27.5971 20.3423C28.647 15.1333 29.885 9.70505 31.0446 4.01048C31.3423 2.51438 31.0837 2.43608 29.9555 2.32642C29.5402 2.28725 28.8664 2.24806 28.4982 2.24806L28.7332 1.23762ZM39.0754 14.7182C39.0754 13.3709 38.6994 12.2429 37.579 12.2429C36.3411 12.2429 34.4293 13.3317 32.1493 16.3239C31.1777 17.5616 30.6136 18.9088 30.3159 20.7417C29.7126 24.3762 30.8409 25.6451 32.4862 25.6451C36.4116 25.653 39.0754 18.7287 39.0754 14.7182Z" fill="#2E306C"/>
<path d="M56.6804 23.2561C54.3926 25.8801 51.6973 27.3762 49.1118 27.3762C46.6046 27.3762 44.8809 25.3945 44.8809 21.8304C44.8809 18.7208 46.158 15.1646 48.7043 12.8382C50.4672 11.1933 52.9039 10.0261 54.659 10.0261C56.3043 10.0261 57.5422 10.8878 57.5814 11.7494C57.6206 12.4622 57.0565 13.4335 56.3043 13.6998C55.9674 13.8486 55.7402 13.8095 55.4425 13.4727C54.5806 12.423 53.7579 11.8591 52.5984 11.8591C49.7464 11.8591 48.0305 16.5823 48.0305 21.0002C48.0305 23.7339 49.0805 25.1203 50.8042 25.1203C52.7943 25.1203 55.0037 23.4362 56.1241 22.2769L56.6804 23.2561Z" fill="#2E306C"/>
</svg>
