<?xml version="1.0" encoding="utf-8"?>
<!-- Generator: Adobe Illustrator 22.1.0, SVG Export Plug-In . SVG Version: 6.00 Build 0)  -->
<svg version="1.1" id="Layer_1" xmlns="http://www.w3.org/2000/svg" xmlns:xlink="http://www.w3.org/1999/xlink" x="0px" y="0px"
	 viewBox="0 0 167.1 147.7" width="68" height="60" style="enable-background:new 0 0 167.1 147.7;" xml:space="preserve">
<style type="text/css">
	.st0{fill-rule:evenodd;clip-rule:evenodd;fill:#2E306C;}
	.st1{fill-rule:evenodd;clip-rule:evenodd;fill:#CFEBE9;}
	.st2{fill-rule:evenodd;clip-rule:evenodd;fill:#FFFFFF;}
</style>
<g>
	<path class="st0" d="M83.5,83.5c-0.3,0-0.6-0.1-0.9-0.2l-55-32.1c-0.5-0.3-0.9-0.9-0.9-1.5c0-0.6,0.3-1.2,0.9-1.5l55-32.1
		c0.5-0.3,1.2-0.3,1.7,0l55,32.1c0.5,0.3,0.9,0.9,0.9,1.5c0,0.6-0.3,1.2-0.9,1.5l-55,32.1C84.1,83.4,83.8,83.5,83.5,83.5L83.5,83.5z
		 M31.9,49.6l51.6,30.1l51.6-30.1L83.5,19.5L31.9,49.6L31.9,49.6z"/>
	<path class="st0" d="M83.5,147.7c-0.3,0-0.6-0.1-0.9-0.2c-0.5-0.3-0.9-0.9-0.9-1.5V81.7c0-1,0.8-1.7,1.7-1.7c1,0,1.7,0.8,1.7,1.7
		V143l51.6-30.1V49.6c0-1,0.8-1.7,1.7-1.7c0.9,0,1.7,0.8,1.7,1.7v64.2c0,0.6-0.3,1.2-0.9,1.5l-55,32.1
		C84.1,147.6,83.8,147.7,83.5,147.7L83.5,147.7z"/>
	<path class="st0" d="M83.5,147.7c-0.3,0-0.6-0.1-0.9-0.2l-55-32.1c-0.5-0.3-0.9-0.9-0.9-1.5V49.6c0-1,0.8-1.7,1.7-1.7
		c1,0,1.7,0.8,1.7,1.7v63.3L81.7,143V81.7c0-1,0.8-1.7,1.7-1.7c1,0,1.7,0.8,1.7,1.7V146c0,0.6-0.3,1.2-0.9,1.5
		C84.1,147.6,83.8,147.7,83.5,147.7L83.5,147.7z"/>
	<polygon class="st1" points="164.6,64.9 109.5,97.1 83.5,81.6 138.6,49.5 164.6,64.9 	"/>
	<path class="st0" d="M109.5,98.8c-0.3,0-0.6-0.1-0.9-0.2l-26-15.5c-0.5-0.3-0.8-0.9-0.8-1.5c0-0.6,0.3-1.2,0.9-1.5l55-32.1
		c0.5-0.3,1.2-0.3,1.8,0l26,15.5c0.5,0.3,0.8,0.9,0.8,1.5s-0.3,1.2-0.9,1.5l-55,32.1C110.2,98.7,109.8,98.8,109.5,98.8L109.5,98.8z
		 M86.9,81.6l22.6,13.5l51.6-30.1l-22.6-13.5L86.9,81.6L86.9,81.6z"/>
	<path class="st0" d="M28.4,51c-0.3,0-0.6-0.1-0.9-0.2l-26-15.5c-0.5-0.3-0.8-0.9-0.8-1.5c0-0.6,0.3-1.2,0.9-1.5l55-32.1
		c0.5-0.3,1.2-0.3,1.8,0l26,15.5c0.5,0.3,0.8,0.9,0.8,1.5c0,0.6-0.3,1.2-0.9,1.5l-55,32.1C29,51,28.7,51,28.4,51L28.4,51z M5.7,33.9
		l22.6,13.5L80,17.2L57.4,3.7L5.7,33.9L5.7,33.9z"/>
	<polygon class="st1" points="83.5,81.9 56.8,97.5 1.7,65.4 28.4,49.8 83.5,81.9 	"/>
	<path class="st0" d="M56.8,99.2c-0.3,0-0.6-0.1-0.9-0.2l-55-32.1C0.3,66.6,0,66,0,65.4s0.3-1.2,0.9-1.5l26.7-15.6
		c0.5-0.3,1.2-0.3,1.7,0l55,32.1c0.5,0.3,0.9,0.9,0.9,1.5s-0.3,1.2-0.9,1.5L57.6,99C57.4,99.1,57,99.2,56.8,99.2L56.8,99.2z
		 M5.1,65.4l51.6,30.1l23.3-13.6L28.4,51.8L5.1,65.4L5.1,65.4z"/>
	<polygon class="st1" points="165.3,33.8 138.6,49.4 83.6,17.3 110.3,1.7 165.3,33.8 	"/>
	<path class="st0" d="M138.6,51.2c-0.3,0-0.6-0.1-0.9-0.2l-55-32.1c-0.5-0.3-0.9-0.9-0.9-1.5s0.3-1.2,0.9-1.5l26.7-15.6
		c0.5-0.3,1.2-0.3,1.7,0l55,32.1c0.5,0.3,0.9,0.9,0.9,1.5c0,0.6-0.3,1.2-0.9,1.5l-26.7,15.6C139.2,51.1,138.9,51.2,138.6,51.2
		L138.6,51.2z M87,17.3l51.6,30.1l23.3-13.6L110.3,3.7L87,17.3L87,17.3z"/>
	<path class="st1" d="M133.4,138.2c-2.4,0-4.7-1.1-6.1-3.2L96.6,90.1c-2.3-3.4-1.4-8,1.9-10.3c3.4-2.3,8-1.4,10.3,1.9l30.7,44.9
		c2.3,3.4,1.4,8-1.9,10.3C136.3,137.8,134.9,138.2,133.4,138.2L133.4,138.2z"/>
	<path class="st0" d="M133.4,134.8c-1.3,0-2.5-0.6-3.3-1.7L99.4,88.2c-1.2-1.8-0.8-4.3,1-5.5c1.8-1.2,4.3-0.8,5.5,1l30.7,44.9
		c1.2,1.8,0.8,4.3-1,5.5C135,134.5,134.2,134.8,133.4,134.8L133.4,134.8z"/>
	<path class="st2" d="M119.5,61.8c-3.7,19.4-22.4,32.3-41.9,28.6C58.1,86.7,45.3,68,49,48.6C52.6,29.1,71.4,16.3,90.9,20
		C110.3,23.6,123.2,42.4,119.5,61.8L119.5,61.8z"/>
	<path class="st1" d="M84.3,98.1c-2.7,0-5.3-0.3-8-0.8C53,93,37.6,70.5,42,47.2C46.4,24,68.9,8.7,92.2,13c11.3,2.1,21,8.5,27.5,17.9
		c6.5,9.5,8.9,20.9,6.7,32.1l-6.9-1.3l6.9,1.3c-2.1,11.3-8.5,21-18,27.5C101.2,95.5,92.9,98.1,84.3,98.1L84.3,98.1z M84.2,26.4
		c-13.6,0-25.7,9.7-28.3,23.5c-2.9,15.6,7.4,30.7,23,33.6c7.6,1.4,15.3-0.2,21.6-4.5c6.4-4.3,10.6-10.9,12.1-18.5
		c2.9-15.6-7.4-30.7-23-33.6C87.8,26.6,86,26.4,84.2,26.4L84.2,26.4z"/>
	<path class="st1" d="M119.5,61.8c-3.7,19.4-22.4,32.3-41.9,28.6C58.1,86.7,45.3,68,49,48.6C52.6,29.1,71.4,16.3,90.9,20
		C110.3,23.6,123.2,42.4,119.5,61.8L119.5,61.8z"/>
	<path class="st0" d="M84.3,93.4c-2.4,0-4.8-0.2-7.2-0.7c-20.8-3.9-34.5-23.9-30.6-44.7c3.9-20.7,24-34.4,44.7-30.5
		c20.8,3.9,34.5,23.9,30.6,44.6l-2.4-0.4l2.4,0.4c-1.9,10-7.6,18.7-16,24.5C99.4,91.2,91.9,93.4,84.3,93.4L84.3,93.4z M84.2,21.8
		C68.4,21.8,54.3,33,51.3,49c-1.7,8.8,0.2,17.7,5.3,25c5.1,7.4,12.7,12.3,21.5,14c8.8,1.7,17.7-0.2,25.1-5.3
		c7.4-5,12.4-12.7,14-21.4c3.4-18.1-8.6-35.6-26.7-39C88.3,21.9,86.3,21.8,84.2,21.8L84.2,21.8z"/>
	<path class="st2" d="M95.4,32.6c6.2,3,10.8,8.5,12.9,14.9L95.4,32.6L95.4,32.6z"/>
	<path class="st0" d="M108.3,49.9c-1,0-2-0.6-2.3-1.7c-1.9-5.9-6.1-10.8-11.7-13.5c-1.2-0.6-1.7-2-1.1-3.2c0.6-1.2,2-1.7,3.2-1.1
		c6.7,3.3,11.9,9.2,14.1,16.4c0.4,1.3-0.3,2.6-1.6,3C108.8,49.9,108.5,49.9,108.3,49.9L108.3,49.9z"/>
</g>
</svg>
