<svg width="44" height="44" viewBox="0 0 44 44" fill="none" xmlns="http://www.w3.org/2000/svg">
<path d="M21.9772 43.943C9.85645 43.943 0 34.0891 0 21.9715C0 9.85388 9.85645 0 21.9772 0C34.098 0 43.9545 9.85388 43.9545 21.9715C43.9545 34.0891 34.098 43.943 21.9772 43.943ZM21.9772 1.5666C10.7261 1.5666 1.567 10.7155 1.567 21.9715C1.567 33.2197 10.7183 42.3764 21.9772 42.3764C33.2283 42.3764 42.3796 33.2275 42.3796 21.9715C42.3874 10.7233 33.2283 1.5666 21.9772 1.5666Z" fill="#2E306C"/>
<path d="M25.5106 31.5043C23.0739 34.7707 20.0026 36.3294 18.5374 36.3294C17.2682 36.3294 16.7354 35.0605 17.6599 31.1597C18.4434 27.9403 19.8067 22.7236 20.7312 18.7757C20.9271 17.8514 20.8801 17.4128 20.5824 17.4128C20.0966 17.4128 18.6314 18.3841 17.3622 19.606L16.7275 18.3371C19.0154 15.854 22.3374 13.7548 23.8966 13.7548C25.1188 13.7548 25.1658 15.4154 24.2883 19.0186C23.3638 22.5277 22.1885 27.4547 21.311 30.909C20.9663 32.2249 20.9663 32.7576 21.311 32.7576C21.7968 32.7576 23.1131 32.0761 24.8211 30.2745L25.5106 31.5043ZM26.8739 5.96097C26.8739 7.47273 25.8005 8.78869 24.2883 8.78869C23.0661 8.78869 22.1415 7.91138 22.1415 6.59544C22.1415 5.32649 23.1131 3.72075 24.876 3.72075C26.1922 3.71291 26.8739 4.73902 26.8739 5.96097Z" fill="#2E306C"/>
</svg>
