<svg width="68" height="60" viewBox="0 0 68 60" fill="none" xmlns="http://www.w3.org/2000/svg">
<path d="M33.5421 33.5878C33.4246 33.5878 33.2992 33.5564 33.1973 33.4938L11.0869 20.5694C10.8754 20.444 10.7422 20.2169 10.7422 19.974C10.7422 19.7312 10.8754 19.5041 11.0869 19.3788L33.1973 6.45435C33.4089 6.32902 33.6831 6.32902 33.8946 6.45435L56.0051 19.3788C56.2166 19.5041 56.3498 19.7312 56.3498 19.974C56.3498 20.2169 56.2166 20.444 56.0051 20.5694L33.8946 33.4938C33.785 33.5564 33.6596 33.5878 33.5421 33.5878ZM12.8028 19.9662L33.5421 32.0917L54.2814 19.9662L33.5421 7.84077L12.8028 19.9662Z" fill="#2E306C"/>
<path d="M33.542 59.4365C33.4245 59.4365 33.307 59.4052 33.1973 59.3425C32.9857 59.2172 32.8525 58.9901 32.8525 58.7394V32.8906C32.8525 32.5068 33.1581 32.2013 33.542 32.2013C33.9259 32.2013 34.2315 32.5068 34.2315 32.8906V57.541L54.9551 45.4233V19.9662C54.9551 19.5823 55.2685 19.2769 55.6446 19.2769C56.0207 19.2769 56.3341 19.5823 56.3341 19.9662V45.815C56.3341 46.0578 56.2009 46.285 55.9893 46.4103L33.8789 59.3347C33.7849 59.4052 33.6595 59.4365 33.542 59.4365Z" fill="#2E306C"/>
<path d="M33.5421 59.4366C33.4246 59.4366 33.2992 59.4052 33.1895 59.3426L11.0791 46.4181C10.8676 46.2928 10.7344 46.0656 10.7344 45.8228V19.974C10.7344 19.5902 11.0399 19.2847 11.4239 19.2847C11.8078 19.2847 12.1133 19.5902 12.1133 19.974V45.4312L32.837 57.5488V32.8906C32.837 32.5068 33.1425 32.2013 33.5264 32.2013C33.9103 32.2013 34.2159 32.5068 34.2159 32.8906V58.7394C34.2159 58.9901 34.0827 59.2172 33.8712 59.3426C33.7771 59.4052 33.6596 59.4366 33.5421 59.4366Z" fill="#2E306C"/>
<path d="M66.1199 26.1308L44.0095 39.0552L33.5576 32.828L55.668 19.9036L66.1199 26.1308Z" fill="white"/>
<path d="M44.0096 39.7446C43.8842 39.7446 43.7667 39.7133 43.657 39.6506L33.2051 33.4234C32.9935 33.2981 32.8682 33.0709 32.8682 32.8281C32.8682 32.5853 33.0014 32.3581 33.2129 32.2328L55.3233 19.3084C55.5427 19.183 55.8091 19.183 56.0285 19.3084L66.4804 25.5356C66.6919 25.6609 66.8173 25.8881 66.8173 26.1309C66.8173 26.3737 66.6841 26.6009 66.4725 26.7262L44.3621 39.6506C44.2524 39.7133 44.1271 39.7446 44.0096 39.7446ZM34.9131 32.8359L44.0096 38.2563L64.7567 26.1309L55.6602 20.7105L34.9131 32.8359Z" fill="#2E306C"/>
<path d="M11.3924 20.5381C11.267 20.5381 11.1495 20.5067 11.0398 20.4441L0.587876 14.2168C0.376331 14.0915 0.250977 13.8644 0.250977 13.6215C0.250977 13.3787 0.384162 13.1516 0.595707 13.0262L22.7061 0.101808C22.9255 -0.0235194 23.1919 -0.0235194 23.4113 0.101808L33.8632 6.32904C34.0747 6.45437 34.2001 6.68151 34.2001 6.92433C34.2001 7.16715 34.0669 7.39432 33.8554 7.51964L11.7449 20.4441C11.6353 20.5067 11.5099 20.5381 11.3924 20.5381ZM2.29592 13.6294L11.3924 19.0498L32.1395 6.92433L23.043 1.50392L2.29592 13.6294Z" fill="#2E306C"/>
<path d="M33.5338 32.9532L22.7999 39.2353L0.689453 26.3108L11.4234 20.0288L33.5338 32.9532Z" fill="white"/>
<path d="M22.7999 39.9247C22.6824 39.9247 22.557 39.8933 22.4552 39.8307L0.344743 26.9063C0.133197 26.7809 0 26.5538 0 26.3109C0 26.0681 0.133197 25.841 0.344743 25.7157L11.0787 19.4336C11.2903 19.3083 11.5645 19.3083 11.776 19.4336L33.8864 32.358C34.098 32.4833 34.2312 32.7105 34.2312 32.9533C34.2312 33.1961 34.098 33.4233 33.8864 33.5486L23.1525 39.8307C23.0428 39.8933 22.9174 39.9247 22.7999 39.9247ZM2.06061 26.3109L22.7999 38.4364L32.1627 32.9612L11.4235 20.8357L2.06061 26.3109Z" fill="#2E306C"/>
<path d="M66.4254 13.6136L55.6914 19.8878L33.5889 6.96343L44.3228 0.689209L66.4254 13.6136Z" fill="white"/>
<path d="M55.6915 20.5851C55.574 20.5851 55.4486 20.5537 55.3389 20.4911L33.2285 7.56666C33.017 7.44133 32.8838 7.21417 32.8838 6.97135C32.8838 6.72853 33.017 6.50139 33.2285 6.37606L43.9625 0.0939957C44.174 -0.0313319 44.4483 -0.0313319 44.6598 0.0939957L66.7702 13.0184C66.9818 13.1437 67.115 13.3709 67.115 13.6137C67.115 13.8565 66.9818 14.0837 66.7702 14.209L56.0363 20.4911C55.9344 20.5537 55.8169 20.5851 55.6915 20.5851ZM34.9522 6.96353L55.6915 19.089L65.0544 13.6137L44.3151 1.48826L34.9522 6.96353Z" fill="#2E306C"/>
<path d="M53.5989 55.5985C52.6509 55.5985 51.7185 55.1442 51.1387 54.3061L38.8064 36.2589C37.8819 34.9038 38.2266 33.0553 39.5821 32.131C40.9375 31.2067 42.7866 31.5513 43.7111 32.9064L56.0434 50.9536C56.968 52.3087 56.6232 54.1573 55.2678 55.0816C54.7585 55.434 54.1787 55.5985 53.5989 55.5985Z" fill="white"/>
<path d="M53.599 54.2199C53.0897 54.2199 52.5961 53.9771 52.2827 53.5306L39.9504 35.4835C39.4568 34.7628 39.6448 33.768 40.3657 33.2746C41.0943 32.7811 42.0815 32.9691 42.5751 33.6897L54.9075 51.7369C55.4011 52.4575 55.2209 53.4523 54.4922 53.9458C54.218 54.1337 53.9046 54.2199 53.599 54.2199Z" fill="#2E306C"/>
<path d="M48.0133 24.8696C46.5404 32.6948 39.0031 37.8489 31.1759 36.3763C23.3487 34.9037 18.1933 27.3684 19.6663 19.5432C21.1392 11.7181 28.6765 6.56395 36.5037 8.03655C44.3309 9.50915 49.4785 17.0445 48.0133 24.8696Z" fill="white"/>
<path d="M33.8709 39.4624C32.7975 39.4624 31.7241 39.3606 30.6428 39.157C21.2878 37.4024 15.1138 28.3631 16.8767 19.0105C18.6317 9.66581 27.6734 3.48558 37.0284 5.24016C41.557 6.09396 45.4823 8.65534 48.0836 12.4622C50.6848 16.269 51.6485 20.8591 50.7945 25.3866L48.0131 24.8618L50.7945 25.3866C49.9405 29.914 47.3784 33.8384 43.5706 36.4389C40.6716 38.4363 37.3104 39.4624 33.8709 39.4624ZM33.8317 10.6214C28.3707 10.6214 23.4895 14.5066 22.4474 20.068C21.2643 26.3422 25.4169 32.4128 31.6927 33.5955C34.7327 34.1674 37.8197 33.5172 40.3739 31.7704C42.9281 30.0237 44.6518 27.384 45.2238 24.3448C46.4069 18.0628 42.2543 12 35.9785 10.8172C35.2577 10.6841 34.5368 10.6214 33.8317 10.6214Z" fill="white"/>
<path d="M48.0133 24.8696C46.5404 32.6948 39.0031 37.8489 31.1759 36.3763C23.3487 34.9037 18.1933 27.3684 19.6663 19.5432C21.1392 11.7181 28.6765 6.56395 36.5037 8.03655C44.3309 9.50915 49.4785 17.0445 48.0133 24.8696Z" fill="white"/>
<path d="M33.8706 37.5982C32.9148 37.5982 31.9511 37.5121 30.9952 37.3319C22.6587 35.7653 17.1429 27.7052 18.7177 19.3631C20.2847 11.0288 28.347 5.52222 36.6834 7.08882C45.0199 8.65541 50.5357 16.7155 48.9609 25.0498L48.0129 24.8697L48.9609 25.0498C48.2009 29.0916 45.9131 32.593 42.5205 34.9115C39.9271 36.6818 36.9341 37.5982 33.8706 37.5982ZM33.8315 8.75724C27.4929 8.75724 21.8282 13.269 20.6138 19.7234C19.9478 23.2561 20.7 26.8357 22.7292 29.7966C24.7585 32.7653 27.822 34.7627 31.3478 35.4285C34.8814 36.0943 38.462 35.3424 41.4236 33.3136C44.3931 31.2849 46.391 28.2222 47.057 24.6973C48.4281 17.4048 43.6096 10.363 36.323 8.99222C35.4847 8.82773 34.6541 8.75724 33.8315 8.75724Z" fill="#2E306C"/>
<path d="M38.3135 13.1045C40.805 14.3264 42.6697 16.5197 43.5003 19.1124L38.3135 13.1045Z" fill="white"/>
<path d="M43.5001 20.0759C43.0926 20.0759 42.7087 19.8175 42.5755 19.4023C41.8155 17.0368 40.1075 15.055 37.8824 13.9662C37.4044 13.7312 37.2007 13.1516 37.4358 12.6738C37.6708 12.196 38.2506 12.0001 38.7285 12.2351C41.416 13.5511 43.4922 15.9558 44.4089 18.8148C44.5735 19.324 44.2914 19.8723 43.7821 20.0289C43.6959 20.0603 43.5941 20.0759 43.5001 20.0759Z" fill="#2E306C"/>
</svg>
