<svg width="69" height="50" viewBox="0 0 69 50" fill="none" xmlns="http://www.w3.org/2000/svg">
<path d="M63.4262 35.7574H45.5232C45.0923 35.7574 44.7397 35.405 44.7397 34.9742C44.7397 34.5433 45.0923 34.1909 45.5232 34.1909H62.6427V3.45429H13.8619V22.6059C13.8619 23.0367 13.5093 23.3892 13.0784 23.3892C12.6475 23.3892 12.2949 23.0367 12.2949 22.6059V2.67099C12.2949 2.24018 12.6475 1.8877 13.0784 1.8877H63.4262C63.8571 1.8877 64.2097 2.24018 64.2097 2.67099V34.9742C64.2097 35.405 63.8571 35.7574 63.4262 35.7574Z" fill="#2E306C"/>
<path d="M26.4527 47.9458H11.7856C11.3703 47.9458 11.0256 47.6246 11.0021 47.2095L10.8219 44.139C8.72994 42.0789 4.74192 38.2564 4.70274 38.2173C4.42068 37.9431 4.38151 37.4966 4.61656 37.1833L13.7365 24.8934C13.8854 24.6975 14.1204 24.5801 14.3633 24.5801H25.2618C25.489 24.5801 25.7006 24.674 25.8495 24.8464L32.9088 32.836C33.7628 32.225 35.5022 30.9874 37.696 29.4757C39.7958 28.0344 42.0131 28.7864 43.0395 30.2355C43.9092 31.4574 44.0032 33.3765 42.1698 34.7237C40.6341 35.8517 39.1298 37.011 37.6647 38.1233C36.3406 39.1416 35.0948 40.0972 34.0371 40.8648C33.3397 41.3661 32.5327 41.5541 31.7022 41.3896C29.5711 40.9745 27.8082 38.4836 27.2206 37.575V47.1625C27.2441 47.5933 26.8915 47.9458 26.4527 47.9458ZM12.5299 46.3714H25.6771V34.669C25.6771 34.3086 25.9278 33.9875 26.2804 33.9091C26.633 33.823 27.0012 33.9953 27.1657 34.3243C27.1736 34.3321 27.5653 35.1154 28.5212 36.635C29.4144 38.0684 30.8482 39.6115 32.0313 39.8387C32.4465 39.917 32.7991 39.8387 33.1439 39.588C34.1859 38.8282 35.4239 37.8805 36.7401 36.87C38.2053 35.7499 39.7174 34.5828 41.2688 33.447C42.3187 32.6794 42.2246 31.7472 41.7859 31.1363C41.1826 30.2825 39.8976 29.883 38.6127 30.7603C35.4865 32.9065 33.3006 34.4966 33.2771 34.5123C32.948 34.7473 32.4936 34.7003 32.2272 34.3948L24.9328 26.1388H14.7786L6.30892 37.5515C7.49985 38.6951 10.5085 41.5933 12.1303 43.199C12.146 43.2147 12.1695 43.2382 12.1852 43.2539C12.2792 43.3479 12.3732 43.4419 12.4594 43.528C13.2899 44.3583 14.1518 43.5515 14.2458 43.4575C14.3398 43.3635 15.1547 42.5019 14.3241 41.6716L10.6574 38.0058C10.391 37.7394 10.3518 37.3165 10.5633 37.011L12.7415 33.8387C12.9844 33.4783 13.478 33.3922 13.8305 33.635C14.191 33.8778 14.2771 34.3713 14.0343 34.7237L12.2244 37.3557L15.4289 40.5593C16.7217 41.8518 16.3691 43.5515 15.3505 44.5698C14.614 45.3061 13.5171 45.6899 12.4751 45.3609L12.5299 46.3714Z" fill="#2E306C"/>
<path d="M21.6971 22.4806C18.3672 22.4806 15.6562 19.7704 15.6562 16.4413C15.6562 13.1123 18.3672 10.4021 21.6971 10.4021C25.0269 10.4021 27.7379 13.1123 27.7379 16.4413C27.7379 19.7704 25.0269 22.4806 21.6971 22.4806ZM21.6971 11.9765C19.229 11.9765 17.2311 13.9818 17.2311 16.4413C17.2311 18.9087 19.2369 20.9062 21.6971 20.9062C24.1573 20.9062 26.163 18.9009 26.163 16.4413C26.1709 13.9818 24.1651 11.9765 21.6971 11.9765Z" fill="#2E306C"/>
<path d="M49.7461 12.3918H37.8525V13.9584H49.7461V12.3918Z" fill="#2E306C"/>
<path d="M57.2839 12.3918H51.9326V13.9584H57.2839V12.3918Z" fill="#2E306C"/>
<path d="M57.2832 8.02881H45.3896V9.5954H57.2832V8.02881Z" fill="#2E306C"/>
<path d="M43.2038 8.02881H37.8525V9.5954H43.2038V8.02881Z" fill="#2E306C"/>
<path d="M42.0134 31.0028C41.8881 31.0028 41.7549 30.9715 41.6374 30.9088C41.2535 30.6973 41.1124 30.2274 41.324 29.8435L47.2708 18.9478C47.4745 18.564 47.9524 18.423 48.3363 18.6345C48.7202 18.846 48.8534 19.316 48.6497 19.6998L42.7029 30.6034C42.5619 30.854 42.2955 31.0028 42.0134 31.0028Z" fill="#2E306C"/>
<path d="M63.4888 49.7473C62.956 49.7473 62.4233 49.5828 61.961 49.246L1.05943 4.67627C-0.0923213 3.83031 -0.343043 2.20888 0.495304 1.05743C1.34149 -0.0940157 2.96333 -0.344641 4.11508 0.501322L65.0245 45.071C66.1762 45.917 66.4269 47.5384 65.5808 48.6898C65.0793 49.3791 64.288 49.7473 63.4888 49.7473Z" fill="white"/>
<path d="M63.4969 47.9456C63.3324 47.9456 63.1757 47.8986 63.0347 47.7968L2.12526 3.22717C1.77268 2.96868 1.70217 2.48302 1.95289 2.13053C2.21144 1.77805 2.69721 1.70757 3.04979 1.95823L63.9592 46.5279C64.3118 46.7863 64.3823 47.2798 64.1316 47.6245C63.9749 47.836 63.732 47.9456 63.4969 47.9456Z" fill="#2E306C"/>
<path d="M5.25941 49.7473C4.46024 49.7473 3.67674 49.3791 3.16746 48.6898C2.32128 47.5384 2.57199 45.917 3.72374 45.071L64.6332 0.501322C65.7849 -0.344641 67.4067 -0.0940157 68.2529 1.05743C69.0991 2.20888 68.8484 3.83031 67.6966 4.67627L6.78723 49.246C6.32497 49.5906 5.79219 49.7473 5.25941 49.7473Z" fill="white"/>
<path d="M5.25888 47.9456C5.016 47.9456 4.78095 47.8359 4.62425 47.6244C4.36569 47.2719 4.44403 46.7863 4.79661 46.5278L65.706 1.9582C66.0586 1.69971 66.5444 1.77802 66.8029 2.1305C67.0615 2.48298 66.9831 2.96865 66.6306 3.22714L5.72115 47.7967C5.58012 47.8986 5.41558 47.9456 5.25888 47.9456Z" fill="#2E306C"/>
</svg>
