<svg width="66" height="53" viewBox="0 0 66 53" fill="none" xmlns="http://www.w3.org/2000/svg">
<path d="M62.6554 45.1964H26.5517C25.251 45.1964 24.1934 44.1389 24.1934 42.8386V32.9612C24.1934 31.661 25.251 30.6035 26.5517 30.6035H62.6554C63.956 30.6035 65.0138 31.661 65.0138 32.9612V42.8465C65.0138 44.1389 63.956 45.1964 62.6554 45.1964ZM26.5517 32.1701C26.1207 32.1701 25.7682 32.5226 25.7682 32.9534V42.8386C25.7682 43.2694 26.1207 43.6219 26.5517 43.6219H62.6554C63.0863 43.6219 63.4389 43.2694 63.4389 42.8386V32.9612C63.4389 32.5304 63.0863 32.1779 62.6554 32.1779H26.5517V32.1701Z" fill="#2E306C"/>
<path d="M23.4096 45.1963H4.57417C3.27356 45.1963 2.21582 44.1389 2.21582 42.8386V36.5017C2.21582 35.4913 2.6546 34.0343 3.21088 33.1884L10.0274 22.8488C10.6542 21.901 11.9783 21.1882 13.1144 21.1882H23.4096C24.7102 21.1882 25.7679 22.2457 25.7679 23.546V42.8464C25.7679 44.1389 24.7102 45.1963 23.4096 45.1963ZM13.1144 22.7548C12.5111 22.7548 11.6649 23.2091 11.3358 23.7105L4.51932 34.05C4.12757 34.6453 3.78283 35.7889 3.78283 36.5017V42.8386C3.78283 43.2694 4.1354 43.6219 4.56633 43.6219H23.4018C23.8327 43.6219 24.1853 43.2694 24.1853 42.8386V23.5381C24.1853 23.1073 23.8327 22.7548 23.4018 22.7548H13.1144Z" fill="#2E306C"/>
<path d="M15.2534 35.1544H3.16401C1.8634 35.1544 0.805664 34.0969 0.805664 32.7966V27.3057C0.805664 26.0054 1.8634 24.948 3.16401 24.948H15.2534C16.5541 24.948 17.6118 26.0054 17.6118 27.3057V32.7966C17.604 34.0969 16.5462 35.1544 15.2534 35.1544ZM3.16401 26.5224C2.73309 26.5224 2.38051 26.8749 2.38051 27.3057V32.7966C2.38051 33.2275 2.73309 33.5799 3.16401 33.5799H15.2534C15.6844 33.5799 16.0369 33.2275 16.0369 32.7966V27.3057C16.0369 26.8749 15.6844 26.5224 15.2534 26.5224H3.16401Z" fill="#2E306C"/>
<path d="M20.2755 45.9797C20.2755 42.6898 17.6037 40.0188 14.313 40.0188C11.0145 40.0188 8.35059 42.6898 8.35059 45.9797C8.35059 49.2774 11.0223 51.9406 14.313 51.9406C17.6037 51.9484 20.2755 49.2774 20.2755 45.9797Z" fill="#CFEBE9"/>
<path d="M14.3056 52.7316C10.5839 52.7316 7.55176 49.708 7.55176 45.9874C7.55176 42.2667 10.5839 39.2354 14.3056 39.2354C18.0272 39.2354 21.0515 42.2589 21.0515 45.9874C21.0593 49.7002 18.0272 52.7316 14.3056 52.7316ZM14.3056 40.8019C11.4458 40.8019 9.1266 43.1283 9.1266 45.9795C9.1266 48.8308 11.4536 51.1572 14.3056 51.1572C17.1653 51.1572 19.4845 48.8308 19.4845 45.9795C19.4845 43.1283 17.1653 40.8019 14.3056 40.8019Z" fill="#2E306C"/>
<path d="M15.4106 45.9797C15.4106 45.3765 14.917 44.8831 14.3137 44.8831C13.7104 44.8831 13.2168 45.3765 13.2168 45.9797C13.2168 46.5828 13.7104 47.0763 14.3137 47.0763C14.917 47.0841 15.4106 46.5906 15.4106 45.9797Z" fill="#2E306C"/>
<path d="M57.7902 45.9797C57.7902 42.6898 55.1184 40.0188 51.8277 40.0188C48.5291 40.0188 45.8652 42.6898 45.8652 45.9797C45.8652 49.2774 48.537 51.9406 51.8277 51.9406C55.1184 51.9484 57.7902 49.2774 57.7902 45.9797Z" fill="#CFEBE9"/>
<path d="M51.827 52.7316C48.1054 52.7316 45.0732 49.708 45.0732 45.9874C45.0732 42.2667 48.1054 39.2354 51.827 39.2354C55.5486 39.2354 58.573 42.2589 58.573 45.9874C58.573 49.7002 55.5486 52.7316 51.827 52.7316ZM51.827 40.8019C48.9672 40.8019 46.6481 43.1283 46.6481 45.9795C46.6481 48.8308 48.9672 51.1572 51.827 51.1572C54.6868 51.1572 57.006 48.8308 57.006 45.9795C57.006 43.1283 54.679 40.8019 51.827 40.8019Z" fill="#2E306C"/>
<path d="M52.9243 45.9797C52.9243 45.3765 52.4306 44.8831 51.8273 44.8831C51.224 44.8831 50.7305 45.3765 50.7305 45.9797C50.7305 46.5828 51.224 47.0763 51.8273 47.0763C52.4306 47.0841 52.9243 46.5906 52.9243 45.9797Z" fill="#2E306C"/>
<path d="M31.887 32.0134H29.0585C27.7579 32.0134 26.7002 30.9559 26.7002 29.6556V26.8279C26.7002 25.5276 27.7579 24.478 29.0585 24.478H31.887C33.1876 24.478 34.2453 25.5355 34.2453 26.8279V29.6556C34.2453 30.9559 33.1876 32.0134 31.887 32.0134ZM29.0664 26.0525C28.6355 26.0525 28.2829 26.4049 28.2829 26.8358V29.6635C28.2829 30.0943 28.6355 30.4468 29.0664 30.4468H31.8948C32.3257 30.4468 32.6783 30.0943 32.6783 29.6635V26.8358C32.6783 26.4049 32.3257 26.0525 31.8948 26.0525H29.0664Z" fill="#2E306C"/>
<path d="M37.8577 32.0134H35.0292C33.7286 32.0134 32.6709 30.9559 32.6709 29.6556V26.8279C32.6709 25.5276 33.7286 24.478 35.0292 24.478H37.8577C39.1583 24.478 40.216 25.5355 40.216 26.8279V29.6556C40.2081 30.9559 39.1505 32.0134 37.8577 32.0134ZM35.0292 26.0525C34.5983 26.0525 34.2457 26.4049 34.2457 26.8358V29.6635C34.2457 30.0943 34.5983 30.4468 35.0292 30.4468H37.8577C38.2886 30.4468 38.6412 30.0943 38.6412 29.6635V26.8358C38.6412 26.4049 38.2886 26.0525 37.8577 26.0525H35.0292Z" fill="#2E306C"/>
<path d="M43.8196 32.0134H40.9912C39.6905 32.0134 38.6328 30.9559 38.6328 29.6556V26.8279C38.6328 25.5276 39.6905 24.478 40.9912 24.478H43.8196C45.1202 24.478 46.1779 25.5355 46.1779 26.8279V29.6556C46.1701 30.9559 45.1202 32.0134 43.8196 32.0134ZM40.9912 26.0525C40.5602 26.0525 40.2077 26.4049 40.2077 26.8358V29.6635C40.2077 30.0943 40.5602 30.4468 40.9912 30.4468H43.8196C44.2505 30.4468 44.6031 30.0943 44.6031 29.6635V26.8358C44.6031 26.4049 44.2505 26.0525 43.8196 26.0525H40.9912Z" fill="#2E306C"/>
<path d="M49.7825 32.0134H46.9541C45.6534 32.0134 44.5957 30.9559 44.5957 29.6556V26.8279C44.5957 25.5276 45.6534 24.478 46.9541 24.478H49.7825C51.0831 24.478 52.1409 25.5355 52.1409 26.8279V29.6556C52.1409 30.9559 51.0831 32.0134 49.7825 32.0134ZM46.9619 26.0525C46.531 26.0525 46.1784 26.4049 46.1784 26.8358V29.6635C46.1784 30.0943 46.531 30.4468 46.9619 30.4468H49.7904C50.2213 30.4468 50.5739 30.0943 50.5739 29.6635V26.8358C50.5739 26.4049 50.2213 26.0525 49.7904 26.0525H46.9619Z" fill="#2E306C"/>
<path d="M55.7532 32.0134H52.9248C51.6241 32.0134 50.5664 30.9559 50.5664 29.6556V26.8279C50.5664 25.5276 51.6241 24.478 52.9248 24.478H55.7532C57.0538 24.478 58.1115 25.5355 58.1115 26.8279V29.6556C58.1037 30.9559 57.046 32.0134 55.7532 32.0134ZM52.9248 26.0525C52.4938 26.0525 52.1413 26.4049 52.1413 26.8358V29.6635C52.1413 30.0943 52.4938 30.4468 52.9248 30.4468H55.7532C56.1841 30.4468 56.5367 30.0943 56.5367 29.6635V26.8358C56.5367 26.4049 56.1841 26.0525 55.7532 26.0525H52.9248Z" fill="#2E306C"/>
<path d="M61.7151 32.0134H58.8867C57.5861 32.0134 56.5283 30.9559 56.5283 29.6556V26.8279C56.5283 25.5276 57.5861 24.478 58.8867 24.478H61.7151C63.0157 24.478 64.0734 25.5355 64.0734 26.8279V29.6556C64.0656 30.9559 63.0157 32.0134 61.7151 32.0134ZM58.8867 26.0525C58.4557 26.0525 58.1032 26.4049 58.1032 26.8358V29.6635C58.1032 30.0943 58.4557 30.4468 58.8867 30.4468H61.7151C62.146 30.4468 62.4986 30.0943 62.4986 29.6635V26.8358C62.4986 26.4049 62.146 26.0525 61.7151 26.0525H58.8867Z" fill="#2E306C"/>
<path d="M31.887 25.8959H29.0585C27.7579 25.8959 26.7002 24.8385 26.7002 23.5382V20.7183C26.7002 19.418 27.7579 18.3606 29.0585 18.3606H31.887C33.1876 18.3606 34.2453 19.418 34.2453 20.7183V23.546C34.2453 24.8385 33.1876 25.8959 31.887 25.8959ZM29.0664 19.935C28.6355 19.935 28.2829 20.2875 28.2829 20.7183V23.546C28.2829 23.9768 28.6355 24.3293 29.0664 24.3293H31.8948C32.3257 24.3293 32.6783 23.9768 32.6783 23.546V20.7183C32.6783 20.2875 32.3257 19.935 31.8948 19.935H29.0664Z" fill="#2E306C"/>
<path d="M37.8577 25.8959H35.0292C33.7286 25.8959 32.6709 24.8385 32.6709 23.5382V20.7183C32.6709 19.418 33.7286 18.3606 35.0292 18.3606H37.8577C39.1583 18.3606 40.216 19.418 40.216 20.7183V23.546C40.2081 24.8385 39.1505 25.8959 37.8577 25.8959ZM35.0292 19.935C34.5983 19.935 34.2457 20.2875 34.2457 20.7183V23.546C34.2457 23.9768 34.5983 24.3293 35.0292 24.3293H37.8577C38.2886 24.3293 38.6412 23.9768 38.6412 23.546V20.7183C38.6412 20.2875 38.2886 19.935 37.8577 19.935H35.0292Z" fill="#2E306C"/>
<path d="M43.8196 25.8959H40.9912C39.6905 25.8959 38.6328 24.8385 38.6328 23.5382V20.7183C38.6328 19.418 39.6905 18.3606 40.9912 18.3606H43.8196C45.1202 18.3606 46.1779 19.418 46.1779 20.7183V23.546C46.1701 24.8385 45.1202 25.8959 43.8196 25.8959ZM40.9912 19.935C40.5602 19.935 40.2077 20.2875 40.2077 20.7183V23.546C40.2077 23.9768 40.5602 24.3293 40.9912 24.3293H43.8196C44.2505 24.3293 44.6031 23.9768 44.6031 23.546V20.7183C44.6031 20.2875 44.2505 19.935 43.8196 19.935H40.9912Z" fill="#2E306C"/>
<path d="M49.7825 25.8959H46.9541C45.6534 25.8959 44.5957 24.8385 44.5957 23.5382V20.7183C44.5957 19.418 45.6534 18.3606 46.9541 18.3606H49.7825C51.0831 18.3606 52.1409 19.418 52.1409 20.7183V23.546C52.1409 24.8385 51.0831 25.8959 49.7825 25.8959ZM46.9619 19.935C46.531 19.935 46.1784 20.2875 46.1784 20.7183V23.546C46.1784 23.9768 46.531 24.3293 46.9619 24.3293H49.7904C50.2213 24.3293 50.5739 23.9768 50.5739 23.546V20.7183C50.5739 20.2875 50.2213 19.935 49.7904 19.935H46.9619Z" fill="#2E306C"/>
<path d="M55.7532 25.8959H52.9248C51.6241 25.8959 50.5664 24.8385 50.5664 23.5382V20.7183C50.5664 19.418 51.6241 18.3606 52.9248 18.3606H55.7532C57.0538 18.3606 58.1115 19.418 58.1115 20.7183V23.546C58.1037 24.8385 57.046 25.8959 55.7532 25.8959ZM52.9248 19.935C52.4938 19.935 52.1413 20.2875 52.1413 20.7183V23.546C52.1413 23.9768 52.4938 24.3293 52.9248 24.3293H55.7532C56.1841 24.3293 56.5367 23.9768 56.5367 23.546V20.7183C56.5367 20.2875 56.1841 19.935 55.7532 19.935H52.9248Z" fill="#2E306C"/>
<path d="M61.7151 25.8959H58.8867C57.5861 25.8959 56.5283 24.8385 56.5283 23.5382V20.7183C56.5283 19.418 57.5861 18.3606 58.8867 18.3606H61.7151C63.0157 18.3606 64.0734 19.418 64.0734 20.7183V23.546C64.0656 24.8385 63.0157 25.8959 61.7151 25.8959ZM58.8867 19.935C58.4557 19.935 58.1032 20.2875 58.1032 20.7183V23.546C58.1032 23.9768 58.4557 24.3293 58.8867 24.3293H61.7151C62.146 24.3293 62.4986 23.9768 62.4986 23.546V20.7183C62.4986 20.2875 62.146 19.935 61.7151 19.935H58.8867Z" fill="#2E306C"/>
<path d="M31.887 19.7783H29.0585C27.7579 19.7783 26.7002 18.7208 26.7002 17.4205V14.5928C26.7002 13.2926 27.7579 12.2351 29.0585 12.2351H31.887C33.1876 12.2351 34.2453 13.2926 34.2453 14.5928V17.4205C34.2453 18.7208 33.1876 19.7783 31.887 19.7783ZM29.0664 13.8095C28.6355 13.8095 28.2829 14.162 28.2829 14.5928V17.4205C28.2829 17.8514 28.6355 18.2038 29.0664 18.2038H31.8948C32.3257 18.2038 32.6783 17.8514 32.6783 17.4205V14.5928C32.6783 14.162 32.3257 13.8095 31.8948 13.8095H29.0664Z" fill="#2E306C"/>
<path d="M37.8577 19.7783H35.0292C33.7286 19.7783 32.6709 18.7208 32.6709 17.4205V14.5928C32.6709 13.2926 33.7286 12.2351 35.0292 12.2351H37.8577C39.1583 12.2351 40.216 13.2926 40.216 14.5928V17.4205C40.2081 18.7208 39.1505 19.7783 37.8577 19.7783ZM35.0292 13.8095C34.5983 13.8095 34.2457 14.162 34.2457 14.5928V17.4205C34.2457 17.8514 34.5983 18.2038 35.0292 18.2038H37.8577C38.2886 18.2038 38.6412 17.8514 38.6412 17.4205V14.5928C38.6412 14.162 38.2886 13.8095 37.8577 13.8095H35.0292Z" fill="#2E306C"/>
<path d="M43.8196 19.7783H40.9912C39.6905 19.7783 38.6328 18.7208 38.6328 17.4205V14.5928C38.6328 13.2926 39.6905 12.2351 40.9912 12.2351H43.8196C45.1202 12.2351 46.1779 13.2926 46.1779 14.5928V17.4205C46.1701 18.7208 45.1202 19.7783 43.8196 19.7783ZM40.9912 13.8095C40.5602 13.8095 40.2077 14.162 40.2077 14.5928V17.4205C40.2077 17.8514 40.5602 18.2038 40.9912 18.2038H43.8196C44.2505 18.2038 44.6031 17.8514 44.6031 17.4205V14.5928C44.6031 14.162 44.2505 13.8095 43.8196 13.8095H40.9912Z" fill="#2E306C"/>
<path d="M49.7825 19.7783H46.9541C45.6534 19.7783 44.5957 18.7208 44.5957 17.4205V14.5928C44.5957 13.2926 45.6534 12.2351 46.9541 12.2351H49.7825C51.0831 12.2351 52.1409 13.2926 52.1409 14.5928V17.4205C52.1409 18.7208 51.0831 19.7783 49.7825 19.7783ZM46.9619 13.8095C46.531 13.8095 46.1784 14.162 46.1784 14.5928V17.4205C46.1784 17.8514 46.531 18.2038 46.9619 18.2038H49.7904C50.2213 18.2038 50.5739 17.8514 50.5739 17.4205V14.5928C50.5739 14.162 50.2213 13.8095 49.7904 13.8095H46.9619Z" fill="#2E306C"/>
<path d="M55.7532 19.7783H52.9248C51.6241 19.7783 50.5664 18.7208 50.5664 17.4205V14.5928C50.5664 13.2926 51.6241 12.2351 52.9248 12.2351H55.7532C57.0538 12.2351 58.1115 13.2926 58.1115 14.5928V17.4205C58.1037 18.7208 57.046 19.7783 55.7532 19.7783ZM52.9248 13.8095C52.4938 13.8095 52.1413 14.162 52.1413 14.5928V17.4205C52.1413 17.8514 52.4938 18.2038 52.9248 18.2038H55.7532C56.1841 18.2038 56.5367 17.8514 56.5367 17.4205V14.5928C56.5367 14.162 56.1841 13.8095 55.7532 13.8095H52.9248Z" fill="#2E306C"/>
<path d="M61.7151 19.7783H58.8867C57.5861 19.7783 56.5283 18.7208 56.5283 17.4205V14.5928C56.5283 13.2926 57.5861 12.2351 58.8867 12.2351H61.7151C63.0157 12.2351 64.0734 13.2926 64.0734 14.5928V17.4205C64.0656 18.7208 63.0157 19.7783 61.7151 19.7783ZM58.8867 13.8095C58.4557 13.8095 58.1032 14.162 58.1032 14.5928V17.4205C58.1032 17.8514 58.4557 18.2038 58.8867 18.2038H61.7151C62.146 18.2038 62.4986 17.8514 62.4986 17.4205V14.5928C62.4986 14.162 62.146 13.8095 61.7151 13.8095H58.8867Z" fill="#2E306C"/>
<path d="M37.8577 13.6528H35.0292C33.7286 13.6528 32.6709 12.5953 32.6709 11.2951V8.46735C32.6709 7.16707 33.7286 6.10962 35.0292 6.10962H37.8577C39.1583 6.10962 40.216 7.16707 40.216 8.46735V11.2951C40.2081 12.5953 39.1505 13.6528 37.8577 13.6528ZM35.0292 7.69188C34.5983 7.69188 34.2457 8.04436 34.2457 8.47518V11.3029C34.2457 11.7337 34.5983 12.0862 35.0292 12.0862H37.8577C38.2886 12.0862 38.6412 11.7337 38.6412 11.3029V8.47518C38.6412 8.04436 38.2886 7.69188 37.8577 7.69188H35.0292Z" fill="#2E306C"/>
<path d="M43.8196 13.6528H40.9912C39.6905 13.6528 38.6328 12.5953 38.6328 11.2951V8.46735C38.6328 7.16707 39.6905 6.10962 40.9912 6.10962H43.8196C45.1202 6.10962 46.1779 7.16707 46.1779 8.46735V11.2951C46.1701 12.5953 45.1202 13.6528 43.8196 13.6528ZM40.9912 7.69188C40.5602 7.69188 40.2077 8.04436 40.2077 8.47518V11.3029C40.2077 11.7337 40.5602 12.0862 40.9912 12.0862H43.8196C44.2505 12.0862 44.6031 11.7337 44.6031 11.3029V8.47518C44.6031 8.04436 44.2505 7.69188 43.8196 7.69188H40.9912Z" fill="#2E306C"/>
<path d="M49.7825 13.6528H46.9541C45.6534 13.6528 44.5957 12.5953 44.5957 11.2951V8.46735C44.5957 7.16707 45.6534 6.10962 46.9541 6.10962H49.7825C51.0831 6.10962 52.1409 7.16707 52.1409 8.46735V11.2951C52.1409 12.5953 51.0831 13.6528 49.7825 13.6528ZM46.9619 7.69188C46.531 7.69188 46.1784 8.04436 46.1784 8.47518V11.3029C46.1784 11.7337 46.531 12.0862 46.9619 12.0862H49.7904C50.2213 12.0862 50.5739 11.7337 50.5739 11.3029V8.47518C50.5739 8.04436 50.2213 7.69188 49.7904 7.69188H46.9619Z" fill="#2E306C"/>
<path d="M55.7532 13.6528H52.9248C51.6241 13.6528 50.5664 12.5953 50.5664 11.2951V8.46735C50.5664 7.16707 51.6241 6.10962 52.9248 6.10962H55.7532C57.0538 6.10962 58.1115 7.16707 58.1115 8.46735V11.2951C58.1037 12.5953 57.046 13.6528 55.7532 13.6528ZM52.9248 7.69188C52.4938 7.69188 52.1413 8.04436 52.1413 8.47518V11.3029C52.1413 11.7337 52.4938 12.0862 52.9248 12.0862H55.7532C56.1841 12.0862 56.5367 11.7337 56.5367 11.3029V8.47518C56.5367 8.04436 56.1841 7.69188 55.7532 7.69188H52.9248Z" fill="#2E306C"/>
<path d="M43.8196 7.53533H40.9912C39.6905 7.53533 38.6328 6.47788 38.6328 5.1776V2.34989C38.6328 1.04962 39.6905 0 40.9912 0H43.8196C45.1202 0 46.1779 1.05745 46.1779 2.34989V5.1776C46.1701 6.47788 45.1202 7.53533 43.8196 7.53533ZM40.9912 1.57443C40.5602 1.57443 40.2077 1.92691 40.2077 2.35773V5.18544C40.2077 5.61625 40.5602 5.96873 40.9912 5.96873H43.8196C44.2505 5.96873 44.6031 5.61625 44.6031 5.18544V2.35773C44.6031 1.92691 44.2505 1.57443 43.8196 1.57443H40.9912Z" fill="#2E306C"/>
<path d="M49.7825 7.53533H46.9541C45.6534 7.53533 44.5957 6.47788 44.5957 5.1776V2.34989C44.5957 1.04962 45.6534 0 46.9541 0H49.7825C51.0831 0 52.1409 1.05745 52.1409 2.34989V5.1776C52.1409 6.47788 51.0831 7.53533 49.7825 7.53533ZM46.9619 1.57443C46.531 1.57443 46.1784 1.92691 46.1784 2.35773V5.18544C46.1784 5.61625 46.531 5.96873 46.9619 5.96873H49.7904C50.2213 5.96873 50.5739 5.61625 50.5739 5.18544V2.35773C50.5739 1.92691 50.2213 1.57443 49.7904 1.57443H46.9619Z" fill="#2E306C"/>
</svg>
