<svg width="61" height="47" viewBox="0 0 61 47" fill="none" xmlns="http://www.w3.org/2000/svg">
<path d="M59.7134 33.8698H41.8104C41.3794 33.8698 41.0269 33.5173 41.0269 33.0865C41.0269 32.6557 41.3794 32.3032 41.8104 32.3032H58.9299V1.5666H10.149V20.7183C10.149 21.1491 9.79646 21.5015 9.36553 21.5015C8.93461 21.5015 8.58203 21.1491 8.58203 20.7183V0.783298C8.58203 0.352484 8.93461 0 9.36553 0H59.7134C60.1443 0 60.4969 0.352484 60.4969 0.783298V33.0865C60.4969 33.5173 60.1521 33.8698 59.7134 33.8698Z" fill="#2E306C"/>
<path d="M22.7477 46.0579H8.08055C7.66529 46.0579 7.32055 45.7368 7.29705 45.3216L7.11681 42.2511C5.03269 40.191 1.03683 36.3685 0.997657 36.3294C0.715597 36.0552 0.676433 35.6166 0.911484 35.2954L10.0315 23.0055C10.1803 22.8018 10.4154 22.6843 10.6583 22.6843H21.5568C21.784 22.6843 21.9956 22.7783 22.1444 22.9506L29.2037 30.9403C30.0578 30.3293 31.7972 29.0917 33.991 27.5799C36.0908 26.1387 38.308 26.8906 39.3344 28.3397C40.1963 29.5617 40.2981 31.4807 38.4647 32.828C36.9291 33.956 35.4169 35.1153 33.9596 36.2354C32.6355 37.2458 31.3897 38.2093 30.332 38.9769C29.6347 39.4782 28.8355 39.6662 27.9972 39.5017C25.866 39.0866 24.0953 36.5957 23.5155 35.6871V45.2825C23.5312 45.7054 23.1786 46.0579 22.7477 46.0579ZM8.81704 44.4913H21.9642V32.7888C21.9642 32.4285 22.2149 32.1074 22.5675 32.0291C22.9201 31.9429 23.2883 32.1152 23.4529 32.4442C23.4529 32.452 23.8524 33.2353 24.8005 34.7549C25.6936 36.1884 27.1275 37.7315 28.3106 37.9586C28.718 38.037 29.0784 37.9586 29.4231 37.708C30.4652 36.9482 31.7031 36.0004 33.0194 34.9899C34.4845 33.862 35.9967 32.7027 37.548 31.5669C38.5901 30.7993 38.5039 29.8671 38.0651 29.2562C37.4618 28.4024 36.1769 28.0029 34.892 28.8802C31.7658 31.0264 29.5798 32.6165 29.5563 32.6322C29.2272 32.8672 28.7728 32.8202 28.5065 32.5147L21.2042 24.2587H11.05L2.58035 35.6714C3.77127 36.815 6.77991 39.7132 8.40176 41.319C8.42527 41.3346 8.44094 41.3581 8.45661 41.3738C8.55063 41.4678 8.64463 41.5618 8.73082 41.6479C9.56133 42.4782 10.4232 41.6715 10.5172 41.5696C10.6112 41.4756 11.4261 40.614 10.5956 39.7837L6.92877 36.1179C6.66238 35.8515 6.62321 35.4286 6.83476 35.1153L9.01292 31.9429C9.2558 31.5826 9.74937 31.4964 10.1019 31.7393C10.4624 31.9821 10.5486 32.4755 10.3057 32.828L8.49578 35.4599L11.7003 38.6636C12.9931 39.956 12.6405 41.6558 11.6219 42.6741C10.8855 43.4104 9.78856 43.7942 8.74651 43.4652L8.81704 44.4913Z" fill="#2E306C"/>
<path d="M17.9919 20.5928C14.6621 20.5928 11.9512 17.8827 11.9512 14.5536C11.9512 11.2246 14.6621 8.5144 17.9919 8.5144C21.3218 8.5144 24.0327 11.2246 24.0327 14.5536C24.0249 17.8827 21.3218 20.5928 17.9919 20.5928ZM17.9919 10.0888C15.5239 10.0888 13.526 12.0941 13.526 14.5536C13.526 17.021 15.5317 19.0184 17.9919 19.0184C20.4521 19.0184 22.4579 17.0132 22.4579 14.5536C22.4579 12.0941 20.4521 10.0888 17.9919 10.0888Z" fill="#2E306C"/>
<path d="M46.042 10.5042H34.1484V12.0707H46.042V10.5042Z" fill="#2E306C"/>
<path d="M53.5701 10.5042H48.2188V12.0707H53.5701V10.5042Z" fill="#2E306C"/>
<path d="M53.5713 6.14111H41.6777V7.7077H53.5713V6.14111Z" fill="#2E306C"/>
<path d="M39.4998 6.14111H34.1484V7.7077H39.4998V6.14111Z" fill="#2E306C"/>
<path d="M38.3083 29.1153C38.183 29.1153 38.0498 29.084 37.9323 29.0213C37.5484 28.8098 37.4074 28.3398 37.6189 27.956L43.5656 17.0604C43.7772 16.6766 44.2473 16.5355 44.6312 16.747C45.0151 16.9585 45.1562 17.4285 44.9446 17.8123L38.9978 28.7158C38.8568 28.9665 38.5826 29.1153 38.3083 29.1153Z" fill="#2E306C"/>
</svg>
