<svg width="69" height="28" viewBox="0 0 69 28" fill="none" xmlns="http://www.w3.org/2000/svg">
<path d="M28.4853 26.9298H19.3419L19.5299 25.8803C22.2252 25.5826 22.5307 25.2458 22.3427 23.6322C22.1547 22.0969 21.8569 20.2248 21.52 18.0551H13.6537C13.019 19.2535 11.7419 21.4233 10.8801 23.1152C9.72048 25.3241 10.2846 25.5826 13.1679 25.888L12.9407 26.9377H4.36133L4.62773 25.888C7.02524 25.5904 7.511 25.3633 9.3444 22.2927L20.8462 2.29516L22.0841 2.10718C23.7295 13.1203 24.56 18.1413 25.3043 22.6687C25.7196 25.2928 26.0173 25.6296 28.7517 25.888L28.4853 26.9298ZM19.8668 6.8148H19.7885C17.8767 10.3005 15.965 13.7078 14.4293 16.5512H21.285L19.8668 6.8148Z" fill="#2E306C"/>
<path d="M32.865 1.22978C34.6984 1.04179 36.3516 0.634475 37.4329 0.297657C38.0283 0.0705007 38.3339 0 38.5533 0C38.8902 0 38.9293 0.376016 38.7413 1.15931C37.4642 6.21942 36.4535 10.9349 35.4428 15.5015C38.2164 11.9453 41.3974 10.034 43.6068 10.034C45.8163 10.034 46.3021 12.5093 46.3021 14.1542C46.3021 18.6503 43.7165 23.1073 40.418 25.3162C38.1302 26.8515 36.1871 27.3763 34.8395 27.3763C33.8679 27.3763 33.0453 27.0786 32.3636 26.3658C31.5801 25.5434 30.9768 24.0786 31.729 20.3344C32.7789 15.1255 34.0168 9.69722 35.1764 4.00264C35.4741 2.50654 35.2155 2.42824 34.0873 2.31858C33.6721 2.27941 32.9982 2.24022 32.63 2.24022L32.865 1.22978ZM43.2073 14.7182C43.2073 13.3709 42.8312 12.243 41.7108 12.243C40.4728 12.243 38.5611 13.3318 36.2811 16.324C35.3096 17.5616 34.7455 18.9089 34.4477 20.7418C33.8523 24.3763 34.9727 25.6452 36.618 25.6452C40.5512 25.653 43.2073 18.7287 43.2073 14.7182Z" fill="#2E306C"/>
<path d="M60.82 23.2563C58.5322 25.8803 55.837 27.3764 53.2514 27.3764C50.7442 27.3764 49.0205 25.3947 49.0205 21.8307C49.0205 18.721 50.2976 15.1648 52.844 12.8384C54.6069 11.1935 57.0436 10.0264 58.7986 10.0264C60.444 10.0264 61.6819 10.888 61.7211 11.7496C61.7602 12.4624 61.1961 13.4337 60.444 13.7C60.1071 13.8489 59.8798 13.8097 59.5821 13.4729C58.7203 12.4233 57.8976 11.8593 56.738 11.8593C53.8939 11.8593 52.1702 16.5747 52.1702 21.0004C52.1702 23.7341 53.2201 25.1205 54.9438 25.1205C56.926 25.1205 59.1355 23.4364 60.2638 22.2693L60.82 23.2563Z" fill="#2E306C"/>
<path d="M68.242 11.4792L0 20.2007L0.656689 25.3364L68.8987 16.6148L68.242 11.4792Z" fill="white"/>
<path d="M68.4422 13.2859L0.200195 22.0073L0.398891 23.5612L68.6409 14.8398L68.4422 13.2859Z" fill="#2E306C"/>
</svg>
